<?xml version="1.0" encoding="UTF-8" standalone="no"?>
<!DOCTYPE svg PUBLIC "-//W3C//DTD SVG 1.1//EN"
 "http://www.w3.org/Graphics/SVG/1.1/DTD/svg11.dtd">
<!-- Generated by graphviz version 9.0.0 (20230911.1827)
 -->
<!-- Title: G Pages: 1 -->
<svg width="595pt" height="109pt"
 viewBox="0.00 0.00 594.70 108.95" xmlns="http://www.w3.org/2000/svg" xmlns:xlink="http://www.w3.org/1999/xlink">
<g id="graph0" class="graph" transform="scale(1 1) rotate(0) translate(21.6 87.35)">
<title>G</title>
<polygon fill="#111111" stroke="none" points="-21.6,21.6 -21.6,-87.35 573.1,-87.35 573.1,21.6 -21.6,21.6"/>
<!-- config.js -->
<g id="node1" class="node">
<title>config.js</title>
<path fill="none" stroke="#cfffac" d="M314.96,-65.75C314.96,-65.75 265.29,-65.75 265.29,-65.75 261.33,-65.75 257.38,-61.79 257.38,-57.83 257.38,-57.83 257.38,-49.92 257.38,-49.92 257.38,-45.96 261.33,-42 265.29,-42 265.29,-42 314.96,-42 314.96,-42 318.92,-42 322.88,-45.96 322.88,-49.92 322.88,-49.92 322.88,-57.83 322.88,-57.83 322.88,-61.79 318.92,-65.75 314.96,-65.75"/>
<text text-anchor="middle" x="290.12" y="-48.45" font-family="Arial" font-size="14.00" fill="#cfffac">config.js</text>
</g>
<!-- digested.js -->
<g id="node2" class="node">
<title>digested.js</title>
<path fill="none" stroke="#c6c5fe" d="M203.33,-44.75C203.33,-44.75 138.67,-44.75 138.67,-44.75 134.71,-44.75 130.75,-40.79 130.75,-36.83 130.75,-36.83 130.75,-28.92 130.75,-28.92 130.75,-24.96 134.71,-21 138.67,-21 138.67,-21 203.33,-21 203.33,-21 207.29,-21 211.25,-24.96 211.25,-28.92 211.25,-28.92 211.25,-36.83 211.25,-36.83 211.25,-40.79 207.29,-44.75 203.33,-44.75"/>
<text text-anchor="middle" x="171" y="-27.45" font-family="Arial" font-size="14.00" fill="#c6c5fe">digested.js</text>
</g>
<!-- digested.js&#45;&gt;config.js -->
<g id="edge1" class="edge">
<title>digested.js&#45;&gt;config.js</title>
<path fill="none" stroke="#757575" d="M211.65,-39.98C222.59,-41.95 234.51,-44.08 245.65,-46.08"/>
<polygon fill="#757575" stroke="#757575" points="244.95,-49.51 255.41,-47.83 246.18,-42.62 244.95,-49.51"/>
</g>
<!-- summary.js -->
<g id="node3" class="node">
<title>summary.js</title>
<path fill="none" stroke="#c6c5fe" d="M325.08,-23.75C325.08,-23.75 255.17,-23.75 255.17,-23.75 251.21,-23.75 247.25,-19.79 247.25,-15.83 247.25,-15.83 247.25,-7.92 247.25,-7.92 247.25,-3.96 251.21,0 255.17,0 255.17,0 325.08,0 325.08,0 329.04,0 333,-3.96 333,-7.92 333,-7.92 333,-15.83 333,-15.83 333,-19.79 329.04,-23.75 325.08,-23.75"/>
<text text-anchor="middle" x="290.12" y="-6.45" font-family="Arial" font-size="14.00" fill="#c6c5fe">summary.js</text>
</g>
<!-- digested.js&#45;&gt;summary.js -->
<g id="edge2" class="edge">
<title>digested.js&#45;&gt;summary.js</title>
<path fill="none" stroke="#757575" d="M211.65,-25.77C219.41,-24.37 227.67,-22.89 235.79,-21.44"/>
<polygon fill="#757575" stroke="#757575" points="236.39,-24.89 245.62,-19.68 235.16,-18 236.39,-24.89"/>
</g>
<!-- markdown.js -->
<g id="node6" class="node">
<title>markdown.js</title>
<path fill="none" stroke="#c6c5fe" d="M453.58,-23.75C453.58,-23.75 376.92,-23.75 376.92,-23.75 372.96,-23.75 369,-19.79 369,-15.83 369,-15.83 369,-7.92 369,-7.92 369,-3.96 372.96,0 376.92,0 376.92,0 453.58,0 453.58,0 457.54,0 461.5,-3.96 461.5,-7.92 461.5,-7.92 461.5,-15.83 461.5,-15.83 461.5,-19.79 457.54,-23.75 453.58,-23.75"/>
<text text-anchor="middle" x="415.25" y="-6.45" font-family="Arial" font-size="14.00" fill="#c6c5fe">markdown.js</text>
</g>
<!-- summary.js&#45;&gt;markdown.js -->
<g id="edge5" class="edge">
<title>summary.js&#45;&gt;markdown.js</title>
<path fill="none" stroke="#757575" d="M333.5,-11.88C341.25,-11.88 349.46,-11.88 357.55,-11.88"/>
<polygon fill="#757575" stroke="#757575" points="357.34,-15.38 367.34,-11.88 357.34,-8.38 357.34,-15.38"/>
</g>
<!-- executable.js -->
<g id="node4" class="node">
<title>executable.js</title>
<path fill="none" stroke="#c6c5fe" d="M86.83,-44.75C86.83,-44.75 7.92,-44.75 7.92,-44.75 3.96,-44.75 0,-40.79 0,-36.83 0,-36.83 0,-28.92 0,-28.92 0,-24.96 3.96,-21 7.92,-21 7.92,-21 86.83,-21 86.83,-21 90.79,-21 94.75,-24.96 94.75,-28.92 94.75,-28.92 94.75,-36.83 94.75,-36.83 94.75,-40.79 90.79,-44.75 86.83,-44.75"/>
<text text-anchor="middle" x="47.38" y="-27.45" font-family="Arial" font-size="14.00" fill="#c6c5fe">executable.js</text>
</g>
<!-- executable.js&#45;&gt;digested.js -->
<g id="edge3" class="edge">
<title>executable.js&#45;&gt;digested.js</title>
<path fill="none" stroke="#757575" d="M95.05,-32.88C102.88,-32.88 111.04,-32.88 118.98,-32.88"/>
<polygon fill="#757575" stroke="#757575" points="118.86,-36.38 128.86,-32.88 118.86,-29.38 118.86,-36.38"/>
</g>
<!-- link.js -->
<g id="node5" class="node">
<title>link.js</title>
<path fill="none" stroke="#cfffac" d="M543.58,-23.75C543.58,-23.75 505.42,-23.75 505.42,-23.75 501.46,-23.75 497.5,-19.79 497.5,-15.83 497.5,-15.83 497.5,-7.92 497.5,-7.92 497.5,-3.96 501.46,0 505.42,0 505.42,0 543.58,0 543.58,0 547.54,0 551.5,-3.96 551.5,-7.92 551.5,-7.92 551.5,-15.83 551.5,-15.83 551.5,-19.79 547.54,-23.75 543.58,-23.75"/>
<text text-anchor="middle" x="524.5" y="-6.45" font-family="Arial" font-size="14.00" fill="#cfffac">link.js</text>
</g>
<!-- markdown.js&#45;&gt;link.js -->
<g id="edge4" class="edge">
<title>markdown.js&#45;&gt;link.js</title>
<path fill="none" stroke="#757575" d="M461.73,-11.88C469.77,-11.88 478.06,-11.88 485.85,-11.88"/>
<polygon fill="#757575" stroke="#757575" points="485.69,-15.38 495.69,-11.88 485.69,-8.38 485.69,-15.38"/>
</g>
</g>
</svg>
