<?xml version="1.0" encoding="UTF-8" standalone="no"?>
<!DOCTYPE svg PUBLIC "-//W3C//DTD SVG 1.1//EN"
 "http://www.w3.org/Graphics/SVG/1.1/DTD/svg11.dtd">
<!-- Generated by graphviz version 9.0.0 (20230911.1827)
 -->
<!-- Title: G Pages: 1 -->
<svg width="583pt" height="265pt"
 viewBox="0.00 0.00 583.20 264.95" xmlns="http://www.w3.org/2000/svg" xmlns:xlink="http://www.w3.org/1999/xlink">
<g id="graph0" class="graph" transform="scale(1 1) rotate(0) translate(21.6 243.35)">
<title>G</title>
<polygon fill="#111111" stroke="none" points="-21.6,21.6 -21.6,-243.35 561.6,-243.35 561.6,21.6 -21.6,21.6"/>
<!-- ../package.json -->
<g id="node1" class="node">
<title>../package.json</title>
<path fill="none" stroke="#cfffac" d="M319.58,-221.75C319.58,-221.75 228.67,-221.75 228.67,-221.75 224.71,-221.75 220.75,-217.79 220.75,-213.83 220.75,-213.83 220.75,-205.92 220.75,-205.92 220.75,-201.96 224.71,-198 228.67,-198 228.67,-198 319.58,-198 319.58,-198 323.54,-198 327.5,-201.96 327.5,-205.92 327.5,-205.92 327.5,-213.83 327.5,-213.83 327.5,-217.79 323.54,-221.75 319.58,-221.75"/>
<text text-anchor="middle" x="274.12" y="-204.45" font-family="Arial" font-size="14.00" fill="#cfffac">../package.json</text>
</g>
<!-- cli.js -->
<g id="node2" class="node">
<title>cli.js</title>
<path fill="none" stroke="#c6c5fe" d="M176.83,-120.75C176.83,-120.75 138.67,-120.75 138.67,-120.75 134.71,-120.75 130.75,-116.79 130.75,-112.83 130.75,-112.83 130.75,-104.92 130.75,-104.92 130.75,-100.96 134.71,-97 138.67,-97 138.67,-97 176.83,-97 176.83,-97 180.79,-97 184.75,-100.96 184.75,-104.92 184.75,-104.92 184.75,-112.83 184.75,-112.83 184.75,-116.79 180.79,-120.75 176.83,-120.75"/>
<text text-anchor="middle" x="157.75" y="-103.45" font-family="Arial" font-size="14.00" fill="#c6c5fe">cli.js</text>
</g>
<!-- cli.js&#45;&gt;../package.json -->
<g id="edge1" class="edge">
<title>cli.js&#45;&gt;../package.json</title>
<path fill="none" stroke="#757575" d="M165.39,-121.09C175.33,-138.37 195.64,-169.93 220.75,-188.88 222.26,-190.01 223.83,-191.09 225.46,-192.13"/>
<polygon fill="#757575" stroke="#757575" points="223.42,-195 233.87,-196.77 226.8,-188.87 223.42,-195"/>
</g>
<!-- comment.js -->
<g id="node3" class="node">
<title>comment.js</title>
<path fill="none" stroke="#c6c5fe" d="M442.08,-141.75C442.08,-141.75 371.42,-141.75 371.42,-141.75 367.46,-141.75 363.5,-137.79 363.5,-133.83 363.5,-133.83 363.5,-125.92 363.5,-125.92 363.5,-121.96 367.46,-118 371.42,-118 371.42,-118 442.08,-118 442.08,-118 446.04,-118 450,-121.96 450,-125.92 450,-125.92 450,-133.83 450,-133.83 450,-137.79 446.04,-141.75 442.08,-141.75"/>
<text text-anchor="middle" x="406.75" y="-124.45" font-family="Arial" font-size="14.00" fill="#c6c5fe">comment.js</text>
</g>
<!-- cli.js&#45;&gt;comment.js -->
<g id="edge2" class="edge">
<title>cli.js&#45;&gt;comment.js</title>
<path fill="none" stroke="#757575" d="M185.18,-111.12C224.75,-114.49 300.24,-120.9 351.77,-125.29"/>
<polygon fill="#757575" stroke="#757575" points="351.26,-128.75 361.52,-126.11 351.85,-121.78 351.26,-128.75"/>
</g>
<!-- config.js -->
<g id="node4" class="node">
<title>config.js</title>
<path fill="none" stroke="#cfffac" d="M298.96,-23.75C298.96,-23.75 249.29,-23.75 249.29,-23.75 245.33,-23.75 241.38,-19.79 241.38,-15.83 241.38,-15.83 241.38,-7.92 241.38,-7.92 241.38,-3.96 245.33,0 249.29,0 249.29,0 298.96,0 298.96,0 302.92,0 306.88,-3.96 306.88,-7.92 306.88,-7.92 306.88,-15.83 306.88,-15.83 306.88,-19.79 302.92,-23.75 298.96,-23.75"/>
<text text-anchor="middle" x="274.12" y="-6.45" font-family="Arial" font-size="14.00" fill="#cfffac">config.js</text>
</g>
<!-- cli.js&#45;&gt;config.js -->
<g id="edge3" class="edge">
<title>cli.js&#45;&gt;config.js</title>
<path fill="none" stroke="#757575" d="M167.2,-96.51C178.13,-81.21 198.46,-55.06 220.75,-37.88 224.7,-34.83 229.06,-31.99 233.54,-29.4"/>
<polygon fill="#757575" stroke="#757575" points="234.89,-32.65 242.05,-24.84 231.58,-26.48 234.89,-32.65"/>
</g>
<!-- parse.js -->
<g id="node5" class="node">
<title>parse.js</title>
<path fill="none" stroke="#c6c5fe" d="M297.83,-179.75C297.83,-179.75 250.42,-179.75 250.42,-179.75 246.46,-179.75 242.5,-175.79 242.5,-171.83 242.5,-171.83 242.5,-163.92 242.5,-163.92 242.5,-159.96 246.46,-156 250.42,-156 250.42,-156 297.83,-156 297.83,-156 301.79,-156 305.75,-159.96 305.75,-163.92 305.75,-163.92 305.75,-171.83 305.75,-171.83 305.75,-175.79 301.79,-179.75 297.83,-179.75"/>
<text text-anchor="middle" x="274.12" y="-162.45" font-family="Arial" font-size="14.00" fill="#c6c5fe">parse.js</text>
</g>
<!-- cli.js&#45;&gt;parse.js -->
<g id="edge4" class="edge">
<title>cli.js&#45;&gt;parse.js</title>
<path fill="none" stroke="#757575" d="M181.34,-121.1C193.06,-127.39 207.63,-135.13 220.75,-141.88 226.28,-144.72 232.16,-147.69 237.91,-150.56"/>
<polygon fill="#757575" stroke="#757575" points="236.14,-153.59 246.65,-154.91 239.26,-147.33 236.14,-153.59"/>
</g>
<!-- renderer.js -->
<g id="node6" class="node">
<title>renderer.js</title>
<path fill="none" stroke="#c6c5fe" d="M438.71,-61.75C438.71,-61.75 374.79,-61.75 374.79,-61.75 370.83,-61.75 366.88,-57.79 366.88,-53.83 366.88,-53.83 366.88,-45.92 366.88,-45.92 366.88,-41.96 370.83,-38 374.79,-38 374.79,-38 438.71,-38 438.71,-38 442.67,-38 446.62,-41.96 446.62,-45.92 446.62,-45.92 446.62,-53.83 446.62,-53.83 446.62,-57.79 442.67,-61.75 438.71,-61.75"/>
<text text-anchor="middle" x="406.75" y="-44.45" font-family="Arial" font-size="14.00" fill="#c6c5fe">renderer.js</text>
</g>
<!-- cli.js&#45;&gt;renderer.js -->
<g id="edge5" class="edge">
<title>cli.js&#45;&gt;renderer.js</title>
<path fill="none" stroke="#757575" d="M177.52,-96.65C189.44,-89.47 205.44,-80.85 220.75,-75.88 264.91,-61.51 317.55,-55.08 355.37,-52.21"/>
<polygon fill="#757575" stroke="#757575" points="355.36,-55.72 365.09,-51.53 354.87,-48.73 355.36,-55.72"/>
</g>
<!-- text.js -->
<g id="node7" class="node">
<title>text.js</title>
<path fill="none" stroke="#cfffac" d="M532.08,-121.75C532.08,-121.75 493.92,-121.75 493.92,-121.75 489.96,-121.75 486,-117.79 486,-113.83 486,-113.83 486,-105.92 486,-105.92 486,-101.96 489.96,-98 493.92,-98 493.92,-98 532.08,-98 532.08,-98 536.04,-98 540,-101.96 540,-105.92 540,-105.92 540,-113.83 540,-113.83 540,-117.79 536.04,-121.75 532.08,-121.75"/>
<text text-anchor="middle" x="513" y="-104.45" font-family="Arial" font-size="14.00" fill="#cfffac">text.js</text>
</g>
<!-- cli.js&#45;&gt;text.js -->
<g id="edge6" class="edge">
<title>cli.js&#45;&gt;text.js</title>
<path fill="none" stroke="#757575" d="M184.86,-108.73C235.83,-108.49 352.16,-108.09 450,-108.88 457.88,-108.94 466.33,-109.05 474.37,-109.17"/>
<polygon fill="#757575" stroke="#757575" points="474.19,-112.67 484.24,-109.33 474.3,-105.67 474.19,-112.67"/>
</g>
<!-- comment.js&#45;&gt;text.js -->
<g id="edge8" class="edge">
<title>comment.js&#45;&gt;text.js</title>
<path fill="none" stroke="#757575" d="M450.45,-121.68C458.46,-120.15 466.78,-118.55 474.61,-117.05"/>
<polygon fill="#757575" stroke="#757575" points="475,-120.54 484.16,-115.22 473.68,-113.66 475,-120.54"/>
</g>
<!-- file.js -->
<g id="node8" class="node">
<title>file.js</title>
<path fill="none" stroke="#cfffac" d="M532.08,-191.75C532.08,-191.75 493.92,-191.75 493.92,-191.75 489.96,-191.75 486,-187.79 486,-183.83 486,-183.83 486,-175.92 486,-175.92 486,-171.96 489.96,-168 493.92,-168 493.92,-168 532.08,-168 532.08,-168 536.04,-168 540,-171.96 540,-175.92 540,-175.92 540,-183.83 540,-183.83 540,-187.79 536.04,-191.75 532.08,-191.75"/>
<text text-anchor="middle" x="513" y="-174.45" font-family="Arial" font-size="14.00" fill="#cfffac">file.js</text>
</g>
<!-- comment.js&#45;&gt;file.js -->
<g id="edge7" class="edge">
<title>comment.js&#45;&gt;file.js</title>
<path fill="none" stroke="#757575" d="M433.52,-142.23C446.4,-148.41 462.19,-155.98 476.22,-162.71"/>
<polygon fill="#757575" stroke="#757575" points="474.63,-165.83 485.16,-167 477.66,-159.52 474.63,-165.83"/>
</g>
<!-- parse.js&#45;&gt;comment.js -->
<g id="edge10" class="edge">
<title>parse.js&#45;&gt;comment.js</title>
<path fill="none" stroke="#757575" d="M306.08,-158.87C320.06,-154.8 336.97,-149.88 352.86,-145.26"/>
<polygon fill="#757575" stroke="#757575" points="353.57,-148.7 362.2,-142.55 351.62,-141.98 353.57,-148.7"/>
</g>
<!-- parse.js&#45;&gt;text.js -->
<g id="edge12" class="edge">
<title>parse.js&#45;&gt;text.js</title>
<path fill="none" stroke="#757575" d="M306.11,-169.3C341.84,-169.95 401.84,-167.94 450,-150.88 463.92,-145.94 477.79,-137.22 488.87,-129.09"/>
<polygon fill="#757575" stroke="#757575" points="490.83,-132 496.62,-123.13 486.56,-126.45 490.83,-132"/>
</g>
<!-- parse.js&#45;&gt;file.js -->
<g id="edge11" class="edge">
<title>parse.js&#45;&gt;file.js</title>
<path fill="none" stroke="#757575" d="M306.02,-174.87C322.91,-178.34 344.24,-182.15 363.5,-183.88 401.79,-187.31 411.58,-185.11 450,-183.88 457.9,-183.62 466.35,-183.18 474.39,-182.69"/>
<polygon fill="#757575" stroke="#757575" points="474.51,-186.19 484.26,-182.04 474.05,-179.21 474.51,-186.19"/>
</g>
<!-- renderer.js&#45;&gt;text.js -->
<g id="edge13" class="edge">
<title>renderer.js&#45;&gt;text.js</title>
<path fill="none" stroke="#757575" d="M429.1,-62.16C444,-70.74 464.12,-82.32 480.81,-91.92"/>
<polygon fill="#757575" stroke="#757575" points="478.96,-94.89 489.37,-96.85 482.45,-88.83 478.96,-94.89"/>
</g>
<!-- executable.js -->
<g id="node9" class="node">
<title>executable.js</title>
<path fill="none" stroke="#c6c5fe" d="M86.83,-120.75C86.83,-120.75 7.92,-120.75 7.92,-120.75 3.96,-120.75 0,-116.79 0,-112.83 0,-112.83 0,-104.92 0,-104.92 0,-100.96 3.96,-97 7.92,-97 7.92,-97 86.83,-97 86.83,-97 90.79,-97 94.75,-100.96 94.75,-104.92 94.75,-104.92 94.75,-112.83 94.75,-112.83 94.75,-116.79 90.79,-120.75 86.83,-120.75"/>
<text text-anchor="middle" x="47.38" y="-103.45" font-family="Arial" font-size="14.00" fill="#c6c5fe">executable.js</text>
</g>
<!-- executable.js&#45;&gt;cli.js -->
<g id="edge9" class="edge">
<title>executable.js&#45;&gt;cli.js</title>
<path fill="none" stroke="#757575" d="M94.96,-108.88C103.04,-108.88 111.35,-108.88 119.15,-108.88"/>
<polygon fill="#757575" stroke="#757575" points="118.98,-112.38 128.98,-108.88 118.98,-105.38 118.98,-112.38"/>
</g>
</g>
</svg>
