<?xml version="1.0" encoding="UTF-8" standalone="no"?>
<!DOCTYPE svg PUBLIC "-//W3C//DTD SVG 1.1//EN"
 "http://www.w3.org/Graphics/SVG/1.1/DTD/svg11.dtd">
<!-- Generated by graphviz version 9.0.0 (20230911.1827)
 -->
<!-- Title: G Pages: 1 -->
<svg width="335pt" height="191pt"
 viewBox="0.00 0.00 335.45 190.95" xmlns="http://www.w3.org/2000/svg" xmlns:xlink="http://www.w3.org/1999/xlink">
<g id="graph0" class="graph" transform="scale(1 1) rotate(0) translate(21.6 169.35)">
<title>G</title>
<polygon fill="#111111" stroke="none" points="-21.6,21.6 -21.6,-169.35 313.85,-169.35 313.85,21.6 -21.6,21.6"/>
<!-- ../package.json -->
<g id="node1" class="node">
<title>../package.json</title>
<path fill="none" stroke="#cfffac" d="M188.83,-147.75C188.83,-147.75 97.92,-147.75 97.92,-147.75 93.96,-147.75 90,-143.79 90,-139.83 90,-139.83 90,-131.92 90,-131.92 90,-127.96 93.96,-124 97.92,-124 97.92,-124 188.83,-124 188.83,-124 192.79,-124 196.75,-127.96 196.75,-131.92 196.75,-131.92 196.75,-139.83 196.75,-139.83 196.75,-143.79 192.79,-147.75 188.83,-147.75"/>
<text text-anchor="middle" x="143.38" y="-130.45" font-family="Arial" font-size="14.00" fill="#cfffac">../package.json</text>
</g>
<!-- cli.js -->
<g id="node2" class="node">
<title>cli.js</title>
<path fill="none" stroke="#c6c5fe" d="M46.08,-85.75C46.08,-85.75 7.92,-85.75 7.92,-85.75 3.96,-85.75 0,-81.79 0,-77.83 0,-77.83 0,-69.92 0,-69.92 0,-65.96 3.96,-62 7.92,-62 7.92,-62 46.08,-62 46.08,-62 50.04,-62 54,-65.96 54,-69.92 54,-69.92 54,-77.83 54,-77.83 54,-81.79 50.04,-85.75 46.08,-85.75"/>
<text text-anchor="middle" x="27" y="-68.45" font-family="Arial" font-size="14.00" fill="#c6c5fe">cli.js</text>
</g>
<!-- cli.js&#45;&gt;../package.json -->
<g id="edge1" class="edge">
<title>cli.js&#45;&gt;../package.json</title>
<path fill="none" stroke="#757575" d="M44.54,-86.15C56.71,-94.85 73.88,-106.43 90,-114.88 92.67,-116.28 95.46,-117.64 98.3,-118.97"/>
<polygon fill="#757575" stroke="#757575" points="96.72,-122.1 107.28,-122.93 99.54,-115.69 96.72,-122.1"/>
</g>
<!-- config.js -->
<g id="node3" class="node">
<title>config.js</title>
<path fill="none" stroke="#cfffac" d="M168.21,-105.75C168.21,-105.75 118.54,-105.75 118.54,-105.75 114.58,-105.75 110.62,-101.79 110.62,-97.83 110.62,-97.83 110.62,-89.92 110.62,-89.92 110.62,-85.96 114.58,-82 118.54,-82 118.54,-82 168.21,-82 168.21,-82 172.17,-82 176.12,-85.96 176.12,-89.92 176.12,-89.92 176.12,-97.83 176.12,-97.83 176.12,-101.79 172.17,-105.75 168.21,-105.75"/>
<text text-anchor="middle" x="143.38" y="-88.45" font-family="Arial" font-size="14.00" fill="#cfffac">config.js</text>
</g>
<!-- cli.js&#45;&gt;config.js -->
<g id="edge2" class="edge">
<title>cli.js&#45;&gt;config.js</title>
<path fill="none" stroke="#757575" d="M54.24,-78.46C67.48,-80.78 83.9,-83.65 98.96,-86.28"/>
<polygon fill="#757575" stroke="#757575" points="98.19,-89.7 108.64,-87.98 99.39,-82.81 98.19,-89.7"/>
</g>
<!-- reader.js -->
<g id="node4" class="node">
<title>reader.js</title>
<path fill="none" stroke="#c6c5fe" d="M169.33,-25.75C169.33,-25.75 117.42,-25.75 117.42,-25.75 113.46,-25.75 109.5,-21.79 109.5,-17.83 109.5,-17.83 109.5,-9.92 109.5,-9.92 109.5,-5.96 113.46,-2 117.42,-2 117.42,-2 169.33,-2 169.33,-2 173.29,-2 177.25,-5.96 177.25,-9.92 177.25,-9.92 177.25,-17.83 177.25,-17.83 177.25,-21.79 173.29,-25.75 169.33,-25.75"/>
<text text-anchor="middle" x="143.38" y="-8.45" font-family="Arial" font-size="14.00" fill="#c6c5fe">reader.js</text>
</g>
<!-- cli.js&#45;&gt;reader.js -->
<g id="edge3" class="edge">
<title>cli.js&#45;&gt;reader.js</title>
<path fill="none" stroke="#757575" d="M49.98,-61.54C61.78,-54.99 76.61,-46.86 90,-39.88 95.46,-37.03 101.26,-34.07 106.95,-31.21"/>
<polygon fill="#757575" stroke="#757575" points="108.21,-34.5 115.61,-26.91 105.1,-28.23 108.21,-34.5"/>
</g>
<!-- trace.js -->
<g id="node5" class="node">
<title>trace.js</title>
<path fill="none" stroke="#cfffac" d="M284.33,-65.75C284.33,-65.75 240.67,-65.75 240.67,-65.75 236.71,-65.75 232.75,-61.79 232.75,-57.83 232.75,-57.83 232.75,-49.92 232.75,-49.92 232.75,-45.96 236.71,-42 240.67,-42 240.67,-42 284.33,-42 284.33,-42 288.29,-42 292.25,-45.96 292.25,-49.92 292.25,-49.92 292.25,-57.83 292.25,-57.83 292.25,-61.79 288.29,-65.75 284.33,-65.75"/>
<text text-anchor="middle" x="262.5" y="-48.45" font-family="Arial" font-size="14.00" fill="#cfffac">trace.js</text>
</g>
<!-- cli.js&#45;&gt;trace.js -->
<g id="edge4" class="edge">
<title>cli.js&#45;&gt;trace.js</title>
<path fill="none" stroke="#757575" d="M54.33,-71.62C94.99,-68.14 173.34,-61.43 221.17,-57.33"/>
<polygon fill="#757575" stroke="#757575" points="221.17,-60.84 230.84,-56.5 220.57,-53.87 221.17,-60.84"/>
</g>
<!-- reader.js&#45;&gt;trace.js -->
<g id="edge6" class="edge">
<title>reader.js&#45;&gt;trace.js</title>
<path fill="none" stroke="#757575" d="M177.63,-25.23C191.42,-29.94 207.54,-35.45 221.94,-40.36"/>
<polygon fill="#757575" stroke="#757575" points="220.52,-43.58 231.12,-43.5 222.78,-36.95 220.52,-43.58"/>
</g>
<!-- hash.js -->
<g id="node6" class="node">
<title>hash.js</title>
<path fill="none" stroke="#cfffac" d="M283.96,-23.75C283.96,-23.75 241.04,-23.75 241.04,-23.75 237.08,-23.75 233.12,-19.79 233.12,-15.83 233.12,-15.83 233.12,-7.92 233.12,-7.92 233.12,-3.96 237.08,0 241.04,0 241.04,0 283.96,0 283.96,0 287.92,0 291.88,-3.96 291.88,-7.92 291.88,-7.92 291.88,-15.83 291.88,-15.83 291.88,-19.79 287.92,-23.75 283.96,-23.75"/>
<text text-anchor="middle" x="262.5" y="-6.45" font-family="Arial" font-size="14.00" fill="#cfffac">hash.js</text>
</g>
<!-- reader.js&#45;&gt;hash.js -->
<g id="edge5" class="edge">
<title>reader.js&#45;&gt;hash.js</title>
<path fill="none" stroke="#757575" d="M177.63,-13.31C191.39,-13.07 207.47,-12.8 221.85,-12.55"/>
<polygon fill="#757575" stroke="#757575" points="221.48,-16.06 231.42,-12.39 221.37,-9.06 221.48,-16.06"/>
</g>
</g>
</svg>
