<?xml version="1.0" encoding="UTF-8" standalone="no"?>
<!DOCTYPE svg PUBLIC "-//W3C//DTD SVG 1.1//EN"
 "http://www.w3.org/Graphics/SVG/1.1/DTD/svg11.dtd">
<!-- Generated by graphviz version 9.0.0 (20230911.1827)
 -->
<!-- Title: G Pages: 1 -->
<svg width="324pt" height="191pt"
 viewBox="0.00 0.00 324.20 190.95" xmlns="http://www.w3.org/2000/svg" xmlns:xlink="http://www.w3.org/1999/xlink">
<g id="graph0" class="graph" transform="scale(1 1) rotate(0) translate(21.6 169.35)">
<title>G</title>
<polygon fill="#111111" stroke="none" points="-21.6,21.6 -21.6,-169.35 302.6,-169.35 302.6,21.6 -21.6,21.6"/>
<!-- cli.js -->
<g id="node1" class="node">
<title>cli.js</title>
<path fill="none" stroke="#c6c5fe" d="M46.08,-85.75C46.08,-85.75 7.92,-85.75 7.92,-85.75 3.96,-85.75 0,-81.79 0,-77.83 0,-77.83 0,-69.92 0,-69.92 0,-65.96 3.96,-62 7.92,-62 7.92,-62 46.08,-62 46.08,-62 50.04,-62 54,-65.96 54,-69.92 54,-69.92 54,-77.83 54,-77.83 54,-81.79 50.04,-85.75 46.08,-85.75"/>
<text text-anchor="middle" x="27" y="-68.45" font-family="Arial" font-size="14.00" fill="#c6c5fe">cli.js</text>
</g>
<!-- config.js -->
<g id="node2" class="node">
<title>config.js</title>
<path fill="none" stroke="#cfffac" d="M162.58,-147.75C162.58,-147.75 112.92,-147.75 112.92,-147.75 108.96,-147.75 105,-143.79 105,-139.83 105,-139.83 105,-131.92 105,-131.92 105,-127.96 108.96,-124 112.92,-124 112.92,-124 162.58,-124 162.58,-124 166.54,-124 170.5,-127.96 170.5,-131.92 170.5,-131.92 170.5,-139.83 170.5,-139.83 170.5,-143.79 166.54,-147.75 162.58,-147.75"/>
<text text-anchor="middle" x="137.75" y="-130.45" font-family="Arial" font-size="14.00" fill="#cfffac">config.js</text>
</g>
<!-- cli.js&#45;&gt;config.js -->
<g id="edge1" class="edge">
<title>cli.js&#45;&gt;config.js</title>
<path fill="none" stroke="#757575" d="M44.9,-86.13C57.11,-94.72 74.17,-106.16 90,-114.88 92.37,-116.18 94.83,-117.47 97.34,-118.73"/>
<polygon fill="#757575" stroke="#757575" points="95.82,-121.88 106.35,-123.06 98.85,-115.57 95.82,-121.88"/>
</g>
<!-- package.json -->
<g id="node3" class="node">
<title>package.json</title>
<path fill="none" stroke="#cfffac" d="M177.58,-105.75C177.58,-105.75 97.92,-105.75 97.92,-105.75 93.96,-105.75 90,-101.79 90,-97.83 90,-97.83 90,-89.92 90,-89.92 90,-85.96 93.96,-82 97.92,-82 97.92,-82 177.58,-82 177.58,-82 181.54,-82 185.5,-85.96 185.5,-89.92 185.5,-89.92 185.5,-97.83 185.5,-97.83 185.5,-101.79 181.54,-105.75 177.58,-105.75"/>
<text text-anchor="middle" x="137.75" y="-88.45" font-family="Arial" font-size="14.00" fill="#cfffac">package.json</text>
</g>
<!-- cli.js&#45;&gt;package.json -->
<g id="edge2" class="edge">
<title>cli.js&#45;&gt;package.json</title>
<path fill="none" stroke="#757575" d="M54.33,-78.72C61.76,-80.08 70.15,-81.63 78.66,-83.19"/>
<polygon fill="#757575" stroke="#757575" points="77.9,-86.61 88.37,-84.98 79.17,-79.73 77.9,-86.61"/>
</g>
<!-- reader.js -->
<g id="node4" class="node">
<title>reader.js</title>
<path fill="none" stroke="#c6c5fe" d="M163.71,-25.75C163.71,-25.75 111.79,-25.75 111.79,-25.75 107.83,-25.75 103.88,-21.79 103.88,-17.83 103.88,-17.83 103.88,-9.92 103.88,-9.92 103.88,-5.96 107.83,-2 111.79,-2 111.79,-2 163.71,-2 163.71,-2 167.67,-2 171.62,-5.96 171.62,-9.92 171.62,-9.92 171.62,-17.83 171.62,-17.83 171.62,-21.79 167.67,-25.75 163.71,-25.75"/>
<text text-anchor="middle" x="137.75" y="-8.45" font-family="Arial" font-size="14.00" fill="#c6c5fe">reader.js</text>
</g>
<!-- cli.js&#45;&gt;reader.js -->
<g id="edge3" class="edge">
<title>cli.js&#45;&gt;reader.js</title>
<path fill="none" stroke="#757575" d="M50.27,-61.59C65.96,-52.93 87.2,-41.21 104.71,-31.55"/>
<polygon fill="#757575" stroke="#757575" points="106.12,-34.77 113.18,-26.88 102.74,-28.64 106.12,-34.77"/>
</g>
<!-- trace.js -->
<g id="node5" class="node">
<title>trace.js</title>
<path fill="none" stroke="#cfffac" d="M273.08,-65.75C273.08,-65.75 229.42,-65.75 229.42,-65.75 225.46,-65.75 221.5,-61.79 221.5,-57.83 221.5,-57.83 221.5,-49.92 221.5,-49.92 221.5,-45.96 225.46,-42 229.42,-42 229.42,-42 273.08,-42 273.08,-42 277.04,-42 281,-45.96 281,-49.92 281,-49.92 281,-57.83 281,-57.83 281,-61.79 277.04,-65.75 273.08,-65.75"/>
<text text-anchor="middle" x="251.25" y="-48.45" font-family="Arial" font-size="14.00" fill="#cfffac">trace.js</text>
</g>
<!-- cli.js&#45;&gt;trace.js -->
<g id="edge4" class="edge">
<title>cli.js&#45;&gt;trace.js</title>
<path fill="none" stroke="#757575" d="M54.37,-71.5C92.79,-68.04 164.49,-61.59 209.67,-57.53"/>
<polygon fill="#757575" stroke="#757575" points="209.95,-61.02 219.59,-56.63 209.32,-54.04 209.95,-61.02"/>
</g>
<!-- reader.js&#45;&gt;trace.js -->
<g id="edge6" class="edge">
<title>reader.js&#45;&gt;trace.js</title>
<path fill="none" stroke="#757575" d="M171.9,-25.77C184.02,-30.11 197.84,-35.07 210.48,-39.61"/>
<polygon fill="#757575" stroke="#757575" points="209.18,-42.86 219.77,-42.94 211.54,-36.27 209.18,-42.86"/>
</g>
<!-- hash.js -->
<g id="node6" class="node">
<title>hash.js</title>
<path fill="none" stroke="#cfffac" d="M272.71,-23.75C272.71,-23.75 229.79,-23.75 229.79,-23.75 225.83,-23.75 221.88,-19.79 221.88,-15.83 221.88,-15.83 221.88,-7.92 221.88,-7.92 221.88,-3.96 225.83,0 229.79,0 229.79,0 272.71,0 272.71,0 276.67,0 280.62,-3.96 280.62,-7.92 280.62,-7.92 280.62,-15.83 280.62,-15.83 280.62,-19.79 276.67,-23.75 272.71,-23.75"/>
<text text-anchor="middle" x="251.25" y="-6.45" font-family="Arial" font-size="14.00" fill="#cfffac">hash.js</text>
</g>
<!-- reader.js&#45;&gt;hash.js -->
<g id="edge5" class="edge">
<title>reader.js&#45;&gt;hash.js</title>
<path fill="none" stroke="#757575" d="M171.9,-13.28C183.99,-13.06 197.79,-12.82 210.4,-12.59"/>
<polygon fill="#757575" stroke="#757575" points="210.12,-16.1 220.06,-12.42 209.99,-9.1 210.12,-16.1"/>
</g>
</g>
</svg>
