<?xml version="1.0" encoding="UTF-8" standalone="no"?>
<!DOCTYPE svg PUBLIC "-//W3C//DTD SVG 1.1//EN"
 "http://www.w3.org/Graphics/SVG/1.1/DTD/svg11.dtd">
<!-- Generated by graphviz version 9.0.0 (20230911.1827)
 -->
<!-- Title: G Pages: 1 -->
<svg width="784pt" height="209pt"
 viewBox="0.00 0.00 784.45 209.03" xmlns="http://www.w3.org/2000/svg" xmlns:xlink="http://www.w3.org/1999/xlink">
<g id="graph0" class="graph" transform="scale(1 1) rotate(0) translate(21.6 187.43)">
<title>G</title>
<polygon fill="#111111" stroke="none" points="-21.6,21.6 -21.6,-187.43 762.85,-187.43 762.85,21.6 -21.6,21.6"/>
<!-- config.js -->
<g id="node1" class="node">
<title>config.js</title>
<path fill="none" stroke="#cfffac" d="M481.96,-165.83C481.96,-165.83 432.29,-165.83 432.29,-165.83 428.33,-165.83 424.38,-161.87 424.38,-157.92 424.38,-157.92 424.38,-150 424.38,-150 424.38,-146.04 428.33,-142.08 432.29,-142.08 432.29,-142.08 481.96,-142.08 481.96,-142.08 485.92,-142.08 489.88,-146.04 489.88,-150 489.88,-150 489.88,-157.92 489.88,-157.92 489.88,-161.87 485.92,-165.83 481.96,-165.83"/>
<text text-anchor="middle" x="457.12" y="-148.53" font-family="Arial" font-size="14.00" fill="#cfffac">config.js</text>
</g>
<!-- constants.js -->
<g id="node2" class="node">
<title>constants.js</title>
<path fill="none" stroke="#c6c5fe" d="M634.08,-105.83C634.08,-105.83 562.67,-105.83 562.67,-105.83 558.71,-105.83 554.75,-101.87 554.75,-97.92 554.75,-97.92 554.75,-90 554.75,-90 554.75,-86.04 558.71,-82.08 562.67,-82.08 562.67,-82.08 634.08,-82.08 634.08,-82.08 638.04,-82.08 642,-86.04 642,-90 642,-90 642,-97.92 642,-97.92 642,-101.87 638.04,-105.83 634.08,-105.83"/>
<text text-anchor="middle" x="598.38" y="-88.53" font-family="Arial" font-size="14.00" fill="#c6c5fe">constants.js</text>
</g>
<!-- regex.js -->
<g id="node3" class="node">
<title>regex.js</title>
<path fill="none" stroke="#cfffac" d="M733.33,-105.83C733.33,-105.83 685.92,-105.83 685.92,-105.83 681.96,-105.83 678,-101.87 678,-97.92 678,-97.92 678,-90 678,-90 678,-86.04 681.96,-82.08 685.92,-82.08 685.92,-82.08 733.33,-82.08 733.33,-82.08 737.29,-82.08 741.25,-86.04 741.25,-90 741.25,-90 741.25,-97.92 741.25,-97.92 741.25,-101.87 737.29,-105.83 733.33,-105.83"/>
<text text-anchor="middle" x="709.62" y="-88.53" font-family="Arial" font-size="14.00" fill="#cfffac">regex.js</text>
</g>
<!-- constants.js&#45;&gt;regex.js -->
<g id="edge1" class="edge">
<title>constants.js&#45;&gt;regex.js</title>
<path fill="none" stroke="#757575" d="M642.24,-93.96C650.19,-93.96 658.49,-93.96 666.43,-93.96"/>
<polygon fill="#757575" stroke="#757575" points="666.19,-97.46 676.19,-93.96 666.19,-90.46 666.19,-97.46"/>
</g>
<!-- core.js -->
<g id="node4" class="node">
<title>core.js</title>
<path fill="none" stroke="#c6c5fe" d="M145.58,-45.83C145.58,-45.83 105.67,-45.83 105.67,-45.83 101.71,-45.83 97.75,-41.87 97.75,-37.92 97.75,-37.92 97.75,-30 97.75,-30 97.75,-26.04 101.71,-22.08 105.67,-22.08 105.67,-22.08 145.58,-22.08 145.58,-22.08 149.54,-22.08 153.5,-26.04 153.5,-30 153.5,-30 153.5,-37.92 153.5,-37.92 153.5,-41.87 149.54,-45.83 145.58,-45.83"/>
<text text-anchor="middle" x="125.62" y="-28.53" font-family="Arial" font-size="14.00" fill="#c6c5fe">core.js</text>
</g>
<!-- reporter.js -->
<g id="node5" class="node">
<title>reporter.js</title>
<path fill="none" stroke="#c6c5fe" d="M351.58,-125.83C351.58,-125.83 291.42,-125.83 291.42,-125.83 287.46,-125.83 283.5,-121.87 283.5,-117.92 283.5,-117.92 283.5,-110 283.5,-110 283.5,-106.04 287.46,-102.08 291.42,-102.08 291.42,-102.08 351.58,-102.08 351.58,-102.08 355.54,-102.08 359.5,-106.04 359.5,-110 359.5,-110 359.5,-117.92 359.5,-117.92 359.5,-121.87 355.54,-125.83 351.58,-125.83"/>
<text text-anchor="middle" x="321.5" y="-108.53" font-family="Arial" font-size="14.00" fill="#c6c5fe">reporter.js</text>
</g>
<!-- core.js&#45;&gt;reporter.js -->
<g id="edge2" class="edge">
<title>core.js&#45;&gt;reporter.js</title>
<path fill="none" stroke="#757575" d="M137.35,-46.33C148.93,-58.84 168.54,-77.76 189.5,-87.96 215.08,-100.4 246.24,-106.89 271.75,-110.27"/>
<polygon fill="#757575" stroke="#757575" points="271.18,-113.73 281.53,-111.44 272.01,-106.78 271.18,-113.73"/>
</g>
<!-- source&#45;matcher.js -->
<g id="node6" class="node">
<title>source&#45;matcher.js</title>
<path fill="none" stroke="#c6c5fe" d="M510.83,-85.83C510.83,-85.83 403.42,-85.83 403.42,-85.83 399.46,-85.83 395.5,-81.87 395.5,-77.92 395.5,-77.92 395.5,-70 395.5,-70 395.5,-66.04 399.46,-62.08 403.42,-62.08 403.42,-62.08 510.83,-62.08 510.83,-62.08 514.79,-62.08 518.75,-66.04 518.75,-70 518.75,-70 518.75,-77.92 518.75,-77.92 518.75,-81.87 514.79,-85.83 510.83,-85.83"/>
<text text-anchor="middle" x="457.12" y="-68.53" font-family="Arial" font-size="14.00" fill="#c6c5fe">source&#45;matcher.js</text>
</g>
<!-- core.js&#45;&gt;source&#45;matcher.js -->
<g id="edge3" class="edge">
<title>core.js&#45;&gt;source&#45;matcher.js</title>
<path fill="none" stroke="#757575" d="M153.77,-44.68C164.7,-48.56 177.54,-52.57 189.5,-54.96 254.51,-67.91 329.98,-72.33 384,-73.7"/>
<polygon fill="#757575" stroke="#757575" points="383.6,-77.19 393.68,-73.91 383.76,-70.19 383.6,-77.19"/>
</g>
<!-- stats.js -->
<g id="node7" class="node">
<title>stats.js</title>
<path fill="none" stroke="#c6c5fe" d="M239.58,-45.83C239.58,-45.83 197.42,-45.83 197.42,-45.83 193.46,-45.83 189.5,-41.87 189.5,-37.92 189.5,-37.92 189.5,-30 189.5,-30 189.5,-26.04 193.46,-22.08 197.42,-22.08 197.42,-22.08 239.58,-22.08 239.58,-22.08 243.54,-22.08 247.5,-26.04 247.5,-30 247.5,-30 247.5,-37.92 247.5,-37.92 247.5,-41.87 243.54,-45.83 239.58,-45.83"/>
<text text-anchor="middle" x="218.5" y="-28.53" font-family="Arial" font-size="14.00" fill="#c6c5fe">stats.js</text>
</g>
<!-- core.js&#45;&gt;stats.js -->
<g id="edge4" class="edge">
<title>core.js&#45;&gt;stats.js</title>
<path fill="none" stroke="#757575" d="M153.89,-33.96C161.49,-33.96 169.91,-33.96 178.07,-33.96"/>
<polygon fill="#757575" stroke="#757575" points="177.8,-37.46 187.8,-33.96 177.8,-30.46 177.8,-37.46"/>
</g>
<!-- string.js -->
<g id="node8" class="node">
<title>string.js</title>
<path fill="none" stroke="#c6c5fe" d="M344.83,-44.83C344.83,-44.83 298.17,-44.83 298.17,-44.83 294.21,-44.83 290.25,-40.87 290.25,-36.92 290.25,-36.92 290.25,-29 290.25,-29 290.25,-25.04 294.21,-21.08 298.17,-21.08 298.17,-21.08 344.83,-21.08 344.83,-21.08 348.79,-21.08 352.75,-25.04 352.75,-29 352.75,-29 352.75,-36.92 352.75,-36.92 352.75,-40.87 348.79,-44.83 344.83,-44.83"/>
<text text-anchor="middle" x="321.5" y="-27.53" font-family="Arial" font-size="14.00" fill="#c6c5fe">string.js</text>
</g>
<!-- core.js&#45;&gt;string.js -->
<g id="edge5" class="edge">
<title>core.js&#45;&gt;string.js</title>
<path fill="none" stroke="#757575" d="M154,-22.68C164.85,-18.78 177.57,-14.9 189.5,-12.96 214.94,-8.82 221.95,-9.52 247.5,-12.96 257.92,-14.36 268.97,-16.84 279.22,-19.59"/>
<polygon fill="#757575" stroke="#757575" points="277.94,-22.86 288.52,-22.22 279.85,-16.13 277.94,-22.86"/>
</g>
<!-- tuple.js -->
<g id="node9" class="node">
<title>tuple.js</title>
<path fill="none" stroke="#cfffac" d="M478.58,-43.83C478.58,-43.83 435.67,-43.83 435.67,-43.83 431.71,-43.83 427.75,-39.87 427.75,-35.92 427.75,-35.92 427.75,-28 427.75,-28 427.75,-24.04 431.71,-20.08 435.67,-20.08 435.67,-20.08 478.58,-20.08 478.58,-20.08 482.54,-20.08 486.5,-24.04 486.5,-28 486.5,-28 486.5,-35.92 486.5,-35.92 486.5,-39.87 482.54,-43.83 478.58,-43.83"/>
<text text-anchor="middle" x="457.12" y="-26.53" font-family="Arial" font-size="14.00" fill="#cfffac">tuple.js</text>
</g>
<!-- core.js&#45;&gt;tuple.js -->
<g id="edge6" class="edge">
<title>core.js&#45;&gt;tuple.js</title>
<path fill="none" stroke="#757575" d="M149.18,-21.62C160.85,-15.94 175.54,-9.83 189.5,-6.96 268.88,9.37 363.78,-8.13 416.26,-20.96"/>
<polygon fill="#757575" stroke="#757575" points="415.39,-24.35 425.94,-23.4 417.1,-17.56 415.39,-24.35"/>
</g>
<!-- reporter.js&#45;&gt;config.js -->
<g id="edge8" class="edge">
<title>reporter.js&#45;&gt;config.js</title>
<path fill="none" stroke="#757575" d="M359.72,-125.1C376.32,-130.07 395.97,-135.95 413.18,-141.1"/>
<polygon fill="#757575" stroke="#757575" points="412.06,-144.42 422.64,-143.93 414.06,-137.71 412.06,-144.42"/>
</g>
<!-- reporter.js&#45;&gt;constants.js -->
<g id="edge9" class="edge">
<title>reporter.js&#45;&gt;constants.js</title>
<path fill="none" stroke="#757575" d="M359.86,-111.24C407.17,-107.8 489.06,-101.84 543.23,-97.9"/>
<polygon fill="#757575" stroke="#757575" points="543.45,-101.39 553.17,-97.17 542.94,-94.41 543.45,-101.39"/>
</g>
<!-- reporter.js&#45;&gt;tuple.js -->
<g id="edge10" class="edge">
<title>reporter.js&#45;&gt;tuple.js</title>
<path fill="none" stroke="#757575" d="M334.38,-101.65C348.03,-88.1 371.64,-66.46 395.5,-52.96 402.07,-49.24 409.4,-46.02 416.64,-43.3"/>
<polygon fill="#757575" stroke="#757575" points="417.72,-46.63 426.01,-40.04 415.42,-40.02 417.72,-46.63"/>
</g>
<!-- source&#45;matcher.js&#45;&gt;constants.js -->
<g id="edge11" class="edge">
<title>source&#45;matcher.js&#45;&gt;constants.js</title>
<path fill="none" stroke="#757575" d="M519.2,-82.73C527.16,-83.87 535.26,-85.04 543.09,-86.16"/>
<polygon fill="#757575" stroke="#757575" points="542.43,-89.6 552.83,-87.56 543.43,-82.67 542.43,-89.6"/>
</g>
<!-- stats.js&#45;&gt;string.js -->
<g id="edge12" class="edge">
<title>stats.js&#45;&gt;string.js</title>
<path fill="none" stroke="#757575" d="M247.9,-33.68C257.4,-33.58 268.19,-33.48 278.5,-33.37"/>
<polygon fill="#757575" stroke="#757575" points="278.36,-36.87 288.32,-33.28 278.29,-29.88 278.36,-36.87"/>
</g>
<!-- string.js&#45;&gt;source&#45;matcher.js -->
<g id="edge13" class="edge">
<title>string.js&#45;&gt;source&#45;matcher.js</title>
<path fill="none" stroke="#757575" d="M353.16,-42.36C368.6,-47.1 387.73,-52.97 405.29,-58.36"/>
<polygon fill="#757575" stroke="#757575" points="403.94,-61.61 414.53,-61.19 406,-54.92 403.94,-61.61"/>
</g>
<!-- string.js&#45;&gt;tuple.js -->
<g id="edge14" class="edge">
<title>string.js&#45;&gt;tuple.js</title>
<path fill="none" stroke="#757575" d="M353.16,-32.73C371.84,-32.59 395.91,-32.41 416.08,-32.26"/>
<polygon fill="#757575" stroke="#757575" points="415.95,-35.76 425.93,-32.18 415.9,-28.76 415.95,-35.76"/>
</g>
<!-- index.js -->
<g id="node10" class="node">
<title>index.js</title>
<path fill="none" stroke="#c6c5fe" d="M53.83,-45.83C53.83,-45.83 7.92,-45.83 7.92,-45.83 3.96,-45.83 0,-41.87 0,-37.92 0,-37.92 0,-30 0,-30 0,-26.04 3.96,-22.08 7.92,-22.08 7.92,-22.08 53.83,-22.08 53.83,-22.08 57.79,-22.08 61.75,-26.04 61.75,-30 61.75,-30 61.75,-37.92 61.75,-37.92 61.75,-41.87 57.79,-45.83 53.83,-45.83"/>
<text text-anchor="middle" x="30.88" y="-28.53" font-family="Arial" font-size="14.00" fill="#c6c5fe">index.js</text>
</g>
<!-- index.js&#45;&gt;core.js -->
<g id="edge7" class="edge">
<title>index.js&#45;&gt;core.js</title>
<path fill="none" stroke="#757575" d="M62.24,-33.96C69.84,-33.96 78.09,-33.96 86.03,-33.96"/>
<polygon fill="#757575" stroke="#757575" points="85.8,-37.46 95.8,-33.96 85.8,-30.46 85.8,-37.46"/>
</g>
</g>
</svg>
