<?xml version="1.0" encoding="UTF-8" standalone="no"?>
<!DOCTYPE svg PUBLIC "-//W3C//DTD SVG 1.1//EN"
 "http://www.w3.org/Graphics/SVG/1.1/DTD/svg11.dtd">
<!-- Generated by graphviz version 9.0.0 (20230911.1827)
 -->
<!-- Title: G Pages: 1 -->
<svg width="422pt" height="231pt"
 viewBox="0.00 0.00 422.20 230.95" xmlns="http://www.w3.org/2000/svg" xmlns:xlink="http://www.w3.org/1999/xlink">
<g id="graph0" class="graph" transform="scale(1 1) rotate(0) translate(21.6 209.35)">
<title>G</title>
<polygon fill="#111111" stroke="none" points="-21.6,21.6 -21.6,-209.35 400.6,-209.35 400.6,21.6 -21.6,21.6"/>
<!-- async.js -->
<g id="node1" class="node">
<title>async.js</title>
<path fill="none" stroke="#cfffac" d="M160.21,-187.75C160.21,-187.75 111.29,-187.75 111.29,-187.75 107.33,-187.75 103.38,-183.79 103.38,-179.83 103.38,-179.83 103.38,-171.92 103.38,-171.92 103.38,-167.96 107.33,-164 111.29,-164 111.29,-164 160.21,-164 160.21,-164 164.17,-164 168.12,-167.96 168.12,-171.92 168.12,-171.92 168.12,-179.83 168.12,-179.83 168.12,-183.79 164.17,-187.75 160.21,-187.75"/>
<text text-anchor="middle" x="135.75" y="-170.45" font-family="Arial" font-size="14.00" fill="#cfffac">async.js</text>
</g>
<!-- helpers.js -->
<g id="node2" class="node">
<title>helpers.js</title>
<path fill="none" stroke="#cfffac" d="M275.58,-143.75C275.58,-143.75 217.67,-143.75 217.67,-143.75 213.71,-143.75 209.75,-139.79 209.75,-135.83 209.75,-135.83 209.75,-127.92 209.75,-127.92 209.75,-123.96 213.71,-120 217.67,-120 217.67,-120 275.58,-120 275.58,-120 279.54,-120 283.5,-123.96 283.5,-127.92 283.5,-127.92 283.5,-135.83 283.5,-135.83 283.5,-139.79 279.54,-143.75 275.58,-143.75"/>
<text text-anchor="middle" x="246.62" y="-126.45" font-family="Arial" font-size="14.00" fill="#cfffac">helpers.js</text>
</g>
<!-- index.js -->
<g id="node3" class="node">
<title>index.js</title>
<path fill="none" stroke="#c6c5fe" d="M53.83,-103.75C53.83,-103.75 7.92,-103.75 7.92,-103.75 3.96,-103.75 0,-99.79 0,-95.83 0,-95.83 0,-87.92 0,-87.92 0,-83.96 3.96,-80 7.92,-80 7.92,-80 53.83,-80 53.83,-80 57.79,-80 61.75,-83.96 61.75,-87.92 61.75,-87.92 61.75,-95.83 61.75,-95.83 61.75,-99.79 57.79,-103.75 53.83,-103.75"/>
<text text-anchor="middle" x="30.88" y="-86.45" font-family="Arial" font-size="14.00" fill="#c6c5fe">index.js</text>
</g>
<!-- index.js&#45;&gt;async.js -->
<g id="edge1" class="edge">
<title>index.js&#45;&gt;async.js</title>
<path fill="none" stroke="#757575" d="M42.76,-103.95C55.23,-117.36 76.67,-139.19 97.75,-154.88 99.05,-155.84 100.39,-156.79 101.77,-157.73"/>
<polygon fill="#757575" stroke="#757575" points="99.5,-160.44 109.83,-162.81 103.23,-154.51 99.5,-160.44"/>
</g>
<!-- list.js -->
<g id="node4" class="node">
<title>list.js</title>
<path fill="none" stroke="#cfffac" d="M154.83,-145.75C154.83,-145.75 116.67,-145.75 116.67,-145.75 112.71,-145.75 108.75,-141.79 108.75,-137.83 108.75,-137.83 108.75,-129.92 108.75,-129.92 108.75,-125.96 112.71,-122 116.67,-122 116.67,-122 154.83,-122 154.83,-122 158.79,-122 162.75,-125.96 162.75,-129.92 162.75,-129.92 162.75,-137.83 162.75,-137.83 162.75,-141.79 158.79,-145.75 154.83,-145.75"/>
<text text-anchor="middle" x="135.75" y="-128.45" font-family="Arial" font-size="14.00" fill="#cfffac">list.js</text>
</g>
<!-- index.js&#45;&gt;list.js -->
<g id="edge2" class="edge">
<title>index.js&#45;&gt;list.js</title>
<path fill="none" stroke="#757575" d="M62.18,-104.25C73.44,-108.84 86.32,-114.1 98.09,-118.91"/>
<polygon fill="#757575" stroke="#757575" points="96.51,-122.04 107.09,-122.58 99.15,-115.56 96.51,-122.04"/>
</g>
<!-- runner.js -->
<g id="node5" class="node">
<title>runner.js</title>
<path fill="none" stroke="#c6c5fe" d="M161.71,-103.75C161.71,-103.75 109.79,-103.75 109.79,-103.75 105.83,-103.75 101.88,-99.79 101.88,-95.83 101.88,-95.83 101.88,-87.92 101.88,-87.92 101.88,-83.96 105.83,-80 109.79,-80 109.79,-80 161.71,-80 161.71,-80 165.67,-80 169.62,-83.96 169.62,-87.92 169.62,-87.92 169.62,-95.83 169.62,-95.83 169.62,-99.79 165.67,-103.75 161.71,-103.75"/>
<text text-anchor="middle" x="135.75" y="-86.45" font-family="Arial" font-size="14.00" fill="#c6c5fe">runner.js</text>
</g>
<!-- index.js&#45;&gt;runner.js -->
<g id="edge3" class="edge">
<title>index.js&#45;&gt;runner.js</title>
<path fill="none" stroke="#757575" d="M62.18,-91.88C70.95,-91.88 80.7,-91.88 90.15,-91.88"/>
<polygon fill="#757575" stroke="#757575" points="89.91,-95.38 99.91,-91.88 89.91,-88.38 89.91,-95.38"/>
</g>
<!-- sort.js -->
<g id="node6" class="node">
<title>sort.js</title>
<path fill="none" stroke="#c6c5fe" d="M265.71,-63.75C265.71,-63.75 227.54,-63.75 227.54,-63.75 223.58,-63.75 219.62,-59.79 219.62,-55.83 219.62,-55.83 219.62,-47.92 219.62,-47.92 219.62,-43.96 223.58,-40 227.54,-40 227.54,-40 265.71,-40 265.71,-40 269.67,-40 273.62,-43.96 273.62,-47.92 273.62,-47.92 273.62,-55.83 273.62,-55.83 273.62,-59.79 269.67,-63.75 265.71,-63.75"/>
<text text-anchor="middle" x="246.62" y="-46.45" font-family="Arial" font-size="14.00" fill="#c6c5fe">sort.js</text>
</g>
<!-- index.js&#45;&gt;sort.js -->
<g id="edge4" class="edge">
<title>index.js&#45;&gt;sort.js</title>
<path fill="none" stroke="#757575" d="M62.06,-80.99C73.16,-77.32 85.91,-73.5 97.75,-70.88 134.78,-62.66 177.87,-57.63 207.95,-54.82"/>
<polygon fill="#757575" stroke="#757575" points="208.04,-58.33 217.69,-53.95 207.42,-51.36 208.04,-58.33"/>
</g>
<!-- validate.js -->
<g id="node7" class="node">
<title>validate.js</title>
<path fill="none" stroke="#cfffac" d="M165.83,-23.75C165.83,-23.75 105.67,-23.75 105.67,-23.75 101.71,-23.75 97.75,-19.79 97.75,-15.83 97.75,-15.83 97.75,-7.92 97.75,-7.92 97.75,-3.96 101.71,0 105.67,0 105.67,0 165.83,0 165.83,0 169.79,0 173.75,-3.96 173.75,-7.92 173.75,-7.92 173.75,-15.83 173.75,-15.83 173.75,-19.79 169.79,-23.75 165.83,-23.75"/>
<text text-anchor="middle" x="135.75" y="-6.45" font-family="Arial" font-size="14.00" fill="#cfffac">validate.js</text>
</g>
<!-- index.js&#45;&gt;validate.js -->
<g id="edge5" class="edge">
<title>index.js&#45;&gt;validate.js</title>
<path fill="none" stroke="#757575" d="M46.28,-79.55C59.46,-68.39 79.61,-51.65 97.75,-37.88 100.91,-35.48 104.26,-33.01 107.61,-30.6"/>
<polygon fill="#757575" stroke="#757575" points="109.49,-33.55 115.63,-24.92 105.45,-27.84 109.49,-33.55"/>
</g>
<!-- runner.js&#45;&gt;helpers.js -->
<g id="edge6" class="edge">
<title>runner.js&#45;&gt;helpers.js</title>
<path fill="none" stroke="#757575" d="M170.01,-104.09C179.94,-107.74 190.99,-111.8 201.5,-115.66"/>
<polygon fill="#757575" stroke="#757575" points="200.18,-118.91 210.78,-119.07 202.6,-112.34 200.18,-118.91"/>
</g>
<!-- runner.js&#45;&gt;sort.js -->
<g id="edge7" class="edge">
<title>runner.js&#45;&gt;sort.js</title>
<path fill="none" stroke="#757575" d="M170.01,-79.66C182.29,-75.14 196.28,-70 208.86,-65.38"/>
<polygon fill="#757575" stroke="#757575" points="209.87,-68.74 218.05,-62 207.46,-62.17 209.87,-68.74"/>
</g>
<!-- trace.js -->
<g id="node8" class="node">
<title>trace.js</title>
<path fill="none" stroke="#cfffac" d="M371.08,-83.75C371.08,-83.75 327.42,-83.75 327.42,-83.75 323.46,-83.75 319.5,-79.79 319.5,-75.83 319.5,-75.83 319.5,-67.92 319.5,-67.92 319.5,-63.96 323.46,-60 327.42,-60 327.42,-60 371.08,-60 371.08,-60 375.04,-60 379,-63.96 379,-67.92 379,-67.92 379,-75.83 379,-75.83 379,-79.79 375.04,-83.75 371.08,-83.75"/>
<text text-anchor="middle" x="349.25" y="-66.45" font-family="Arial" font-size="14.00" fill="#cfffac">trace.js</text>
</g>
<!-- runner.js&#45;&gt;trace.js -->
<g id="edge8" class="edge">
<title>runner.js&#45;&gt;trace.js</title>
<path fill="none" stroke="#757575" d="M169.8,-88.75C207.12,-85.22 267.87,-79.48 307.95,-75.69"/>
<polygon fill="#757575" stroke="#757575" points="308.04,-79.19 317.67,-74.77 307.38,-72.22 308.04,-79.19"/>
</g>
<!-- sort.js&#45;&gt;trace.js -->
<g id="edge9" class="edge">
<title>sort.js&#45;&gt;trace.js</title>
<path fill="none" stroke="#757575" d="M274.06,-57.13C284.46,-59.2 296.62,-61.61 308.06,-63.89"/>
<polygon fill="#757575" stroke="#757575" points="307.18,-67.28 317.67,-65.8 308.55,-60.42 307.18,-67.28"/>
</g>
</g>
</svg>
