<?xml version="1.0" encoding="UTF-8" standalone="no"?>
<!DOCTYPE svg PUBLIC "-//W3C//DTD SVG 1.1//EN"
 "http://www.w3.org/Graphics/SVG/1.1/DTD/svg11.dtd">
<!-- Generated by graphviz version 9.0.0 (20230911.1827)
 -->
<!-- Title: G Pages: 1 -->
<svg width="442pt" height="231pt"
 viewBox="0.00 0.00 442.45 230.95" xmlns="http://www.w3.org/2000/svg" xmlns:xlink="http://www.w3.org/1999/xlink">
<g id="graph0" class="graph" transform="scale(1 1) rotate(0) translate(21.6 209.35)">
<title>G</title>
<polygon fill="#111111" stroke="none" points="-21.6,21.6 -21.6,-209.35 420.85,-209.35 420.85,21.6 -21.6,21.6"/>
<!-- async.js -->
<g id="node1" class="node">
<title>async.js</title>
<path fill="none" stroke="#cfffac" d="M180.46,-187.75C180.46,-187.75 131.54,-187.75 131.54,-187.75 127.58,-187.75 123.62,-183.79 123.62,-179.83 123.62,-179.83 123.62,-171.92 123.62,-171.92 123.62,-167.96 127.58,-164 131.54,-164 131.54,-164 180.46,-164 180.46,-164 184.42,-164 188.38,-167.96 188.38,-171.92 188.38,-171.92 188.38,-179.83 188.38,-179.83 188.38,-183.79 184.42,-187.75 180.46,-187.75"/>
<text text-anchor="middle" x="156" y="-170.45" font-family="Arial" font-size="14.00" fill="#cfffac">async.js</text>
</g>
<!-- helpers.js -->
<g id="node2" class="node">
<title>helpers.js</title>
<path fill="none" stroke="#cfffac" d="M295.83,-143.75C295.83,-143.75 237.92,-143.75 237.92,-143.75 233.96,-143.75 230,-139.79 230,-135.83 230,-135.83 230,-127.92 230,-127.92 230,-123.96 233.96,-120 237.92,-120 237.92,-120 295.83,-120 295.83,-120 299.79,-120 303.75,-123.96 303.75,-127.92 303.75,-127.92 303.75,-135.83 303.75,-135.83 303.75,-139.79 299.79,-143.75 295.83,-143.75"/>
<text text-anchor="middle" x="266.88" y="-126.45" font-family="Arial" font-size="14.00" fill="#cfffac">helpers.js</text>
</g>
<!-- list.js -->
<g id="node3" class="node">
<title>list.js</title>
<path fill="none" stroke="#cfffac" d="M175.08,-145.75C175.08,-145.75 136.92,-145.75 136.92,-145.75 132.96,-145.75 129,-141.79 129,-137.83 129,-137.83 129,-129.92 129,-129.92 129,-125.96 132.96,-122 136.92,-122 136.92,-122 175.08,-122 175.08,-122 179.04,-122 183,-125.96 183,-129.92 183,-129.92 183,-137.83 183,-137.83 183,-141.79 179.04,-145.75 175.08,-145.75"/>
<text text-anchor="middle" x="156" y="-128.45" font-family="Arial" font-size="14.00" fill="#cfffac">list.js</text>
</g>
<!-- monorail.js -->
<g id="node4" class="node">
<title>monorail.js</title>
<path fill="none" stroke="#c6c5fe" d="M74.08,-103.75C74.08,-103.75 7.92,-103.75 7.92,-103.75 3.96,-103.75 0,-99.79 0,-95.83 0,-95.83 0,-87.92 0,-87.92 0,-83.96 3.96,-80 7.92,-80 7.92,-80 74.08,-80 74.08,-80 78.04,-80 82,-83.96 82,-87.92 82,-87.92 82,-95.83 82,-95.83 82,-99.79 78.04,-103.75 74.08,-103.75"/>
<text text-anchor="middle" x="41" y="-86.45" font-family="Arial" font-size="14.00" fill="#c6c5fe">monorail.js</text>
</g>
<!-- monorail.js&#45;&gt;async.js -->
<g id="edge1" class="edge">
<title>monorail.js&#45;&gt;async.js</title>
<path fill="none" stroke="#757575" d="M55.43,-104.25C70.18,-117.54 94.87,-138.91 118,-154.88 119.37,-155.82 120.78,-156.76 122.22,-157.69"/>
<polygon fill="#757575" stroke="#757575" points="120.27,-160.6 130.62,-162.82 123.91,-154.62 120.27,-160.6"/>
</g>
<!-- monorail.js&#45;&gt;list.js -->
<g id="edge2" class="edge">
<title>monorail.js&#45;&gt;list.js</title>
<path fill="none" stroke="#757575" d="M75.29,-104.25C88.75,-109.25 104.34,-115.04 118.14,-120.17"/>
<polygon fill="#757575" stroke="#757575" points="116.74,-123.39 127.33,-123.59 119.17,-116.83 116.74,-123.39"/>
</g>
<!-- runner.js -->
<g id="node5" class="node">
<title>runner.js</title>
<path fill="none" stroke="#c6c5fe" d="M181.96,-103.75C181.96,-103.75 130.04,-103.75 130.04,-103.75 126.08,-103.75 122.12,-99.79 122.12,-95.83 122.12,-95.83 122.12,-87.92 122.12,-87.92 122.12,-83.96 126.08,-80 130.04,-80 130.04,-80 181.96,-80 181.96,-80 185.92,-80 189.88,-83.96 189.88,-87.92 189.88,-87.92 189.88,-95.83 189.88,-95.83 189.88,-99.79 185.92,-103.75 181.96,-103.75"/>
<text text-anchor="middle" x="156" y="-86.45" font-family="Arial" font-size="14.00" fill="#c6c5fe">runner.js</text>
</g>
<!-- monorail.js&#45;&gt;runner.js -->
<g id="edge3" class="edge">
<title>monorail.js&#45;&gt;runner.js</title>
<path fill="none" stroke="#757575" d="M82.48,-91.88C91.56,-91.88 101.25,-91.88 110.48,-91.88"/>
<polygon fill="#757575" stroke="#757575" points="110.35,-95.38 120.35,-91.88 110.35,-88.38 110.35,-95.38"/>
</g>
<!-- sort.js -->
<g id="node6" class="node">
<title>sort.js</title>
<path fill="none" stroke="#c6c5fe" d="M285.96,-63.75C285.96,-63.75 247.79,-63.75 247.79,-63.75 243.83,-63.75 239.88,-59.79 239.88,-55.83 239.88,-55.83 239.88,-47.92 239.88,-47.92 239.88,-43.96 243.83,-40 247.79,-40 247.79,-40 285.96,-40 285.96,-40 289.92,-40 293.88,-43.96 293.88,-47.92 293.88,-47.92 293.88,-55.83 293.88,-55.83 293.88,-59.79 289.92,-63.75 285.96,-63.75"/>
<text text-anchor="middle" x="266.88" y="-46.45" font-family="Arial" font-size="14.00" fill="#c6c5fe">sort.js</text>
</g>
<!-- monorail.js&#45;&gt;sort.js -->
<g id="edge4" class="edge">
<title>monorail.js&#45;&gt;sort.js</title>
<path fill="none" stroke="#757575" d="M82.37,-79.58C93.81,-76.4 106.32,-73.23 118,-70.88 155.19,-63.39 198.26,-58.25 228.29,-55.22"/>
<polygon fill="#757575" stroke="#757575" points="228.39,-58.73 238.01,-54.27 227.71,-51.76 228.39,-58.73"/>
</g>
<!-- validate.js -->
<g id="node7" class="node">
<title>validate.js</title>
<path fill="none" stroke="#cfffac" d="M186.08,-23.75C186.08,-23.75 125.92,-23.75 125.92,-23.75 121.96,-23.75 118,-19.79 118,-15.83 118,-15.83 118,-7.92 118,-7.92 118,-3.96 121.96,0 125.92,0 125.92,0 186.08,0 186.08,0 190.04,0 194,-3.96 194,-7.92 194,-7.92 194,-15.83 194,-15.83 194,-19.79 190.04,-23.75 186.08,-23.75"/>
<text text-anchor="middle" x="156" y="-6.45" font-family="Arial" font-size="14.00" fill="#cfffac">validate.js</text>
</g>
<!-- monorail.js&#45;&gt;validate.js -->
<g id="edge5" class="edge">
<title>monorail.js&#45;&gt;validate.js</title>
<path fill="none" stroke="#757575" d="M59.19,-79.62C74.58,-68.66 97.78,-52.17 118,-37.88 121.41,-35.47 124.99,-32.94 128.54,-30.45"/>
<polygon fill="#757575" stroke="#757575" points="130.26,-33.51 136.43,-24.9 126.24,-27.78 130.26,-33.51"/>
</g>
<!-- runner.js&#45;&gt;helpers.js -->
<g id="edge6" class="edge">
<title>runner.js&#45;&gt;helpers.js</title>
<path fill="none" stroke="#757575" d="M190.26,-104.09C200.19,-107.74 211.24,-111.8 221.75,-115.66"/>
<polygon fill="#757575" stroke="#757575" points="220.43,-118.91 231.03,-119.07 222.85,-112.34 220.43,-118.91"/>
</g>
<!-- runner.js&#45;&gt;sort.js -->
<g id="edge7" class="edge">
<title>runner.js&#45;&gt;sort.js</title>
<path fill="none" stroke="#757575" d="M190.26,-79.66C202.54,-75.14 216.53,-70 229.11,-65.38"/>
<polygon fill="#757575" stroke="#757575" points="230.12,-68.74 238.3,-62 227.71,-62.17 230.12,-68.74"/>
</g>
<!-- trace.js -->
<g id="node8" class="node">
<title>trace.js</title>
<path fill="none" stroke="#cfffac" d="M391.33,-83.75C391.33,-83.75 347.67,-83.75 347.67,-83.75 343.71,-83.75 339.75,-79.79 339.75,-75.83 339.75,-75.83 339.75,-67.92 339.75,-67.92 339.75,-63.96 343.71,-60 347.67,-60 347.67,-60 391.33,-60 391.33,-60 395.29,-60 399.25,-63.96 399.25,-67.92 399.25,-67.92 399.25,-75.83 399.25,-75.83 399.25,-79.79 395.29,-83.75 391.33,-83.75"/>
<text text-anchor="middle" x="369.5" y="-66.45" font-family="Arial" font-size="14.00" fill="#cfffac">trace.js</text>
</g>
<!-- runner.js&#45;&gt;trace.js -->
<g id="edge8" class="edge">
<title>runner.js&#45;&gt;trace.js</title>
<path fill="none" stroke="#757575" d="M190.05,-88.75C227.37,-85.22 288.12,-79.48 328.2,-75.69"/>
<polygon fill="#757575" stroke="#757575" points="328.29,-79.19 337.92,-74.77 327.63,-72.22 328.29,-79.19"/>
</g>
<!-- sort.js&#45;&gt;trace.js -->
<g id="edge9" class="edge">
<title>sort.js&#45;&gt;trace.js</title>
<path fill="none" stroke="#757575" d="M294.31,-57.13C304.71,-59.2 316.87,-61.61 328.31,-63.89"/>
<polygon fill="#757575" stroke="#757575" points="327.43,-67.28 337.92,-65.8 328.8,-60.42 327.43,-67.28"/>
</g>
</g>
</svg>
