<?xml version="1.0" encoding="UTF-8" standalone="no"?>
<!DOCTYPE svg PUBLIC "-//W3C//DTD SVG 1.1//EN"
 "http://www.w3.org/Graphics/SVG/1.1/DTD/svg11.dtd">
<!-- Generated by graphviz version 9.0.0 (20230911.1827)
 -->
<!-- Title: G Pages: 1 -->
<svg width="220pt" height="211pt"
 viewBox="0.00 0.00 219.95 210.95" xmlns="http://www.w3.org/2000/svg" xmlns:xlink="http://www.w3.org/1999/xlink">
<g id="graph0" class="graph" transform="scale(1 1) rotate(0) translate(21.6 189.35)">
<title>G</title>
<polygon fill="#111111" stroke="none" points="-21.6,21.6 -21.6,-189.35 198.35,-189.35 198.35,21.6 -21.6,21.6"/>
<!-- find&#45;up.js -->
<g id="node1" class="node">
<title>find&#45;up.js</title>
<path fill="none" stroke="#ff6c60" d="M164.71,-149.75C164.71,-149.75 109.79,-149.75 109.79,-149.75 105.83,-149.75 101.88,-145.79 101.88,-141.83 101.88,-141.83 101.88,-133.92 101.88,-133.92 101.88,-129.96 105.83,-126 109.79,-126 109.79,-126 164.71,-126 164.71,-126 168.67,-126 172.62,-129.96 172.62,-133.92 172.62,-133.92 172.62,-141.83 172.62,-141.83 172.62,-145.79 168.67,-149.75 164.71,-149.75"/>
<text text-anchor="middle" x="137.25" y="-132.45" font-family="Arial" font-size="14.00" fill="#ff6c60">find&#45;up.js</text>
</g>
<!-- find&#45;up.js&#45;&gt;find&#45;up.js -->
<g id="edge1" class="edge">
<title>find&#45;up.js&#45;&gt;find&#45;up.js</title>
<path fill="none" stroke="#757575" d="M119.45,-150.15C113.66,-158.97 119.59,-167.75 137.25,-167.75 146.63,-167.75 152.7,-165.27 155.47,-161.63"/>
<polygon fill="#757575" stroke="#757575" points="158.97,-161.53 155.1,-151.66 151.97,-161.78 158.97,-161.53"/>
</g>
<!-- fs.js -->
<g id="node2" class="node">
<title>fs.js</title>
<path fill="none" stroke="#cfffac" d="M156.33,-107.75C156.33,-107.75 118.17,-107.75 118.17,-107.75 114.21,-107.75 110.25,-103.79 110.25,-99.83 110.25,-99.83 110.25,-91.92 110.25,-91.92 110.25,-87.96 114.21,-84 118.17,-84 118.17,-84 156.33,-84 156.33,-84 160.29,-84 164.25,-87.96 164.25,-91.92 164.25,-91.92 164.25,-99.83 164.25,-99.83 164.25,-103.79 160.29,-107.75 156.33,-107.75"/>
<text text-anchor="middle" x="137.25" y="-90.45" font-family="Arial" font-size="14.00" fill="#cfffac">fs.js</text>
</g>
<!-- index.js -->
<g id="node3" class="node">
<title>index.js</title>
<path fill="none" stroke="#c6c5fe" d="M53.83,-86.75C53.83,-86.75 7.92,-86.75 7.92,-86.75 3.96,-86.75 0,-82.79 0,-78.83 0,-78.83 0,-70.92 0,-70.92 0,-66.96 3.96,-63 7.92,-63 7.92,-63 53.83,-63 53.83,-63 57.79,-63 61.75,-66.96 61.75,-70.92 61.75,-70.92 61.75,-78.83 61.75,-78.83 61.75,-82.79 57.79,-86.75 53.83,-86.75"/>
<text text-anchor="middle" x="30.88" y="-69.45" font-family="Arial" font-size="14.00" fill="#c6c5fe">index.js</text>
</g>
<!-- index.js&#45;&gt;find&#45;up.js -->
<g id="edge2" class="edge">
<title>index.js&#45;&gt;find&#45;up.js</title>
<path fill="none" stroke="#757575" d="M50.4,-87.17C63.49,-95.73 81.52,-107.29 97.75,-116.88 99.62,-117.98 101.55,-119.1 103.5,-120.21"/>
<polygon fill="#757575" stroke="#757575" points="101.55,-123.13 111.98,-124.95 104.96,-117.02 101.55,-123.13"/>
</g>
<!-- index.js&#45;&gt;fs.js -->
<g id="edge3" class="edge">
<title>index.js&#45;&gt;fs.js</title>
<path fill="none" stroke="#757575" d="M62.06,-80.95C73.56,-83.26 86.8,-85.93 98.89,-88.36"/>
<polygon fill="#757575" stroke="#757575" points="98.05,-91.76 108.54,-90.3 99.43,-84.9 98.05,-91.76"/>
</g>
<!-- interpret.js -->
<g id="node4" class="node">
<title>interpret.js</title>
<path fill="none" stroke="#cfffac" d="M168.83,-65.75C168.83,-65.75 105.67,-65.75 105.67,-65.75 101.71,-65.75 97.75,-61.79 97.75,-57.83 97.75,-57.83 97.75,-49.92 97.75,-49.92 97.75,-45.96 101.71,-42 105.67,-42 105.67,-42 168.83,-42 168.83,-42 172.79,-42 176.75,-45.96 176.75,-49.92 176.75,-49.92 176.75,-57.83 176.75,-57.83 176.75,-61.79 172.79,-65.75 168.83,-65.75"/>
<text text-anchor="middle" x="137.25" y="-48.45" font-family="Arial" font-size="14.00" fill="#cfffac">interpret.js</text>
</g>
<!-- index.js&#45;&gt;interpret.js -->
<g id="edge4" class="edge">
<title>index.js&#45;&gt;interpret.js</title>
<path fill="none" stroke="#757575" d="M62.06,-68.8C69.68,-67.27 78.06,-65.58 86.37,-63.91"/>
<polygon fill="#757575" stroke="#757575" points="86.96,-67.36 96.08,-61.96 85.58,-60.5 86.96,-67.36"/>
</g>
<!-- path.js -->
<g id="node5" class="node">
<title>path.js</title>
<path fill="none" stroke="#cfffac" d="M157.21,-23.75C157.21,-23.75 117.29,-23.75 117.29,-23.75 113.33,-23.75 109.38,-19.79 109.38,-15.83 109.38,-15.83 109.38,-7.92 109.38,-7.92 109.38,-3.96 113.33,0 117.29,0 117.29,0 157.21,0 157.21,0 161.17,0 165.12,-3.96 165.12,-7.92 165.12,-7.92 165.12,-15.83 165.12,-15.83 165.12,-19.79 161.17,-23.75 157.21,-23.75"/>
<text text-anchor="middle" x="137.25" y="-6.45" font-family="Arial" font-size="14.00" fill="#cfffac">path.js</text>
</g>
<!-- index.js&#45;&gt;path.js -->
<g id="edge5" class="edge">
<title>index.js&#45;&gt;path.js</title>
<path fill="none" stroke="#757575" d="M50.4,-62.58C63.49,-54.02 81.52,-42.46 97.75,-32.88 99.62,-31.77 101.55,-30.65 103.5,-29.54"/>
<polygon fill="#757575" stroke="#757575" points="104.96,-32.73 111.98,-24.8 101.55,-26.62 104.96,-32.73"/>
</g>
</g>
</svg>
