<?xml version="1.0" encoding="UTF-8" standalone="no"?>
<!DOCTYPE svg PUBLIC "-//W3C//DTD SVG 1.1//EN"
 "http://www.w3.org/Graphics/SVG/1.1/DTD/svg11.dtd">
<!-- Generated by graphviz version 7.1.0 (20230121.1956)
 -->
<!-- Title: G Pages: 1 -->
<svg width="214pt" height="107pt"
 viewBox="0.00 0.00 214.20 107.20" xmlns="http://www.w3.org/2000/svg" xmlns:xlink="http://www.w3.org/1999/xlink">
<g id="graph0" class="graph" transform="scale(1 1) rotate(0) translate(21.6 85.6)">
<title>G</title>
<polygon fill="#111111" stroke="none" points="-21.6,21.6 -21.6,-85.6 192.6,-85.6 192.6,21.6 -21.6,21.6"/>
<!-- flexeca.js -->
<g id="node1" class="node">
<title>flexeca.js</title>
<path fill="none" stroke="#cfffac" d="M163.33,-64C163.33,-64 105.67,-64 105.67,-64 101.83,-64 98,-60.17 98,-56.33 98,-56.33 98,-48.67 98,-48.67 98,-44.83 101.83,-41 105.67,-41 105.67,-41 163.33,-41 163.33,-41 167.17,-41 171,-44.83 171,-48.67 171,-48.67 171,-56.33 171,-56.33 171,-60.17 167.17,-64 163.33,-64"/>
<text text-anchor="middle" x="134.5" y="-48.8" font-family="Arial" font-size="14.00" fill="#cfffac">flexeca.js</text>
</g>
<!-- fs.js -->
<g id="node2" class="node">
<title>fs.js</title>
<path fill="none" stroke="#cfffac" d="M153.83,-23C153.83,-23 115.17,-23 115.17,-23 111.33,-23 107.5,-19.17 107.5,-15.33 107.5,-15.33 107.5,-7.67 107.5,-7.67 107.5,-3.83 111.33,0 115.17,0 115.17,0 153.83,0 153.83,0 157.67,0 161.5,-3.83 161.5,-7.67 161.5,-7.67 161.5,-15.33 161.5,-15.33 161.5,-19.17 157.67,-23 153.83,-23"/>
<text text-anchor="middle" x="134.5" y="-7.8" font-family="Arial" font-size="14.00" fill="#cfffac">fs.js</text>
</g>
<!-- index.js -->
<g id="node3" class="node">
<title>index.js</title>
<path fill="none" stroke="#c6c5fe" d="M54.33,-43C54.33,-43 7.67,-43 7.67,-43 3.83,-43 0,-39.17 0,-35.33 0,-35.33 0,-27.67 0,-27.67 0,-23.83 3.83,-20 7.67,-20 7.67,-20 54.33,-20 54.33,-20 58.17,-20 62,-23.83 62,-27.67 62,-27.67 62,-35.33 62,-35.33 62,-39.17 58.17,-43 54.33,-43"/>
<text text-anchor="middle" x="31" y="-27.8" font-family="Arial" font-size="14.00" fill="#c6c5fe">index.js</text>
</g>
<!-- index.js&#45;&gt;flexeca.js -->
<g id="edge1" class="edge">
<title>index.js&#45;&gt;flexeca.js</title>
<path fill="none" stroke="#757575" d="M62.45,-37.8C70.08,-39.38 78.44,-41.11 86.66,-42.81"/>
<polygon fill="#757575" stroke="#757575" points="85.72,-46.19 96.23,-44.79 87.14,-39.33 85.72,-46.19"/>
</g>
<!-- index.js&#45;&gt;fs.js -->
<g id="edge2" class="edge">
<title>index.js&#45;&gt;fs.js</title>
<path fill="none" stroke="#757575" d="M62.45,-25.5C73.03,-23.42 85.01,-21.05 96.08,-18.87"/>
<polygon fill="#757575" stroke="#757575" points="96.57,-22.34 105.71,-16.98 95.22,-15.48 96.57,-22.34"/>
</g>
</g>
</svg>
