<?xml version="1.0" encoding="UTF-8" standalone="no"?>
<!DOCTYPE svg PUBLIC "-//W3C//DTD SVG 1.1//EN"
 "http://www.w3.org/Graphics/SVG/1.1/DTD/svg11.dtd">
<!-- Generated by graphviz version 9.0.0 (20230911.1827)
 -->
<!-- Title: G Pages: 1 -->
<svg width="359pt" height="151pt"
 viewBox="0.00 0.00 359.45 150.95" xmlns="http://www.w3.org/2000/svg" xmlns:xlink="http://www.w3.org/1999/xlink">
<g id="graph0" class="graph" transform="scale(1 1) rotate(0) translate(21.6 129.35)">
<title>G</title>
<polygon fill="#111111" stroke="none" points="-21.6,21.6 -21.6,-129.35 337.85,-129.35 337.85,21.6 -21.6,21.6"/>
<!-- cli.js -->
<g id="node1" class="node">
<title>cli.js</title>
<path fill="none" stroke="#c6c5fe" d="M176.83,-65.75C176.83,-65.75 138.67,-65.75 138.67,-65.75 134.71,-65.75 130.75,-61.79 130.75,-57.83 130.75,-57.83 130.75,-49.92 130.75,-49.92 130.75,-45.96 134.71,-42 138.67,-42 138.67,-42 176.83,-42 176.83,-42 180.79,-42 184.75,-45.96 184.75,-49.92 184.75,-49.92 184.75,-57.83 184.75,-57.83 184.75,-61.79 180.79,-65.75 176.83,-65.75"/>
<text text-anchor="middle" x="157.75" y="-48.45" font-family="Arial" font-size="14.00" fill="#c6c5fe">cli.js</text>
</g>
<!-- config.js -->
<g id="node2" class="node">
<title>config.js</title>
<path fill="none" stroke="#cfffac" d="M293.33,-107.75C293.33,-107.75 243.67,-107.75 243.67,-107.75 239.71,-107.75 235.75,-103.79 235.75,-99.83 235.75,-99.83 235.75,-91.92 235.75,-91.92 235.75,-87.96 239.71,-84 243.67,-84 243.67,-84 293.33,-84 293.33,-84 297.29,-84 301.25,-87.96 301.25,-91.92 301.25,-91.92 301.25,-99.83 301.25,-99.83 301.25,-103.79 297.29,-107.75 293.33,-107.75"/>
<text text-anchor="middle" x="268.5" y="-90.45" font-family="Arial" font-size="14.00" fill="#cfffac">config.js</text>
</g>
<!-- cli.js&#45;&gt;config.js -->
<g id="edge1" class="edge">
<title>cli.js&#45;&gt;config.js</title>
<path fill="none" stroke="#757575" d="M185.08,-64.04C197.08,-68.68 211.59,-74.28 225.08,-79.49"/>
<polygon fill="#757575" stroke="#757575" points="223.6,-82.67 234.19,-83.01 226.12,-76.14 223.6,-82.67"/>
</g>
<!-- log.js -->
<g id="node3" class="node">
<title>log.js</title>
<path fill="none" stroke="#cfffac" d="M287.58,-65.75C287.58,-65.75 249.42,-65.75 249.42,-65.75 245.46,-65.75 241.5,-61.79 241.5,-57.83 241.5,-57.83 241.5,-49.92 241.5,-49.92 241.5,-45.96 245.46,-42 249.42,-42 249.42,-42 287.58,-42 287.58,-42 291.54,-42 295.5,-45.96 295.5,-49.92 295.5,-49.92 295.5,-57.83 295.5,-57.83 295.5,-61.79 291.54,-65.75 287.58,-65.75"/>
<text text-anchor="middle" x="268.5" y="-48.45" font-family="Arial" font-size="14.00" fill="#cfffac">log.js</text>
</g>
<!-- cli.js&#45;&gt;log.js -->
<g id="edge2" class="edge">
<title>cli.js&#45;&gt;log.js</title>
<path fill="none" stroke="#757575" d="M185.08,-53.88C198.47,-53.88 214.99,-53.88 229.71,-53.88"/>
<polygon fill="#757575" stroke="#757575" points="229.53,-57.38 239.53,-53.88 229.53,-50.38 229.53,-57.38"/>
</g>
<!-- package.json -->
<g id="node4" class="node">
<title>package.json</title>
<path fill="none" stroke="#cfffac" d="M308.33,-23.75C308.33,-23.75 228.67,-23.75 228.67,-23.75 224.71,-23.75 220.75,-19.79 220.75,-15.83 220.75,-15.83 220.75,-7.92 220.75,-7.92 220.75,-3.96 224.71,0 228.67,0 228.67,0 308.33,0 308.33,0 312.29,0 316.25,-3.96 316.25,-7.92 316.25,-7.92 316.25,-15.83 316.25,-15.83 316.25,-19.79 312.29,-23.75 308.33,-23.75"/>
<text text-anchor="middle" x="268.5" y="-6.45" font-family="Arial" font-size="14.00" fill="#cfffac">package.json</text>
</g>
<!-- cli.js&#45;&gt;package.json -->
<g id="edge3" class="edge">
<title>cli.js&#45;&gt;package.json</title>
<path fill="none" stroke="#757575" d="M185.08,-43.71C197.08,-39.07 211.59,-33.47 225.08,-28.26"/>
<polygon fill="#757575" stroke="#757575" points="226.12,-31.61 234.19,-24.74 223.6,-25.08 226.12,-31.61"/>
</g>
<!-- executable.js -->
<g id="node5" class="node">
<title>executable.js</title>
<path fill="none" stroke="#c6c5fe" d="M86.83,-65.75C86.83,-65.75 7.92,-65.75 7.92,-65.75 3.96,-65.75 0,-61.79 0,-57.83 0,-57.83 0,-49.92 0,-49.92 0,-45.96 3.96,-42 7.92,-42 7.92,-42 86.83,-42 86.83,-42 90.79,-42 94.75,-45.96 94.75,-49.92 94.75,-49.92 94.75,-57.83 94.75,-57.83 94.75,-61.79 90.79,-65.75 86.83,-65.75"/>
<text text-anchor="middle" x="47.38" y="-48.45" font-family="Arial" font-size="14.00" fill="#c6c5fe">executable.js</text>
</g>
<!-- executable.js&#45;&gt;cli.js -->
<g id="edge4" class="edge">
<title>executable.js&#45;&gt;cli.js</title>
<path fill="none" stroke="#757575" d="M94.96,-53.88C103.04,-53.88 111.35,-53.88 119.15,-53.88"/>
<polygon fill="#757575" stroke="#757575" points="118.98,-57.38 128.98,-53.88 118.98,-50.38 118.98,-57.38"/>
</g>
</g>
</svg>
