<?xml version="1.0" encoding="UTF-8" standalone="no"?>
<!DOCTYPE svg PUBLIC "-//W3C//DTD SVG 1.1//EN"
 "http://www.w3.org/Graphics/SVG/1.1/DTD/svg11.dtd">
<!-- Generated by graphviz version 9.0.0 (20230911.1827)
 -->
<!-- Title: G Pages: 1 -->
<svg width="344pt" height="361pt"
 viewBox="0.00 0.00 343.70 360.95" xmlns="http://www.w3.org/2000/svg" xmlns:xlink="http://www.w3.org/1999/xlink">
<g id="graph0" class="graph" transform="scale(1 1) rotate(0) translate(21.6 339.35)">
<title>G</title>
<polygon fill="#111111" stroke="none" points="-21.6,21.6 -21.6,-339.35 322.1,-339.35 322.1,21.6 -21.6,21.6"/>
<!-- ../package.json -->
<g id="node1" class="node">
<title>../package.json</title>
<path fill="none" stroke="#cfffac" d="M292.58,-317.75C292.58,-317.75 201.67,-317.75 201.67,-317.75 197.71,-317.75 193.75,-313.79 193.75,-309.83 193.75,-309.83 193.75,-301.92 193.75,-301.92 193.75,-297.96 197.71,-294 201.67,-294 201.67,-294 292.58,-294 292.58,-294 296.54,-294 300.5,-297.96 300.5,-301.92 300.5,-301.92 300.5,-309.83 300.5,-309.83 300.5,-313.79 296.54,-317.75 292.58,-317.75"/>
<text text-anchor="middle" x="247.12" y="-300.45" font-family="Arial" font-size="14.00" fill="#cfffac">../package.json</text>
</g>
<!-- alias.js -->
<g id="node2" class="node">
<title>alias.js</title>
<path fill="none" stroke="#cfffac" d="M267.83,-275.75C267.83,-275.75 226.42,-275.75 226.42,-275.75 222.46,-275.75 218.5,-271.79 218.5,-267.83 218.5,-267.83 218.5,-259.92 218.5,-259.92 218.5,-255.96 222.46,-252 226.42,-252 226.42,-252 267.83,-252 267.83,-252 271.79,-252 275.75,-255.96 275.75,-259.92 275.75,-259.92 275.75,-267.83 275.75,-267.83 275.75,-271.79 271.79,-275.75 267.83,-275.75"/>
<text text-anchor="middle" x="247.12" y="-258.45" font-family="Arial" font-size="14.00" fill="#cfffac">alias.js</text>
</g>
<!-- cli.js -->
<g id="node3" class="node">
<title>cli.js</title>
<path fill="none" stroke="#c6c5fe" d="M46.08,-170.75C46.08,-170.75 7.92,-170.75 7.92,-170.75 3.96,-170.75 0,-166.79 0,-162.83 0,-162.83 0,-154.92 0,-154.92 0,-150.96 3.96,-147 7.92,-147 7.92,-147 46.08,-147 46.08,-147 50.04,-147 54,-150.96 54,-154.92 54,-154.92 54,-162.83 54,-162.83 54,-166.79 50.04,-170.75 46.08,-170.75"/>
<text text-anchor="middle" x="27" y="-153.45" font-family="Arial" font-size="14.00" fill="#c6c5fe">cli.js</text>
</g>
<!-- runner.js -->
<g id="node4" class="node">
<title>runner.js</title>
<path fill="none" stroke="#c6c5fe" d="M149.83,-170.75C149.83,-170.75 97.92,-170.75 97.92,-170.75 93.96,-170.75 90,-166.79 90,-162.83 90,-162.83 90,-154.92 90,-154.92 90,-150.96 93.96,-147 97.92,-147 97.92,-147 149.83,-147 149.83,-147 153.79,-147 157.75,-150.96 157.75,-154.92 157.75,-154.92 157.75,-162.83 157.75,-162.83 157.75,-166.79 153.79,-170.75 149.83,-170.75"/>
<text text-anchor="middle" x="123.88" y="-153.45" font-family="Arial" font-size="14.00" fill="#c6c5fe">runner.js</text>
</g>
<!-- cli.js&#45;&gt;runner.js -->
<g id="edge1" class="edge">
<title>cli.js&#45;&gt;runner.js</title>
<path fill="none" stroke="#757575" d="M54.43,-158.88C61.88,-158.88 70.2,-158.88 78.4,-158.88"/>
<polygon fill="#757575" stroke="#757575" points="78.3,-162.38 88.3,-158.88 78.3,-155.38 78.3,-162.38"/>
</g>
<!-- runner.js&#45;&gt;../package.json -->
<g id="edge2" class="edge">
<title>runner.js&#45;&gt;../package.json</title>
<path fill="none" stroke="#757575" d="M128.43,-171.05C136.25,-195.81 157.21,-252.44 193.75,-284.88 194.82,-285.83 195.94,-286.74 197.1,-287.61"/>
<polygon fill="#757575" stroke="#757575" points="195,-290.42 205.33,-292.76 198.71,-284.49 195,-290.42"/>
</g>
<!-- runner.js&#45;&gt;alias.js -->
<g id="edge3" class="edge">
<title>runner.js&#45;&gt;alias.js</title>
<path fill="none" stroke="#757575" d="M132.06,-171.08C143.19,-189.06 166.22,-222.69 193.75,-242.88 198.07,-246.04 202.92,-248.81 207.9,-251.21"/>
<polygon fill="#757575" stroke="#757575" points="206.17,-254.28 216.74,-255.02 208.94,-247.85 206.17,-254.28"/>
</g>
<!-- config.js -->
<g id="node5" class="node">
<title>config.js</title>
<path fill="none" stroke="#cfffac" d="M271.96,-233.75C271.96,-233.75 222.29,-233.75 222.29,-233.75 218.33,-233.75 214.38,-229.79 214.38,-225.83 214.38,-225.83 214.38,-217.92 214.38,-217.92 214.38,-213.96 218.33,-210 222.29,-210 222.29,-210 271.96,-210 271.96,-210 275.92,-210 279.88,-213.96 279.88,-217.92 279.88,-217.92 279.88,-225.83 279.88,-225.83 279.88,-229.79 275.92,-233.75 271.96,-233.75"/>
<text text-anchor="middle" x="247.12" y="-216.45" font-family="Arial" font-size="14.00" fill="#cfffac">config.js</text>
</g>
<!-- runner.js&#45;&gt;config.js -->
<g id="edge4" class="edge">
<title>runner.js&#45;&gt;config.js</title>
<path fill="none" stroke="#757575" d="M143.11,-171.14C156.72,-180.02 175.97,-191.97 193.75,-200.88 196.85,-202.43 200.09,-203.95 203.37,-205.42"/>
<polygon fill="#757575" stroke="#757575" points="201.94,-208.62 212.51,-209.34 204.7,-202.18 201.94,-208.62"/>
</g>
<!-- errors.js -->
<g id="node6" class="node">
<title>errors.js</title>
<path fill="none" stroke="#cfffac" d="M271.58,-191.75C271.58,-191.75 222.67,-191.75 222.67,-191.75 218.71,-191.75 214.75,-187.79 214.75,-183.83 214.75,-183.83 214.75,-175.92 214.75,-175.92 214.75,-171.96 218.71,-168 222.67,-168 222.67,-168 271.58,-168 271.58,-168 275.54,-168 279.5,-171.96 279.5,-175.92 279.5,-175.92 279.5,-183.83 279.5,-183.83 279.5,-187.79 275.54,-191.75 271.58,-191.75"/>
<text text-anchor="middle" x="247.12" y="-174.45" font-family="Arial" font-size="14.00" fill="#cfffac">errors.js</text>
</g>
<!-- runner.js&#45;&gt;errors.js -->
<g id="edge5" class="edge">
<title>runner.js&#45;&gt;errors.js</title>
<path fill="none" stroke="#757575" d="M158.01,-164.61C171.98,-167.03 188.41,-169.88 203.29,-172.46"/>
<polygon fill="#757575" stroke="#757575" points="202.35,-175.84 212.8,-174.1 203.54,-168.95 202.35,-175.84"/>
</g>
<!-- git.js -->
<g id="node7" class="node">
<title>git.js</title>
<path fill="none" stroke="#cfffac" d="M266.21,-149.75C266.21,-149.75 228.04,-149.75 228.04,-149.75 224.08,-149.75 220.12,-145.79 220.12,-141.83 220.12,-141.83 220.12,-133.92 220.12,-133.92 220.12,-129.96 224.08,-126 228.04,-126 228.04,-126 266.21,-126 266.21,-126 270.17,-126 274.12,-129.96 274.12,-133.92 274.12,-133.92 274.12,-141.83 274.12,-141.83 274.12,-145.79 270.17,-149.75 266.21,-149.75"/>
<text text-anchor="middle" x="247.12" y="-132.45" font-family="Arial" font-size="14.00" fill="#cfffac">git.js</text>
</g>
<!-- runner.js&#45;&gt;git.js -->
<g id="edge6" class="edge">
<title>runner.js&#45;&gt;git.js</title>
<path fill="none" stroke="#757575" d="M158.01,-153.14C173.69,-150.42 192.49,-147.16 208.69,-144.36"/>
<polygon fill="#757575" stroke="#757575" points="209.2,-147.82 218.45,-142.67 208,-140.93 209.2,-147.82"/>
</g>
<!-- legend.js -->
<g id="node8" class="node">
<title>legend.js</title>
<path fill="none" stroke="#cfffac" d="M274.21,-107.75C274.21,-107.75 220.04,-107.75 220.04,-107.75 216.08,-107.75 212.12,-103.79 212.12,-99.83 212.12,-99.83 212.12,-91.92 212.12,-91.92 212.12,-87.96 216.08,-84 220.04,-84 220.04,-84 274.21,-84 274.21,-84 278.17,-84 282.12,-87.96 282.12,-91.92 282.12,-91.92 282.12,-99.83 282.12,-99.83 282.12,-103.79 278.17,-107.75 274.21,-107.75"/>
<text text-anchor="middle" x="247.12" y="-90.45" font-family="Arial" font-size="14.00" fill="#cfffac">legend.js</text>
</g>
<!-- runner.js&#45;&gt;legend.js -->
<g id="edge7" class="edge">
<title>runner.js&#45;&gt;legend.js</title>
<path fill="none" stroke="#757575" d="M143.11,-146.61C156.72,-137.73 175.97,-125.78 193.75,-116.88 196.62,-115.44 199.62,-114.02 202.66,-112.65"/>
<polygon fill="#757575" stroke="#757575" points="203.88,-115.93 211.68,-108.76 201.11,-109.5 203.88,-115.93"/>
</g>
<!-- log.js -->
<g id="node9" class="node">
<title>log.js</title>
<path fill="none" stroke="#cfffac" d="M266.21,-65.75C266.21,-65.75 228.04,-65.75 228.04,-65.75 224.08,-65.75 220.12,-61.79 220.12,-57.83 220.12,-57.83 220.12,-49.92 220.12,-49.92 220.12,-45.96 224.08,-42 228.04,-42 228.04,-42 266.21,-42 266.21,-42 270.17,-42 274.12,-45.96 274.12,-49.92 274.12,-49.92 274.12,-57.83 274.12,-57.83 274.12,-61.79 270.17,-65.75 266.21,-65.75"/>
<text text-anchor="middle" x="247.12" y="-48.45" font-family="Arial" font-size="14.00" fill="#cfffac">log.js</text>
</g>
<!-- runner.js&#45;&gt;log.js -->
<g id="edge8" class="edge">
<title>runner.js&#45;&gt;log.js</title>
<path fill="none" stroke="#757575" d="M132.06,-146.67C143.19,-128.69 166.22,-95.06 193.75,-74.88 198.47,-71.42 203.84,-68.43 209.29,-65.88"/>
<polygon fill="#757575" stroke="#757575" points="210.47,-69.18 218.35,-62.09 207.77,-62.72 210.47,-69.18"/>
</g>
<!-- per&#45;commit.js -->
<g id="node10" class="node">
<title>per&#45;commit.js</title>
<path fill="none" stroke="#cfffac" d="M288.46,-23.75C288.46,-23.75 205.79,-23.75 205.79,-23.75 201.83,-23.75 197.88,-19.79 197.88,-15.83 197.88,-15.83 197.88,-7.92 197.88,-7.92 197.88,-3.96 201.83,0 205.79,0 205.79,0 288.46,0 288.46,0 292.42,0 296.38,-3.96 296.38,-7.92 296.38,-7.92 296.38,-15.83 296.38,-15.83 296.38,-19.79 292.42,-23.75 288.46,-23.75"/>
<text text-anchor="middle" x="247.12" y="-6.45" font-family="Arial" font-size="14.00" fill="#cfffac">per&#45;commit.js</text>
</g>
<!-- runner.js&#45;&gt;per&#45;commit.js -->
<g id="edge9" class="edge">
<title>runner.js&#45;&gt;per&#45;commit.js</title>
<path fill="none" stroke="#757575" d="M128.43,-146.7C136.25,-121.94 157.21,-65.31 193.75,-32.88 194.82,-31.92 195.94,-31.01 197.1,-30.14"/>
<polygon fill="#757575" stroke="#757575" points="198.71,-33.26 205.33,-24.99 195,-27.33 198.71,-33.26"/>
</g>
</g>
</svg>
