<?xml version="1.0" encoding="UTF-8" standalone="no"?>
<!DOCTYPE svg PUBLIC "-//W3C//DTD SVG 1.1//EN"
 "http://www.w3.org/Graphics/SVG/1.1/DTD/svg11.dtd">
<!-- Generated by graphviz version 9.0.0 (20230911.1827)
 -->
<!-- Title: G Pages: 1 -->
<svg width="324pt" height="151pt"
 viewBox="0.00 0.00 324.45 150.95" xmlns="http://www.w3.org/2000/svg" xmlns:xlink="http://www.w3.org/1999/xlink">
<g id="graph0" class="graph" transform="scale(1 1) rotate(0) translate(21.6 129.35)">
<title>G</title>
<polygon fill="#111111" stroke="none" points="-21.6,21.6 -21.6,-129.35 302.85,-129.35 302.85,21.6 -21.6,21.6"/>
<!-- builder.js -->
<g id="node1" class="node">
<title>builder.js</title>
<path fill="none" stroke="#c6c5fe" d="M170.33,-66.75C170.33,-66.75 116.92,-66.75 116.92,-66.75 112.96,-66.75 109,-62.79 109,-58.83 109,-58.83 109,-50.92 109,-50.92 109,-46.96 112.96,-43 116.92,-43 116.92,-43 170.33,-43 170.33,-43 174.29,-43 178.25,-46.96 178.25,-50.92 178.25,-50.92 178.25,-58.83 178.25,-58.83 178.25,-62.79 174.29,-66.75 170.33,-66.75"/>
<text text-anchor="middle" x="143.62" y="-49.45" font-family="Arial" font-size="14.00" fill="#c6c5fe">builder.js</text>
</g>
<!-- help.js -->
<g id="node2" class="node">
<title>help.js</title>
<path fill="none" stroke="#cfffac" d="M267.33,-107.75C267.33,-107.75 228.17,-107.75 228.17,-107.75 224.21,-107.75 220.25,-103.79 220.25,-99.83 220.25,-99.83 220.25,-91.92 220.25,-91.92 220.25,-87.96 224.21,-84 228.17,-84 228.17,-84 267.33,-84 267.33,-84 271.29,-84 275.25,-87.96 275.25,-91.92 275.25,-91.92 275.25,-99.83 275.25,-99.83 275.25,-103.79 271.29,-107.75 267.33,-107.75"/>
<text text-anchor="middle" x="247.75" y="-90.45" font-family="Arial" font-size="14.00" fill="#cfffac">help.js</text>
</g>
<!-- builder.js&#45;&gt;help.js -->
<g id="edge1" class="edge">
<title>builder.js&#45;&gt;help.js</title>
<path fill="none" stroke="#757575" d="M175.27,-67.18C186.04,-71.5 198.27,-76.41 209.52,-80.93"/>
<polygon fill="#757575" stroke="#757575" points="207.95,-84.07 218.54,-84.55 210.56,-77.57 207.95,-84.07"/>
</g>
<!-- log.js -->
<g id="node3" class="node">
<title>log.js</title>
<path fill="none" stroke="#cfffac" d="M266.83,-65.75C266.83,-65.75 228.67,-65.75 228.67,-65.75 224.71,-65.75 220.75,-61.79 220.75,-57.83 220.75,-57.83 220.75,-49.92 220.75,-49.92 220.75,-45.96 224.71,-42 228.67,-42 228.67,-42 266.83,-42 266.83,-42 270.79,-42 274.75,-45.96 274.75,-49.92 274.75,-49.92 274.75,-57.83 274.75,-57.83 274.75,-61.79 270.79,-65.75 266.83,-65.75"/>
<text text-anchor="middle" x="247.75" y="-48.45" font-family="Arial" font-size="14.00" fill="#cfffac">log.js</text>
</g>
<!-- builder.js&#45;&gt;log.js -->
<g id="edge2" class="edge">
<title>builder.js&#45;&gt;log.js</title>
<path fill="none" stroke="#757575" d="M178.63,-54.54C188.39,-54.45 199.09,-54.34 209.05,-54.24"/>
<polygon fill="#757575" stroke="#757575" points="208.84,-57.75 218.81,-54.15 208.77,-50.75 208.84,-57.75"/>
</g>
<!-- parser.js -->
<g id="node4" class="node">
<title>parser.js</title>
<path fill="none" stroke="#cfffac" d="M273.33,-23.75C273.33,-23.75 222.17,-23.75 222.17,-23.75 218.21,-23.75 214.25,-19.79 214.25,-15.83 214.25,-15.83 214.25,-7.92 214.25,-7.92 214.25,-3.96 218.21,0 222.17,0 222.17,0 273.33,0 273.33,0 277.29,0 281.25,-3.96 281.25,-7.92 281.25,-7.92 281.25,-15.83 281.25,-15.83 281.25,-19.79 277.29,-23.75 273.33,-23.75"/>
<text text-anchor="middle" x="247.75" y="-6.45" font-family="Arial" font-size="14.00" fill="#cfffac">parser.js</text>
</g>
<!-- builder.js&#45;&gt;parser.js -->
<g id="edge3" class="edge">
<title>builder.js&#45;&gt;parser.js</title>
<path fill="none" stroke="#757575" d="M173.89,-42.55C184.25,-38.19 196.09,-33.21 207.17,-28.54"/>
<polygon fill="#757575" stroke="#757575" points="208.23,-31.89 216.09,-24.79 205.51,-25.44 208.23,-31.89"/>
</g>
<!-- climate.js -->
<g id="node5" class="node">
<title>climate.js</title>
<path fill="none" stroke="#c6c5fe" d="M65.08,-86.75C65.08,-86.75 7.92,-86.75 7.92,-86.75 3.96,-86.75 0,-82.79 0,-78.83 0,-78.83 0,-70.92 0,-70.92 0,-66.96 3.96,-63 7.92,-63 7.92,-63 65.08,-63 65.08,-63 69.04,-63 73,-66.96 73,-70.92 73,-70.92 73,-78.83 73,-78.83 73,-82.79 69.04,-86.75 65.08,-86.75"/>
<text text-anchor="middle" x="36.5" y="-69.45" font-family="Arial" font-size="14.00" fill="#c6c5fe">climate.js</text>
</g>
<!-- climate.js&#45;&gt;builder.js -->
<g id="edge4" class="edge">
<title>climate.js&#45;&gt;builder.js</title>
<path fill="none" stroke="#757575" d="M73.38,-68.05C81.15,-66.57 89.45,-64.99 97.51,-63.46"/>
<polygon fill="#757575" stroke="#757575" points="98.02,-66.92 107.19,-61.62 96.71,-60.05 98.02,-66.92"/>
</g>
<!-- climate.js&#45;&gt;help.js -->
<g id="edge5" class="edge">
<title>climate.js&#45;&gt;help.js</title>
<path fill="none" stroke="#757575" d="M73.47,-78.49C111.17,-82.27 170.16,-88.19 208.64,-92.05"/>
<polygon fill="#757575" stroke="#757575" points="208.07,-95.51 218.37,-93.03 208.77,-88.55 208.07,-95.51"/>
</g>
</g>
</svg>
