<?xml version="1.0" encoding="UTF-8" standalone="no"?>
<!DOCTYPE svg PUBLIC "-//W3C//DTD SVG 1.1//EN"
 "http://www.w3.org/Graphics/SVG/1.1/DTD/svg11.dtd">
<!-- Generated by graphviz version 9.0.0 (20230911.1827)
 -->
<!-- Title: G Pages: 1 -->
<svg width="313pt" height="151pt"
 viewBox="0.00 0.00 313.20 150.95" xmlns="http://www.w3.org/2000/svg" xmlns:xlink="http://www.w3.org/1999/xlink">
<g id="graph0" class="graph" transform="scale(1 1) rotate(0) translate(21.6 129.35)">
<title>G</title>
<polygon fill="#111111" stroke="none" points="-21.6,21.6 -21.6,-129.35 291.6,-129.35 291.6,21.6 -21.6,21.6"/>
<!-- builder.js -->
<g id="node1" class="node">
<title>builder.js</title>
<path fill="none" stroke="#c6c5fe" d="M159.08,-66.75C159.08,-66.75 105.67,-66.75 105.67,-66.75 101.71,-66.75 97.75,-62.79 97.75,-58.83 97.75,-58.83 97.75,-50.92 97.75,-50.92 97.75,-46.96 101.71,-43 105.67,-43 105.67,-43 159.08,-43 159.08,-43 163.04,-43 167,-46.96 167,-50.92 167,-50.92 167,-58.83 167,-58.83 167,-62.79 163.04,-66.75 159.08,-66.75"/>
<text text-anchor="middle" x="132.38" y="-49.45" font-family="Arial" font-size="14.00" fill="#c6c5fe">builder.js</text>
</g>
<!-- help.js -->
<g id="node2" class="node">
<title>help.js</title>
<path fill="none" stroke="#cfffac" d="M256.08,-107.75C256.08,-107.75 216.92,-107.75 216.92,-107.75 212.96,-107.75 209,-103.79 209,-99.83 209,-99.83 209,-91.92 209,-91.92 209,-87.96 212.96,-84 216.92,-84 216.92,-84 256.08,-84 256.08,-84 260.04,-84 264,-87.96 264,-91.92 264,-91.92 264,-99.83 264,-99.83 264,-103.79 260.04,-107.75 256.08,-107.75"/>
<text text-anchor="middle" x="236.5" y="-90.45" font-family="Arial" font-size="14.00" fill="#cfffac">help.js</text>
</g>
<!-- builder.js&#45;&gt;help.js -->
<g id="edge1" class="edge">
<title>builder.js&#45;&gt;help.js</title>
<path fill="none" stroke="#757575" d="M164.02,-67.18C174.79,-71.5 187.02,-76.41 198.27,-80.93"/>
<polygon fill="#757575" stroke="#757575" points="196.7,-84.07 207.29,-84.55 199.31,-77.57 196.7,-84.07"/>
</g>
<!-- log.js -->
<g id="node3" class="node">
<title>log.js</title>
<path fill="none" stroke="#cfffac" d="M255.58,-65.75C255.58,-65.75 217.42,-65.75 217.42,-65.75 213.46,-65.75 209.5,-61.79 209.5,-57.83 209.5,-57.83 209.5,-49.92 209.5,-49.92 209.5,-45.96 213.46,-42 217.42,-42 217.42,-42 255.58,-42 255.58,-42 259.54,-42 263.5,-45.96 263.5,-49.92 263.5,-49.92 263.5,-57.83 263.5,-57.83 263.5,-61.79 259.54,-65.75 255.58,-65.75"/>
<text text-anchor="middle" x="236.5" y="-48.45" font-family="Arial" font-size="14.00" fill="#cfffac">log.js</text>
</g>
<!-- builder.js&#45;&gt;log.js -->
<g id="edge2" class="edge">
<title>builder.js&#45;&gt;log.js</title>
<path fill="none" stroke="#757575" d="M167.38,-54.54C177.14,-54.45 187.84,-54.34 197.8,-54.24"/>
<polygon fill="#757575" stroke="#757575" points="197.59,-57.75 207.56,-54.15 197.52,-50.75 197.59,-57.75"/>
</g>
<!-- parser.js -->
<g id="node4" class="node">
<title>parser.js</title>
<path fill="none" stroke="#cfffac" d="M262.08,-23.75C262.08,-23.75 210.92,-23.75 210.92,-23.75 206.96,-23.75 203,-19.79 203,-15.83 203,-15.83 203,-7.92 203,-7.92 203,-3.96 206.96,0 210.92,0 210.92,0 262.08,0 262.08,0 266.04,0 270,-3.96 270,-7.92 270,-7.92 270,-15.83 270,-15.83 270,-19.79 266.04,-23.75 262.08,-23.75"/>
<text text-anchor="middle" x="236.5" y="-6.45" font-family="Arial" font-size="14.00" fill="#cfffac">parser.js</text>
</g>
<!-- builder.js&#45;&gt;parser.js -->
<g id="edge3" class="edge">
<title>builder.js&#45;&gt;parser.js</title>
<path fill="none" stroke="#757575" d="M162.64,-42.55C173,-38.19 184.84,-33.21 195.92,-28.54"/>
<polygon fill="#757575" stroke="#757575" points="196.98,-31.89 204.84,-24.79 194.26,-25.44 196.98,-31.89"/>
</g>
<!-- index.js -->
<g id="node5" class="node">
<title>index.js</title>
<path fill="none" stroke="#c6c5fe" d="M53.83,-86.75C53.83,-86.75 7.92,-86.75 7.92,-86.75 3.96,-86.75 0,-82.79 0,-78.83 0,-78.83 0,-70.92 0,-70.92 0,-66.96 3.96,-63 7.92,-63 7.92,-63 53.83,-63 53.83,-63 57.79,-63 61.75,-66.96 61.75,-70.92 61.75,-70.92 61.75,-78.83 61.75,-78.83 61.75,-82.79 57.79,-86.75 53.83,-86.75"/>
<text text-anchor="middle" x="30.88" y="-69.45" font-family="Arial" font-size="14.00" fill="#c6c5fe">index.js</text>
</g>
<!-- index.js&#45;&gt;builder.js -->
<g id="edge4" class="edge">
<title>index.js&#45;&gt;builder.js</title>
<path fill="none" stroke="#757575" d="M62,-68.82C69.71,-67.27 78.16,-65.57 86.44,-63.91"/>
<polygon fill="#757575" stroke="#757575" points="86.93,-67.38 96.04,-61.98 85.55,-60.52 86.93,-67.38"/>
</g>
<!-- index.js&#45;&gt;help.js -->
<g id="edge5" class="edge">
<title>index.js&#45;&gt;help.js</title>
<path fill="none" stroke="#757575" d="M61.92,-77.97C97.81,-81.68 157.92,-87.87 197.13,-91.92"/>
<polygon fill="#757575" stroke="#757575" points="196.77,-95.4 207.08,-92.94 197.49,-88.44 196.77,-95.4"/>
</g>
</g>
</svg>
