<?xml version="1.0" encoding="UTF-8" standalone="no"?>
<!DOCTYPE svg PUBLIC "-//W3C//DTD SVG 1.1//EN"
 "http://www.w3.org/Graphics/SVG/1.1/DTD/svg11.dtd">
<!-- Generated by graphviz version 9.0.0 (20230911.1827)
 -->
<!-- Title: G Pages: 1 -->
<svg width="220pt" height="253pt"
 viewBox="0.00 0.00 219.95 252.95" xmlns="http://www.w3.org/2000/svg" xmlns:xlink="http://www.w3.org/1999/xlink">
<g id="graph0" class="graph" transform="scale(1 1) rotate(0) translate(21.6 231.35)">
<title>G</title>
<polygon fill="#111111" stroke="none" points="-21.6,21.6 -21.6,-231.35 198.35,-231.35 198.35,21.6 -21.6,21.6"/>
<!-- find&#45;up.js -->
<g id="node1" class="node">
<title>find&#45;up.js</title>
<path fill="none" stroke="#ff6c60" d="M164.71,-191.75C164.71,-191.75 109.79,-191.75 109.79,-191.75 105.83,-191.75 101.88,-187.79 101.88,-183.83 101.88,-183.83 101.88,-175.92 101.88,-175.92 101.88,-171.96 105.83,-168 109.79,-168 109.79,-168 164.71,-168 164.71,-168 168.67,-168 172.62,-171.96 172.62,-175.92 172.62,-175.92 172.62,-183.83 172.62,-183.83 172.62,-187.79 168.67,-191.75 164.71,-191.75"/>
<text text-anchor="middle" x="137.25" y="-174.45" font-family="Arial" font-size="14.00" fill="#ff6c60">find&#45;up.js</text>
</g>
<!-- find&#45;up.js&#45;&gt;find&#45;up.js -->
<g id="edge1" class="edge">
<title>find&#45;up.js&#45;&gt;find&#45;up.js</title>
<path fill="none" stroke="#757575" d="M119.45,-192.15C113.66,-200.97 119.59,-209.75 137.25,-209.75 146.63,-209.75 152.7,-207.27 155.47,-203.63"/>
<polygon fill="#757575" stroke="#757575" points="158.97,-203.53 155.1,-193.66 151.97,-203.78 158.97,-203.53"/>
</g>
<!-- flexeca.js -->
<g id="node2" class="node">
<title>flexeca.js</title>
<path fill="none" stroke="#cfffac" d="M165.46,-149.75C165.46,-149.75 109.04,-149.75 109.04,-149.75 105.08,-149.75 101.12,-145.79 101.12,-141.83 101.12,-141.83 101.12,-133.92 101.12,-133.92 101.12,-129.96 105.08,-126 109.04,-126 109.04,-126 165.46,-126 165.46,-126 169.42,-126 173.38,-129.96 173.38,-133.92 173.38,-133.92 173.38,-141.83 173.38,-141.83 173.38,-145.79 169.42,-149.75 165.46,-149.75"/>
<text text-anchor="middle" x="137.25" y="-132.45" font-family="Arial" font-size="14.00" fill="#cfffac">flexeca.js</text>
</g>
<!-- fs.js -->
<g id="node3" class="node">
<title>fs.js</title>
<path fill="none" stroke="#cfffac" d="M156.33,-107.75C156.33,-107.75 118.17,-107.75 118.17,-107.75 114.21,-107.75 110.25,-103.79 110.25,-99.83 110.25,-99.83 110.25,-91.92 110.25,-91.92 110.25,-87.96 114.21,-84 118.17,-84 118.17,-84 156.33,-84 156.33,-84 160.29,-84 164.25,-87.96 164.25,-91.92 164.25,-91.92 164.25,-99.83 164.25,-99.83 164.25,-103.79 160.29,-107.75 156.33,-107.75"/>
<text text-anchor="middle" x="137.25" y="-90.45" font-family="Arial" font-size="14.00" fill="#cfffac">fs.js</text>
</g>
<!-- index.js -->
<g id="node4" class="node">
<title>index.js</title>
<path fill="none" stroke="#c6c5fe" d="M53.83,-107.75C53.83,-107.75 7.92,-107.75 7.92,-107.75 3.96,-107.75 0,-103.79 0,-99.83 0,-99.83 0,-91.92 0,-91.92 0,-87.96 3.96,-84 7.92,-84 7.92,-84 53.83,-84 53.83,-84 57.79,-84 61.75,-87.96 61.75,-91.92 61.75,-91.92 61.75,-99.83 61.75,-99.83 61.75,-103.79 57.79,-107.75 53.83,-107.75"/>
<text text-anchor="middle" x="30.88" y="-90.45" font-family="Arial" font-size="14.00" fill="#c6c5fe">index.js</text>
</g>
<!-- index.js&#45;&gt;find&#45;up.js -->
<g id="edge2" class="edge">
<title>index.js&#45;&gt;find&#45;up.js</title>
<path fill="none" stroke="#757575" d="M42.71,-108.01C55.14,-121.49 76.54,-143.37 97.75,-158.88 99.09,-159.86 100.49,-160.83 101.92,-161.77"/>
<polygon fill="#757575" stroke="#757575" points="99.98,-164.69 110.33,-166.92 103.63,-158.72 99.98,-164.69"/>
</g>
<!-- index.js&#45;&gt;flexeca.js -->
<g id="edge3" class="edge">
<title>index.js&#45;&gt;flexeca.js</title>
<path fill="none" stroke="#757575" d="M62.06,-108.02C72.47,-112.21 84.3,-116.97 95.41,-121.44"/>
<polygon fill="#757575" stroke="#757575" points="93.78,-124.56 104.36,-125.04 96.39,-118.06 93.78,-124.56"/>
</g>
<!-- index.js&#45;&gt;fs.js -->
<g id="edge4" class="edge">
<title>index.js&#45;&gt;fs.js</title>
<path fill="none" stroke="#757575" d="M62.06,-95.88C73.44,-95.88 86.53,-95.88 98.51,-95.88"/>
<polygon fill="#757575" stroke="#757575" points="98.51,-99.38 108.51,-95.88 98.51,-92.38 98.51,-99.38"/>
</g>
<!-- interpret.js -->
<g id="node5" class="node">
<title>interpret.js</title>
<path fill="none" stroke="#cfffac" d="M168.83,-65.75C168.83,-65.75 105.67,-65.75 105.67,-65.75 101.71,-65.75 97.75,-61.79 97.75,-57.83 97.75,-57.83 97.75,-49.92 97.75,-49.92 97.75,-45.96 101.71,-42 105.67,-42 105.67,-42 168.83,-42 168.83,-42 172.79,-42 176.75,-45.96 176.75,-49.92 176.75,-49.92 176.75,-57.83 176.75,-57.83 176.75,-61.79 172.79,-65.75 168.83,-65.75"/>
<text text-anchor="middle" x="137.25" y="-48.45" font-family="Arial" font-size="14.00" fill="#cfffac">interpret.js</text>
</g>
<!-- index.js&#45;&gt;interpret.js -->
<g id="edge5" class="edge">
<title>index.js&#45;&gt;interpret.js</title>
<path fill="none" stroke="#757575" d="M62.06,-83.73C72.47,-79.54 84.3,-74.78 95.41,-70.31"/>
<polygon fill="#757575" stroke="#757575" points="96.39,-73.69 104.36,-66.71 93.78,-67.19 96.39,-73.69"/>
</g>
<!-- path.js -->
<g id="node6" class="node">
<title>path.js</title>
<path fill="none" stroke="#cfffac" d="M157.21,-23.75C157.21,-23.75 117.29,-23.75 117.29,-23.75 113.33,-23.75 109.38,-19.79 109.38,-15.83 109.38,-15.83 109.38,-7.92 109.38,-7.92 109.38,-3.96 113.33,0 117.29,0 117.29,0 157.21,0 157.21,0 161.17,0 165.12,-3.96 165.12,-7.92 165.12,-7.92 165.12,-15.83 165.12,-15.83 165.12,-19.79 161.17,-23.75 157.21,-23.75"/>
<text text-anchor="middle" x="137.25" y="-6.45" font-family="Arial" font-size="14.00" fill="#cfffac">path.js</text>
</g>
<!-- index.js&#45;&gt;path.js -->
<g id="edge6" class="edge">
<title>index.js&#45;&gt;path.js</title>
<path fill="none" stroke="#757575" d="M42.71,-83.74C55.14,-70.26 76.54,-48.38 97.75,-32.88 99.09,-31.89 100.49,-30.92 101.92,-29.98"/>
<polygon fill="#757575" stroke="#757575" points="103.63,-33.03 110.33,-24.83 99.98,-27.06 103.63,-33.03"/>
</g>
</g>
</svg>
