<?xml version="1.0" encoding="UTF-8" standalone="no"?>
<!DOCTYPE svg PUBLIC "-//W3C//DTD SVG 1.1//EN"
 "http://www.w3.org/Graphics/SVG/1.1/DTD/svg11.dtd">
<!-- Generated by graphviz version 9.0.0 (20230911.1827)
 -->
<!-- Title: G Pages: 1 -->
<svg width="768pt" height="385pt"
 viewBox="0.00 0.00 767.70 384.95" xmlns="http://www.w3.org/2000/svg" xmlns:xlink="http://www.w3.org/1999/xlink">
<g id="graph0" class="graph" transform="scale(1 1) rotate(0) translate(21.6 363.35)">
<title>G</title>
<polygon fill="#111111" stroke="none" points="-21.6,21.6 -21.6,-363.35 746.1,-363.35 746.1,21.6 -21.6,21.6"/>
<!-- chalk -->
<g id="node1" class="node">
<title>chalk</title>
<path fill="none" stroke="#00cc00" d="M171.83,-77.75C171.83,-77.75 126.92,-77.75 126.92,-77.75 121.96,-77.75 117,-72.79 117,-67.83 117,-67.83 117,-57.92 117,-57.92 117,-52.96 121.96,-48 126.92,-48 126.92,-48 171.83,-48 171.83,-48 176.79,-48 181.75,-52.96 181.75,-57.92 181.75,-57.92 181.75,-67.83 181.75,-67.83 181.75,-72.79 176.79,-77.75 171.83,-77.75"/>
<text text-anchor="middle" x="149.38" y="-58.55" font-family="Fira Code" font-size="16.00" fill="#ffffff">chalk</text>
</g>
<!-- ramda -->
<g id="node2" class="node">
<title>ramda</title>
<path fill="none" stroke="#ffcc00" d="M487.08,-221.75C487.08,-221.75 442.17,-221.75 442.17,-221.75 437.21,-221.75 432.25,-216.79 432.25,-211.83 432.25,-211.83 432.25,-201.92 432.25,-201.92 432.25,-196.96 437.21,-192 442.17,-192 442.17,-192 487.08,-192 487.08,-192 492.04,-192 497,-196.96 497,-201.92 497,-201.92 497,-211.83 497,-211.83 497,-216.79 492.04,-221.75 487.08,-221.75"/>
<text text-anchor="middle" x="464.62" y="-202.55" font-family="Fira Code" font-size="16.00" fill="#ffffff">ramda</text>
</g>
<!-- fluture -->
<g id="node3" class="node">
<title>fluture</title>
<path fill="none" stroke="#ffcc00" d="M496.83,-173.75C496.83,-173.75 432.42,-173.75 432.42,-173.75 427.46,-173.75 422.5,-168.79 422.5,-163.83 422.5,-163.83 422.5,-153.92 422.5,-153.92 422.5,-148.96 427.46,-144 432.42,-144 432.42,-144 496.83,-144 496.83,-144 501.79,-144 506.75,-148.96 506.75,-153.92 506.75,-153.92 506.75,-163.83 506.75,-163.83 506.75,-168.79 501.79,-173.75 496.83,-173.75"/>
<text text-anchor="middle" x="464.62" y="-154.55" font-family="Fira Code" font-size="16.00" fill="#ffffff">fluture</text>
</g>
<!-- file&#45;system -->
<g id="node4" class="node">
<title>file&#45;system</title>
<path fill="none" stroke="#ffcc00" d="M516.33,-125.75C516.33,-125.75 412.92,-125.75 412.92,-125.75 407.96,-125.75 403,-120.79 403,-115.83 403,-115.83 403,-105.92 403,-105.92 403,-100.96 407.96,-96 412.92,-96 412.92,-96 516.33,-96 516.33,-96 521.29,-96 526.25,-100.96 526.25,-105.92 526.25,-105.92 526.25,-115.83 526.25,-115.83 526.25,-120.79 521.29,-125.75 516.33,-125.75"/>
<text text-anchor="middle" x="464.62" y="-106.55" font-family="Fira Code" font-size="16.00" fill="#ffffff">file&#45;system</text>
</g>
<!-- packages/monocle/reader.js -->
<g id="node5" class="node">
<title>packages/monocle/reader.js</title>
<path fill="none" stroke="#ffffff" d="M274.21,-125.75C274.21,-125.75 24.54,-125.75 24.54,-125.75 19.58,-125.75 14.62,-120.79 14.62,-115.83 14.62,-115.83 14.62,-105.92 14.62,-105.92 14.62,-100.96 19.58,-96 24.54,-96 24.54,-96 274.21,-96 274.21,-96 279.17,-96 284.12,-100.96 284.12,-105.92 284.12,-105.92 284.12,-115.83 284.12,-115.83 284.12,-120.79 279.17,-125.75 274.21,-125.75"/>
<text text-anchor="middle" x="149.38" y="-106.55" font-family="Fira Code" font-size="16.00" fill="#ffffff">packages/monocle/reader.js</text>
</g>
<!-- packages/monocle/reader.js&#45;&gt;ramda -->
<g id="edge1" class="edge">
<title>packages/monocle/reader.js&#45;&gt;ramda</title>
<path fill="none" stroke="#888888" d="M210.32,-126.18C237.93,-134.26 270.72,-145.32 298.75,-158.88 316.06,-167.25 316.94,-175.63 334.75,-182.88 362.18,-194.02 395,-200.04 420.66,-203.26"/>
<polygon fill="#888888" stroke="#888888" points="420.07,-206.71 430.4,-204.38 420.86,-199.76 420.07,-206.71"/>
</g>
<!-- packages/monocle/reader.js&#45;&gt;fluture -->
<g id="edge2" class="edge">
<title>packages/monocle/reader.js&#45;&gt;fluture</title>
<path fill="none" stroke="#888888" d="M250.35,-126.19C303.77,-134.38 367.35,-144.12 411.11,-150.83"/>
<polygon fill="#888888" stroke="#888888" points="410.43,-154.27 420.85,-152.32 411.49,-147.35 410.43,-154.27"/>
</g>
<!-- packages/monocle/reader.js&#45;&gt;file&#45;system -->
<g id="edge3" class="edge">
<title>packages/monocle/reader.js&#45;&gt;file&#45;system</title>
<path fill="none" stroke="#888888" d="M284.58,-110.88C321.26,-110.88 359.61,-110.88 391.37,-110.88"/>
<polygon fill="#888888" stroke="#888888" points="391.24,-114.38 401.24,-110.88 391.24,-107.38 391.24,-114.38"/>
</g>
<!-- packages/monocle/hash.js -->
<g id="node6" class="node">
<title>packages/monocle/hash.js</title>
<path fill="none" stroke="#ffffff" d="M579.71,-77.75C579.71,-77.75 349.54,-77.75 349.54,-77.75 344.58,-77.75 339.62,-72.79 339.62,-67.83 339.62,-67.83 339.62,-57.92 339.62,-57.92 339.62,-52.96 344.58,-48 349.54,-48 349.54,-48 579.71,-48 579.71,-48 584.67,-48 589.62,-52.96 589.62,-57.92 589.62,-57.92 589.62,-67.83 589.62,-67.83 589.62,-72.79 584.67,-77.75 579.71,-77.75"/>
<text text-anchor="middle" x="464.62" y="-58.55" font-family="Fira Code" font-size="16.00" fill="#ffffff">packages/monocle/hash.js</text>
</g>
<!-- packages/monocle/reader.js&#45;&gt;packages/monocle/hash.js -->
<g id="edge4" class="edge">
<title>packages/monocle/reader.js&#45;&gt;packages/monocle/hash.js</title>
<path fill="none" stroke="#888888" d="M250.35,-95.56C282.85,-90.58 319.1,-85.02 352.37,-79.92"/>
<polygon fill="#888888" stroke="#888888" points="352.67,-83.42 362.03,-78.44 351.61,-76.5 352.67,-83.42"/>
</g>
<!-- packages/monocle/trace.js -->
<g id="node7" class="node">
<title>packages/monocle/trace.js</title>
<path fill="none" stroke="#ffffff" d="M584.58,-29.75C584.58,-29.75 344.67,-29.75 344.67,-29.75 339.71,-29.75 334.75,-24.79 334.75,-19.83 334.75,-19.83 334.75,-9.92 334.75,-9.92 334.75,-4.96 339.71,0 344.67,0 344.67,0 584.58,0 584.58,0 589.54,0 594.5,-4.96 594.5,-9.92 594.5,-9.92 594.5,-19.83 594.5,-19.83 594.5,-24.79 589.54,-29.75 584.58,-29.75"/>
<text text-anchor="middle" x="464.62" y="-10.55" font-family="Fira Code" font-size="16.00" fill="#ffffff">packages/monocle/trace.js</text>
</g>
<!-- packages/monocle/reader.js&#45;&gt;packages/monocle/trace.js -->
<g id="edge5" class="edge">
<title>packages/monocle/reader.js&#45;&gt;packages/monocle/trace.js</title>
<path fill="none" stroke="#888888" d="M281.51,-95.61C287.5,-93.08 293.28,-90.18 298.75,-86.88 321.57,-73.08 312.1,-52.94 334.75,-38.88 336.91,-37.53 339.13,-36.26 341.39,-35.06"/>
<polygon fill="#888888" stroke="#888888" points="342.7,-38.31 350.23,-30.86 339.7,-31.99 342.7,-38.31"/>
</g>
<!-- envtrace -->
<g id="node9" class="node">
<title>envtrace</title>
<path fill="none" stroke="#ffffff" d="M714.58,-29.75C714.58,-29.75 640.42,-29.75 640.42,-29.75 635.46,-29.75 630.5,-24.79 630.5,-19.83 630.5,-19.83 630.5,-9.92 630.5,-9.92 630.5,-4.96 635.46,0 640.42,0 640.42,0 714.58,0 714.58,0 719.54,0 724.5,-4.96 724.5,-9.92 724.5,-9.92 724.5,-19.83 724.5,-19.83 724.5,-24.79 719.54,-29.75 714.58,-29.75"/>
<text text-anchor="middle" x="677.5" y="-10.55" font-family="Fira Code" font-size="16.00" fill="#ffffff">envtrace</text>
</g>
<!-- packages/monocle/trace.js&#45;&gt;envtrace -->
<g id="edge6" class="edge">
<title>packages/monocle/trace.js&#45;&gt;envtrace</title>
<path fill="none" stroke="#888888" d="M594.97,-14.88C603.14,-14.88 611.11,-14.88 618.66,-14.88"/>
<polygon fill="#888888" stroke="#888888" points="618.65,-18.38 628.65,-14.88 618.65,-11.38 618.65,-18.38"/>
</g>
<!-- packages/monocle/package.json -->
<g id="node8" class="node">
<title>packages/monocle/package.json</title>
<path fill="none" stroke="#00cc00" d="M288.83,-293.75C288.83,-293.75 9.92,-293.75 9.92,-293.75 4.96,-293.75 0,-288.79 0,-283.83 0,-283.83 0,-273.92 0,-273.92 0,-268.96 4.96,-264 9.92,-264 9.92,-264 288.83,-264 288.83,-264 293.79,-264 298.75,-268.96 298.75,-273.92 298.75,-273.92 298.75,-283.83 298.75,-283.83 298.75,-288.79 293.79,-293.75 288.83,-293.75"/>
<text text-anchor="middle" x="149.38" y="-274.55" font-family="Fira Code" font-size="16.00" fill="#ffffff">packages/monocle/package.json</text>
</g>
<!-- packages/monocle/config.js -->
<g id="node10" class="node">
<title>packages/monocle/config.js</title>
<path fill="none" stroke="#00cc00" d="M274.21,-341.75C274.21,-341.75 24.54,-341.75 24.54,-341.75 19.58,-341.75 14.62,-336.79 14.62,-331.83 14.62,-331.83 14.62,-321.92 14.62,-321.92 14.62,-316.96 19.58,-312 24.54,-312 24.54,-312 274.21,-312 274.21,-312 279.17,-312 284.12,-316.96 284.12,-321.92 284.12,-321.92 284.12,-331.83 284.12,-331.83 284.12,-336.79 279.17,-341.75 274.21,-341.75"/>
<text text-anchor="middle" x="149.38" y="-322.55" font-family="Fira Code" font-size="16.00" fill="#ffffff">packages/monocle/config.js</text>
</g>
<!-- climate&#45;toml -->
<g id="node11" class="node">
<title>climate&#45;toml</title>
<path fill="none" stroke="#ffffff" d="M205.96,-245.75C205.96,-245.75 92.79,-245.75 92.79,-245.75 87.83,-245.75 82.88,-240.79 82.88,-235.83 82.88,-235.83 82.88,-225.92 82.88,-225.92 82.88,-220.96 87.83,-216 92.79,-216 92.79,-216 205.96,-216 205.96,-216 210.92,-216 215.88,-220.96 215.88,-225.92 215.88,-225.92 215.88,-235.83 215.88,-235.83 215.88,-240.79 210.92,-245.75 205.96,-245.75"/>
<text text-anchor="middle" x="149.38" y="-226.55" font-family="Fira Code" font-size="16.00" fill="#ffffff">climate&#45;toml</text>
</g>
<!-- climate&#45;toml&#45;&gt;ramda -->
<g id="edge7" class="edge">
<title>climate&#45;toml&#45;&gt;ramda</title>
<path fill="none" stroke="#888888" d="M216.04,-225.84C277.59,-221.13 367.81,-214.22 420.65,-210.17"/>
<polygon fill="#888888" stroke="#888888" points="420.75,-213.67 430.46,-209.42 420.22,-206.69 420.75,-213.67"/>
</g>
<!-- climate&#45;json -->
<g id="node12" class="node">
<title>climate&#45;json</title>
<path fill="none" stroke="#ffffff" d="M205.96,-197.75C205.96,-197.75 92.79,-197.75 92.79,-197.75 87.83,-197.75 82.88,-192.79 82.88,-187.83 82.88,-187.83 82.88,-177.92 82.88,-177.92 82.88,-172.96 87.83,-168 92.79,-168 92.79,-168 205.96,-168 205.96,-168 210.92,-168 215.88,-172.96 215.88,-177.92 215.88,-177.92 215.88,-187.83 215.88,-187.83 215.88,-192.79 210.92,-197.75 205.96,-197.75"/>
<text text-anchor="middle" x="149.38" y="-178.55" font-family="Fira Code" font-size="16.00" fill="#ffffff">climate&#45;json</text>
</g>
<!-- climate&#45;json&#45;&gt;ramda -->
<g id="edge8" class="edge">
<title>climate&#45;json&#45;&gt;ramda</title>
<path fill="none" stroke="#888888" d="M216.04,-187.91C277.59,-192.62 367.81,-199.53 420.65,-203.58"/>
<polygon fill="#888888" stroke="#888888" points="420.22,-207.06 430.46,-204.33 420.75,-200.08 420.22,-207.06"/>
</g>
</g>
</svg>
