<?xml version="1.0" encoding="UTF-8" standalone="no"?>
<!DOCTYPE svg PUBLIC "-//W3C//DTD SVG 1.1//EN"
 "http://www.w3.org/Graphics/SVG/1.1/DTD/svg11.dtd">
<!-- Generated by graphviz version 9.0.0 (20230911.1827)
 -->
<!-- Title: G Pages: 1 -->
<svg width="1150pt" height="417pt"
 viewBox="0.00 0.00 1150.45 417.21" xmlns="http://www.w3.org/2000/svg" xmlns:xlink="http://www.w3.org/1999/xlink">
<g id="graph0" class="graph" transform="scale(1 1) rotate(0) translate(21.6 395.61)">
<title>G</title>
<polygon fill="#111111" stroke="none" points="-21.6,21.6 -21.6,-395.61 1128.85,-395.61 1128.85,21.6 -21.6,21.6"/>
<!-- bloodline.js -->
<g id="node1" class="node">
<title>bloodline.js</title>
<path fill="none" stroke="#c6c5fe" d="M171.58,-225.75C171.58,-225.75 103.92,-225.75 103.92,-225.75 99.96,-225.75 96,-221.79 96,-217.83 96,-217.83 96,-209.92 96,-209.92 96,-205.96 99.96,-202 103.92,-202 103.92,-202 171.58,-202 171.58,-202 175.54,-202 179.5,-205.96 179.5,-209.92 179.5,-209.92 179.5,-217.83 179.5,-217.83 179.5,-221.79 175.54,-225.75 171.58,-225.75"/>
<text text-anchor="middle" x="137.75" y="-208.45" font-family="Arial" font-size="14.00" fill="#c6c5fe">bloodline.js</text>
</g>
<!-- ../../node_modules/file&#45;system/file&#45;system.js -->
<g id="node2" class="node">
<title>../../node_modules/file&#45;system/file&#45;system.js</title>
<path fill="none" stroke="#cfffac" d="M492.83,-183.75C492.83,-183.75 229.42,-183.75 229.42,-183.75 225.46,-183.75 221.5,-179.79 221.5,-175.83 221.5,-175.83 221.5,-167.92 221.5,-167.92 221.5,-163.96 225.46,-160 229.42,-160 229.42,-160 492.83,-160 492.83,-160 496.79,-160 500.75,-163.96 500.75,-167.92 500.75,-167.92 500.75,-175.83 500.75,-175.83 500.75,-179.79 496.79,-183.75 492.83,-183.75"/>
<text text-anchor="middle" x="361.12" y="-166.45" font-family="Arial" font-size="14.00" fill="#cfffac">../../node_modules/file&#45;system/file&#45;system.js</text>
</g>
<!-- bloodline.js&#45;&gt;../../node_modules/file&#45;system/file&#45;system.js -->
<g id="edge1" class="edge">
<title>bloodline.js&#45;&gt;../../node_modules/file&#45;system/file&#45;system.js</title>
<path fill="none" stroke="#757575" d="M179.82,-202.61C193.06,-199.2 207.84,-195.64 221.5,-192.88 233.59,-190.43 246.32,-188.13 258.97,-186.02"/>
<polygon fill="#757575" stroke="#757575" points="259.24,-189.52 268.55,-184.45 258.11,-182.61 259.24,-189.52"/>
</g>
<!-- ../../node_modules/ramda/src/index.js -->
<g id="node3" class="node">
<title>../../node_modules/ramda/src/index.js</title>
<path fill="none" stroke="#cfffac" d="M790.83,-353.75C790.83,-353.75 564.92,-353.75 564.92,-353.75 560.96,-353.75 557,-349.79 557,-345.83 557,-345.83 557,-337.92 557,-337.92 557,-333.96 560.96,-330 564.92,-330 564.92,-330 790.83,-330 790.83,-330 794.79,-330 798.75,-333.96 798.75,-337.92 798.75,-337.92 798.75,-345.83 798.75,-345.83 798.75,-349.79 794.79,-353.75 790.83,-353.75"/>
<text text-anchor="middle" x="677.88" y="-336.45" font-family="Arial" font-size="14.00" fill="#cfffac">../../node_modules/ramda/src/index.js</text>
</g>
<!-- bloodline.js&#45;&gt;../../node_modules/ramda/src/index.js -->
<g id="edge2" class="edge">
<title>bloodline.js&#45;&gt;../../node_modules/ramda/src/index.js</title>
<path fill="none" stroke="#757575" d="M144.41,-225.95C155.57,-248.17 182.73,-295.09 221.5,-314.88 276.12,-342.74 431.26,-346.78 545.35,-345.61"/>
<polygon fill="#757575" stroke="#757575" points="545.13,-349.12 555.09,-345.5 545.05,-342.12 545.13,-349.12"/>
</g>
<!-- constants.js -->
<g id="node4" class="node">
<title>constants.js</title>
<path fill="none" stroke="#cfffac" d="M713.58,-143.75C713.58,-143.75 642.17,-143.75 642.17,-143.75 638.21,-143.75 634.25,-139.79 634.25,-135.83 634.25,-135.83 634.25,-127.92 634.25,-127.92 634.25,-123.96 638.21,-120 642.17,-120 642.17,-120 713.58,-120 713.58,-120 717.54,-120 721.5,-123.96 721.5,-127.92 721.5,-127.92 721.5,-135.83 721.5,-135.83 721.5,-139.79 717.54,-143.75 713.58,-143.75"/>
<text text-anchor="middle" x="677.88" y="-126.45" font-family="Arial" font-size="14.00" fill="#cfffac">constants.js</text>
</g>
<!-- bloodline.js&#45;&gt;constants.js -->
<g id="edge3" class="edge">
<title>bloodline.js&#45;&gt;constants.js</title>
<path fill="none" stroke="#757575" d="M149.94,-201.64C164.66,-186.52 192.12,-161.47 221.5,-150.88 358.98,-101.28 535.13,-113.36 622.58,-123.94"/>
<polygon fill="#757575" stroke="#757575" points="621.95,-127.38 632.31,-125.16 622.83,-120.44 621.95,-127.38"/>
</g>
<!-- log.js -->
<g id="node5" class="node">
<title>log.js</title>
<path fill="none" stroke="#c6c5fe" d="M696.96,-269.75C696.96,-269.75 658.79,-269.75 658.79,-269.75 654.83,-269.75 650.88,-265.79 650.88,-261.83 650.88,-261.83 650.88,-253.92 650.88,-253.92 650.88,-249.96 654.83,-246 658.79,-246 658.79,-246 696.96,-246 696.96,-246 700.92,-246 704.88,-249.96 704.88,-253.92 704.88,-253.92 704.88,-261.83 704.88,-261.83 704.88,-265.79 700.92,-269.75 696.96,-269.75"/>
<text text-anchor="middle" x="677.88" y="-252.45" font-family="Arial" font-size="14.00" fill="#c6c5fe">log.js</text>
</g>
<!-- bloodline.js&#45;&gt;log.js -->
<g id="edge4" class="edge">
<title>bloodline.js&#45;&gt;log.js</title>
<path fill="none" stroke="#757575" d="M179.67,-225.97C192.91,-229.42 207.72,-232.8 221.5,-234.88 375.25,-258.03 561.14,-259.19 639.34,-258.48"/>
<polygon fill="#757575" stroke="#757575" points="639.04,-261.98 649,-258.38 638.96,-254.98 639.04,-261.98"/>
</g>
<!-- tree.js -->
<g id="node6" class="node">
<title>tree.js</title>
<path fill="none" stroke="#c6c5fe" d="M380.21,-305.75C380.21,-305.75 342.04,-305.75 342.04,-305.75 338.08,-305.75 334.12,-301.79 334.12,-297.83 334.12,-297.83 334.12,-289.92 334.12,-289.92 334.12,-285.96 338.08,-282 342.04,-282 342.04,-282 380.21,-282 380.21,-282 384.17,-282 388.12,-285.96 388.12,-289.92 388.12,-289.92 388.12,-297.83 388.12,-297.83 388.12,-301.79 384.17,-305.75 380.21,-305.75"/>
<text text-anchor="middle" x="361.12" y="-288.45" font-family="Arial" font-size="14.00" fill="#c6c5fe">tree.js</text>
</g>
<!-- bloodline.js&#45;&gt;tree.js -->
<g id="edge5" class="edge">
<title>bloodline.js&#45;&gt;tree.js</title>
<path fill="none" stroke="#757575" d="M153.6,-226.18C169.42,-238.65 195.71,-257.52 221.5,-267.88 254.25,-281.03 294.07,-287.61 322.61,-290.85"/>
<polygon fill="#757575" stroke="#757575" points="321.91,-294.3 332.22,-291.85 322.63,-287.34 321.91,-294.3"/>
</g>
<!-- visualization.js -->
<g id="node7" class="node">
<title>visualization.js</title>
<path fill="none" stroke="#c6c5fe" d="M404.71,-225.75C404.71,-225.75 317.54,-225.75 317.54,-225.75 313.58,-225.75 309.62,-221.79 309.62,-217.83 309.62,-217.83 309.62,-209.92 309.62,-209.92 309.62,-205.96 313.58,-202 317.54,-202 317.54,-202 404.71,-202 404.71,-202 408.67,-202 412.62,-205.96 412.62,-209.92 412.62,-209.92 412.62,-217.83 412.62,-217.83 412.62,-221.79 408.67,-225.75 404.71,-225.75"/>
<text text-anchor="middle" x="361.12" y="-208.45" font-family="Arial" font-size="14.00" fill="#c6c5fe">visualization.js</text>
</g>
<!-- bloodline.js&#45;&gt;visualization.js -->
<g id="edge6" class="edge">
<title>bloodline.js&#45;&gt;visualization.js</title>
<path fill="none" stroke="#757575" d="M179.87,-213.88C213.07,-213.88 260.32,-213.88 298.11,-213.88"/>
<polygon fill="#757575" stroke="#757575" points="298,-217.38 308,-213.88 298,-210.38 298,-217.38"/>
</g>
<!-- ../../node_modules/envtrace/envtrace.js -->
<g id="node12" class="node">
<title>../../node_modules/envtrace/envtrace.js</title>
<path fill="none" stroke="#cfffac" d="M1099.33,-269.75C1099.33,-269.75 862.92,-269.75 862.92,-269.75 858.96,-269.75 855,-265.79 855,-261.83 855,-261.83 855,-253.92 855,-253.92 855,-249.96 858.96,-246 862.92,-246 862.92,-246 1099.33,-246 1099.33,-246 1103.29,-246 1107.25,-249.96 1107.25,-253.92 1107.25,-253.92 1107.25,-261.83 1107.25,-261.83 1107.25,-265.79 1103.29,-269.75 1099.33,-269.75"/>
<text text-anchor="middle" x="981.12" y="-252.45" font-family="Arial" font-size="14.00" fill="#cfffac">../../node_modules/envtrace/envtrace.js</text>
</g>
<!-- log.js&#45;&gt;../../node_modules/envtrace/envtrace.js -->
<g id="edge12" class="edge">
<title>log.js&#45;&gt;../../node_modules/envtrace/envtrace.js</title>
<path fill="none" stroke="#757575" d="M705.34,-257.88C736.64,-257.88 791.11,-257.88 843.33,-257.88"/>
<polygon fill="#757575" stroke="#757575" points="843.27,-261.38 853.27,-257.88 843.27,-254.38 843.27,-261.38"/>
</g>
<!-- tree.js&#45;&gt;../../node_modules/ramda/src/index.js -->
<g id="edge15" class="edge">
<title>tree.js&#45;&gt;../../node_modules/ramda/src/index.js</title>
<path fill="none" stroke="#757575" d="M388.45,-297.98C422.63,-303.31 484.13,-312.86 536.75,-320.88 551.62,-323.14 567.39,-325.52 582.77,-327.83"/>
<polygon fill="#757575" stroke="#757575" points="581.97,-331.25 592.38,-329.28 583.01,-324.33 581.97,-331.25"/>
</g>
<!-- tree.js&#45;&gt;log.js -->
<g id="edge16" class="edge">
<title>tree.js&#45;&gt;log.js</title>
<path fill="none" stroke="#757575" d="M388.42,-290.87C444.19,-284.49 574.54,-269.58 639.16,-262.19"/>
<polygon fill="#757575" stroke="#757575" points="639.39,-265.68 648.93,-261.07 638.6,-258.73 639.39,-265.68"/>
</g>
<!-- ../../node_modules/dependency&#45;tree/index.js -->
<g id="node13" class="node">
<title>../../node_modules/dependency&#45;tree/index.js</title>
<path fill="none" stroke="#cfffac" d="M811.08,-311.75C811.08,-311.75 544.67,-311.75 544.67,-311.75 540.71,-311.75 536.75,-307.79 536.75,-303.83 536.75,-303.83 536.75,-295.92 536.75,-295.92 536.75,-291.96 540.71,-288 544.67,-288 544.67,-288 811.08,-288 811.08,-288 815.04,-288 819,-291.96 819,-295.92 819,-295.92 819,-303.83 819,-303.83 819,-307.79 815.04,-311.75 811.08,-311.75"/>
<text text-anchor="middle" x="677.88" y="-294.45" font-family="Arial" font-size="14.00" fill="#cfffac">../../node_modules/dependency&#45;tree/index.js</text>
</g>
<!-- tree.js&#45;&gt;../../node_modules/dependency&#45;tree/index.js -->
<g id="edge13" class="edge">
<title>tree.js&#45;&gt;../../node_modules/dependency&#45;tree/index.js</title>
<path fill="none" stroke="#757575" d="M388.42,-294.38C419.18,-294.96 472.62,-295.98 525.21,-296.98"/>
<polygon fill="#757575" stroke="#757575" points="524.83,-300.48 534.89,-297.17 524.96,-293.48 524.83,-300.48"/>
</g>
<!-- ../../node_modules/inherent/inherent.js -->
<g id="node14" class="node">
<title>../../node_modules/inherent/inherent.js</title>
<path fill="none" stroke="#cfffac" d="M793.08,-227.75C793.08,-227.75 562.67,-227.75 562.67,-227.75 558.71,-227.75 554.75,-223.79 554.75,-219.83 554.75,-219.83 554.75,-211.92 554.75,-211.92 554.75,-207.96 558.71,-204 562.67,-204 562.67,-204 793.08,-204 793.08,-204 797.04,-204 801,-207.96 801,-211.92 801,-211.92 801,-219.83 801,-219.83 801,-223.79 797.04,-227.75 793.08,-227.75"/>
<text text-anchor="middle" x="677.88" y="-210.45" font-family="Arial" font-size="14.00" fill="#cfffac">../../node_modules/inherent/inherent.js</text>
</g>
<!-- tree.js&#45;&gt;../../node_modules/inherent/inherent.js -->
<g id="edge14" class="edge">
<title>tree.js&#45;&gt;../../node_modules/inherent/inherent.js</title>
<path fill="none" stroke="#757575" d="M388.36,-283.79C422.19,-271.14 483.06,-249.57 536.75,-236.88 547.06,-234.44 557.86,-232.23 568.7,-230.24"/>
<polygon fill="#757575" stroke="#757575" points="569.26,-233.69 578.5,-228.5 568.04,-226.8 569.26,-233.69"/>
</g>
<!-- visualization.js&#45;&gt;../../node_modules/ramda/src/index.js -->
<g id="edge19" class="edge">
<title>visualization.js&#45;&gt;../../node_modules/ramda/src/index.js</title>
<path fill="none" stroke="#757575" d="M406.49,-226.15C435.38,-235.65 472.75,-250.93 500.75,-272.88 521.74,-289.33 513.85,-307.21 536.75,-320.88 539.77,-322.68 542.89,-324.34 546.08,-325.88"/>
<polygon fill="#757575" stroke="#757575" points="544.58,-329.04 555.15,-329.78 547.35,-322.61 544.58,-329.04"/>
</g>
<!-- visualization.js&#45;&gt;constants.js -->
<g id="edge21" class="edge">
<title>visualization.js&#45;&gt;constants.js</title>
<path fill="none" stroke="#757575" d="M412.83,-214.34C440.28,-212.65 473.96,-207.31 500.75,-192.88 521.81,-181.53 515.68,-164.2 536.75,-152.88 562.91,-138.81 595.57,-133.34 622.77,-131.49"/>
<polygon fill="#757575" stroke="#757575" points="622.75,-134.99 632.55,-130.98 622.38,-128 622.75,-134.99"/>
</g>
<!-- visualization.js&#45;&gt;log.js -->
<g id="edge22" class="edge">
<title>visualization.js&#45;&gt;log.js</title>
<path fill="none" stroke="#757575" d="M413.04,-220.99C476.39,-229.85 583.07,-244.76 639.41,-252.64"/>
<polygon fill="#757575" stroke="#757575" points="638.75,-256.08 649.13,-254 639.71,-249.15 638.75,-256.08"/>
</g>
<!-- ../../node_modules/fluture/index.cjs -->
<g id="node9" class="node">
<title>../../node_modules/fluture/index.cjs</title>
<path fill="none" stroke="#cfffac" d="M782.58,-101.75C782.58,-101.75 573.17,-101.75 573.17,-101.75 569.21,-101.75 565.25,-97.79 565.25,-93.83 565.25,-93.83 565.25,-85.92 565.25,-85.92 565.25,-81.96 569.21,-78 573.17,-78 573.17,-78 782.58,-78 782.58,-78 786.54,-78 790.5,-81.96 790.5,-85.92 790.5,-85.92 790.5,-93.83 790.5,-93.83 790.5,-97.79 786.54,-101.75 782.58,-101.75"/>
<text text-anchor="middle" x="677.88" y="-84.45" font-family="Arial" font-size="14.00" fill="#cfffac">../../node_modules/fluture/index.cjs</text>
</g>
<!-- visualization.js&#45;&gt;../../node_modules/fluture/index.cjs -->
<g id="edge17" class="edge">
<title>visualization.js&#45;&gt;../../node_modules/fluture/index.cjs</title>
<path fill="none" stroke="#757575" d="M412.89,-217.59C441.36,-217.07 476.02,-211.82 500.75,-192.88 532.35,-168.67 505.14,-135.06 536.75,-110.88 542.33,-106.61 548.4,-103.03 554.8,-100.05"/>
<polygon fill="#757575" stroke="#757575" points="555.76,-103.44 563.68,-96.4 553.1,-96.96 555.76,-103.44"/>
</g>
<!-- visualization.js&#45;&gt;../../node_modules/inherent/inherent.js -->
<g id="edge18" class="edge">
<title>visualization.js&#45;&gt;../../node_modules/inherent/inherent.js</title>
<path fill="none" stroke="#757575" d="M413.04,-214.2C448.33,-214.42 497.04,-214.73 543.02,-215.02"/>
<polygon fill="#757575" stroke="#757575" points="542.8,-218.52 552.82,-215.09 542.84,-211.52 542.8,-218.52"/>
</g>
<!-- ../../node_modules/ts&#45;graphviz/lib/index.cjs -->
<g id="node15" class="node">
<title>../../node_modules/ts&#45;graphviz/lib/index.cjs</title>
<path fill="none" stroke="#cfffac" d="M805.46,-185.75C805.46,-185.75 550.29,-185.75 550.29,-185.75 546.33,-185.75 542.38,-181.79 542.38,-177.83 542.38,-177.83 542.38,-169.92 542.38,-169.92 542.38,-165.96 546.33,-162 550.29,-162 550.29,-162 805.46,-162 805.46,-162 809.42,-162 813.38,-165.96 813.38,-169.92 813.38,-169.92 813.38,-177.83 813.38,-177.83 813.38,-181.79 809.42,-185.75 805.46,-185.75"/>
<text text-anchor="middle" x="677.88" y="-168.45" font-family="Arial" font-size="14.00" fill="#cfffac">../../node_modules/ts&#45;graphviz/lib/index.cjs</text>
</g>
<!-- visualization.js&#45;&gt;../../node_modules/ts&#45;graphviz/lib/index.cjs -->
<g id="edge20" class="edge">
<title>visualization.js&#45;&gt;../../node_modules/ts&#45;graphviz/lib/index.cjs</title>
<path fill="none" stroke="#757575" d="M413.04,-207.4C454.95,-202.08 515.82,-194.34 568.53,-187.64"/>
<polygon fill="#757575" stroke="#757575" points="568.67,-191.15 578.15,-186.42 567.79,-184.21 568.67,-191.15"/>
</g>
<!-- cli.js -->
<g id="node8" class="node">
<title>cli.js</title>
<path fill="none" stroke="#c6c5fe" d="M46.08,-105.75C46.08,-105.75 7.92,-105.75 7.92,-105.75 3.96,-105.75 0,-101.79 0,-97.83 0,-97.83 0,-89.92 0,-89.92 0,-85.96 3.96,-82 7.92,-82 7.92,-82 46.08,-82 46.08,-82 50.04,-82 54,-85.96 54,-89.92 54,-89.92 54,-97.83 54,-97.83 54,-101.79 50.04,-105.75 46.08,-105.75"/>
<text text-anchor="middle" x="27" y="-88.45" font-family="Arial" font-size="14.00" fill="#c6c5fe">cli.js</text>
</g>
<!-- cli.js&#45;&gt;bloodline.js -->
<g id="edge9" class="edge">
<title>cli.js&#45;&gt;bloodline.js</title>
<path fill="none" stroke="#757575" d="M38.82,-105.82C57.29,-126.2 95.11,-167.93 117.97,-193.15"/>
<polygon fill="#757575" stroke="#757575" points="115.32,-195.44 124.63,-200.5 120.51,-190.74 115.32,-195.44"/>
</g>
<!-- cli.js&#45;&gt;../../node_modules/ramda/src/index.js -->
<g id="edge8" class="edge">
<title>cli.js&#45;&gt;../../node_modules/ramda/src/index.js</title>
<path fill="none" stroke="#757575" d="M31.3,-106.19C38.66,-132 58.27,-192.83 90,-234.88 135.73,-295.47 150.09,-318.13 221.5,-343.88 352.02,-390.94 517.59,-372.53 608.82,-356.31"/>
<polygon fill="#757575" stroke="#757575" points="609.41,-359.76 618.62,-354.51 608.15,-352.87 609.41,-359.76"/>
</g>
<!-- cli.js&#45;&gt;../../node_modules/fluture/index.cjs -->
<g id="edge7" class="edge">
<title>cli.js&#45;&gt;../../node_modules/fluture/index.cjs</title>
<path fill="none" stroke="#757575" d="M54.24,-93.71C137.13,-93.2 397.13,-91.6 553.72,-90.63"/>
<polygon fill="#757575" stroke="#757575" points="553.32,-94.14 563.3,-90.58 553.28,-87.14 553.32,-94.14"/>
</g>
<!-- config.js -->
<g id="node10" class="node">
<title>config.js</title>
<path fill="none" stroke="#cfffac" d="M162.58,-65.75C162.58,-65.75 112.92,-65.75 112.92,-65.75 108.96,-65.75 105,-61.79 105,-57.83 105,-57.83 105,-49.92 105,-49.92 105,-45.96 108.96,-42 112.92,-42 112.92,-42 162.58,-42 162.58,-42 166.54,-42 170.5,-45.96 170.5,-49.92 170.5,-49.92 170.5,-57.83 170.5,-57.83 170.5,-61.79 166.54,-65.75 162.58,-65.75"/>
<text text-anchor="middle" x="137.75" y="-48.45" font-family="Arial" font-size="14.00" fill="#cfffac">config.js</text>
</g>
<!-- cli.js&#45;&gt;config.js -->
<g id="edge10" class="edge">
<title>cli.js&#45;&gt;config.js</title>
<path fill="none" stroke="#757575" d="M54.33,-84.19C66.33,-79.78 80.84,-74.44 94.33,-69.48"/>
<polygon fill="#757575" stroke="#757575" points="95.25,-72.87 103.43,-66.13 92.84,-66.3 95.25,-72.87"/>
</g>
<!-- package.json -->
<g id="node11" class="node">
<title>package.json</title>
<path fill="none" stroke="#cfffac" d="M177.58,-23.75C177.58,-23.75 97.92,-23.75 97.92,-23.75 93.96,-23.75 90,-19.79 90,-15.83 90,-15.83 90,-7.92 90,-7.92 90,-3.96 93.96,0 97.92,0 97.92,0 177.58,0 177.58,0 181.54,0 185.5,-3.96 185.5,-7.92 185.5,-7.92 185.5,-15.83 185.5,-15.83 185.5,-19.79 181.54,-23.75 177.58,-23.75"/>
<text text-anchor="middle" x="137.75" y="-6.45" font-family="Arial" font-size="14.00" fill="#cfffac">package.json</text>
</g>
<!-- cli.js&#45;&gt;package.json -->
<g id="edge11" class="edge">
<title>cli.js&#45;&gt;package.json</title>
<path fill="none" stroke="#757575" d="M37.93,-81.8C49.38,-68.47 69.31,-47.02 90,-32.88 91.76,-31.67 93.61,-30.51 95.5,-29.39"/>
<polygon fill="#757575" stroke="#757575" points="96.74,-32.69 103.9,-24.88 93.44,-26.52 96.74,-32.69"/>
</g>
</g>
</svg>
