<?xml version="1.0" encoding="UTF-8" standalone="no"?>
<!DOCTYPE svg PUBLIC "-//W3C//DTD SVG 1.1//EN"
 "http://www.w3.org/Graphics/SVG/1.1/DTD/svg11.dtd">
<!-- Generated by graphviz version 9.0.0 (20230911.1827)
 -->
<!-- Title: G Pages: 1 -->
<svg width="491pt" height="192pt"
 viewBox="0.00 0.00 490.95 191.95" xmlns="http://www.w3.org/2000/svg" xmlns:xlink="http://www.w3.org/1999/xlink">
<g id="graph0" class="graph" transform="scale(1 1) rotate(0) translate(21.6 170.35)">
<title>G</title>
<polygon fill="#111111" stroke="none" points="-21.6,21.6 -21.6,-170.35 469.35,-170.35 469.35,21.6 -21.6,21.6"/>
<!-- bloodline.js -->
<g id="node1" class="node">
<title>bloodline.js</title>
<path fill="none" stroke="#c6c5fe" d="M171.58,-107.75C171.58,-107.75 103.92,-107.75 103.92,-107.75 99.96,-107.75 96,-103.79 96,-99.83 96,-99.83 96,-91.92 96,-91.92 96,-87.96 99.96,-84 103.92,-84 103.92,-84 171.58,-84 171.58,-84 175.54,-84 179.5,-87.96 179.5,-91.92 179.5,-91.92 179.5,-99.83 179.5,-99.83 179.5,-103.79 175.54,-107.75 171.58,-107.75"/>
<text text-anchor="middle" x="137.75" y="-90.45" font-family="Arial" font-size="14.00" fill="#c6c5fe">bloodline.js</text>
</g>
<!-- constants.js -->
<g id="node2" class="node">
<title>constants.js</title>
<path fill="none" stroke="#cfffac" d="M439.83,-148.75C439.83,-148.75 368.42,-148.75 368.42,-148.75 364.46,-148.75 360.5,-144.79 360.5,-140.83 360.5,-140.83 360.5,-132.92 360.5,-132.92 360.5,-128.96 364.46,-125 368.42,-125 368.42,-125 439.83,-125 439.83,-125 443.79,-125 447.75,-128.96 447.75,-132.92 447.75,-132.92 447.75,-140.83 447.75,-140.83 447.75,-144.79 443.79,-148.75 439.83,-148.75"/>
<text text-anchor="middle" x="404.12" y="-131.45" font-family="Arial" font-size="14.00" fill="#cfffac">constants.js</text>
</g>
<!-- bloodline.js&#45;&gt;constants.js -->
<g id="edge1" class="edge">
<title>bloodline.js&#45;&gt;constants.js</title>
<path fill="none" stroke="#757575" d="M157.2,-108.12C173.37,-118.08 197.93,-131.36 221.5,-136.88 263.47,-146.7 312.41,-146.03 348.9,-143.28"/>
<polygon fill="#757575" stroke="#757575" points="349.11,-146.77 358.78,-142.45 348.53,-139.8 349.11,-146.77"/>
</g>
<!-- log.js -->
<g id="node3" class="node">
<title>log.js</title>
<path fill="none" stroke="#cfffac" d="M423.21,-87.75C423.21,-87.75 385.04,-87.75 385.04,-87.75 381.08,-87.75 377.12,-83.79 377.12,-79.83 377.12,-79.83 377.12,-71.92 377.12,-71.92 377.12,-67.96 381.08,-64 385.04,-64 385.04,-64 423.21,-64 423.21,-64 427.17,-64 431.12,-67.96 431.12,-71.92 431.12,-71.92 431.12,-79.83 431.12,-79.83 431.12,-83.79 427.17,-87.75 423.21,-87.75"/>
<text text-anchor="middle" x="404.12" y="-70.45" font-family="Arial" font-size="14.00" fill="#cfffac">log.js</text>
</g>
<!-- bloodline.js&#45;&gt;log.js -->
<g id="edge2" class="edge">
<title>bloodline.js&#45;&gt;log.js</title>
<path fill="none" stroke="#757575" d="M179.77,-92.77C230.55,-88.93 316.33,-82.44 365.49,-78.72"/>
<polygon fill="#757575" stroke="#757575" points="365.65,-82.22 375.36,-77.98 365.12,-75.24 365.65,-82.22"/>
</g>
<!-- tree.js -->
<g id="node4" class="node">
<title>tree.js</title>
<path fill="none" stroke="#c6c5fe" d="M292.08,-47.75C292.08,-47.75 253.92,-47.75 253.92,-47.75 249.96,-47.75 246,-43.79 246,-39.83 246,-39.83 246,-31.92 246,-31.92 246,-27.96 249.96,-24 253.92,-24 253.92,-24 292.08,-24 292.08,-24 296.04,-24 300,-27.96 300,-31.92 300,-31.92 300,-39.83 300,-39.83 300,-43.79 296.04,-47.75 292.08,-47.75"/>
<text text-anchor="middle" x="273" y="-30.45" font-family="Arial" font-size="14.00" fill="#c6c5fe">tree.js</text>
</g>
<!-- bloodline.js&#45;&gt;tree.js -->
<g id="edge3" class="edge">
<title>bloodline.js&#45;&gt;tree.js</title>
<path fill="none" stroke="#757575" d="M165.95,-83.67C172.36,-80.79 179.17,-77.72 185.5,-74.88 201.86,-67.51 219.94,-59.36 235.33,-52.42"/>
<polygon fill="#757575" stroke="#757575" points="236.45,-55.76 244.12,-48.46 233.57,-49.38 236.45,-55.76"/>
</g>
<!-- visualization.js -->
<g id="node5" class="node">
<title>visualization.js</title>
<path fill="none" stroke="#c6c5fe" d="M316.58,-127.75C316.58,-127.75 229.42,-127.75 229.42,-127.75 225.46,-127.75 221.5,-123.79 221.5,-119.83 221.5,-119.83 221.5,-111.92 221.5,-111.92 221.5,-107.96 225.46,-104 229.42,-104 229.42,-104 316.58,-104 316.58,-104 320.54,-104 324.5,-107.96 324.5,-111.92 324.5,-111.92 324.5,-119.83 324.5,-119.83 324.5,-123.79 320.54,-127.75 316.58,-127.75"/>
<text text-anchor="middle" x="273" y="-110.45" font-family="Arial" font-size="14.00" fill="#c6c5fe">visualization.js</text>
</g>
<!-- bloodline.js&#45;&gt;visualization.js -->
<g id="edge4" class="edge">
<title>bloodline.js&#45;&gt;visualization.js</title>
<path fill="none" stroke="#757575" d="M179.82,-102.04C189.48,-103.49 199.98,-105.07 210.32,-106.62"/>
<polygon fill="#757575" stroke="#757575" points="209.53,-110.04 219.94,-108.06 210.57,-103.12 209.53,-110.04"/>
</g>
<!-- tree.js&#45;&gt;log.js -->
<g id="edge8" class="edge">
<title>tree.js&#45;&gt;log.js</title>
<path fill="none" stroke="#757575" d="M300.44,-44.07C319.33,-49.92 345,-57.87 365.95,-64.36"/>
<polygon fill="#757575" stroke="#757575" points="364.68,-67.63 375.27,-67.25 366.76,-60.94 364.68,-67.63"/>
</g>
<!-- visualization.js&#45;&gt;constants.js -->
<g id="edge9" class="edge">
<title>visualization.js&#45;&gt;constants.js</title>
<path fill="none" stroke="#757575" d="M324.66,-124.11C332.63,-125.41 340.9,-126.76 348.95,-128.06"/>
<polygon fill="#757575" stroke="#757575" points="348.2,-131.49 358.63,-129.64 349.32,-124.58 348.2,-131.49"/>
</g>
<!-- visualization.js&#45;&gt;log.js -->
<g id="edge10" class="edge">
<title>visualization.js&#45;&gt;log.js</title>
<path fill="none" stroke="#757575" d="M313.8,-103.55C330.41,-98.4 349.61,-92.45 365.94,-87.39"/>
<polygon fill="#757575" stroke="#757575" points="366.76,-90.81 375.27,-84.5 364.69,-84.12 366.76,-90.81"/>
</g>
<!-- cli.js -->
<g id="node6" class="node">
<title>cli.js</title>
<path fill="none" stroke="#c6c5fe" d="M46.08,-65.75C46.08,-65.75 7.92,-65.75 7.92,-65.75 3.96,-65.75 0,-61.79 0,-57.83 0,-57.83 0,-49.92 0,-49.92 0,-45.96 3.96,-42 7.92,-42 7.92,-42 46.08,-42 46.08,-42 50.04,-42 54,-45.96 54,-49.92 54,-49.92 54,-57.83 54,-57.83 54,-61.79 50.04,-65.75 46.08,-65.75"/>
<text text-anchor="middle" x="27" y="-48.45" font-family="Arial" font-size="14.00" fill="#c6c5fe">cli.js</text>
</g>
<!-- cli.js&#45;&gt;bloodline.js -->
<g id="edge5" class="edge">
<title>cli.js&#45;&gt;bloodline.js</title>
<path fill="none" stroke="#757575" d="M54.33,-64.04C66.33,-68.68 80.84,-74.28 94.33,-79.49"/>
<polygon fill="#757575" stroke="#757575" points="92.85,-82.67 103.44,-83.01 95.37,-76.14 92.85,-82.67"/>
</g>
<!-- config.js -->
<g id="node7" class="node">
<title>config.js</title>
<path fill="none" stroke="#cfffac" d="M162.58,-65.75C162.58,-65.75 112.92,-65.75 112.92,-65.75 108.96,-65.75 105,-61.79 105,-57.83 105,-57.83 105,-49.92 105,-49.92 105,-45.96 108.96,-42 112.92,-42 112.92,-42 162.58,-42 162.58,-42 166.54,-42 170.5,-45.96 170.5,-49.92 170.5,-49.92 170.5,-57.83 170.5,-57.83 170.5,-61.79 166.54,-65.75 162.58,-65.75"/>
<text text-anchor="middle" x="137.75" y="-48.45" font-family="Arial" font-size="14.00" fill="#cfffac">config.js</text>
</g>
<!-- cli.js&#45;&gt;config.js -->
<g id="edge6" class="edge">
<title>cli.js&#45;&gt;config.js</title>
<path fill="none" stroke="#757575" d="M54.33,-53.88C66.09,-53.88 80.27,-53.88 93.52,-53.88"/>
<polygon fill="#757575" stroke="#757575" points="93.34,-57.38 103.34,-53.88 93.34,-50.38 93.34,-57.38"/>
</g>
<!-- package.json -->
<g id="node8" class="node">
<title>package.json</title>
<path fill="none" stroke="#cfffac" d="M177.58,-23.75C177.58,-23.75 97.92,-23.75 97.92,-23.75 93.96,-23.75 90,-19.79 90,-15.83 90,-15.83 90,-7.92 90,-7.92 90,-3.96 93.96,0 97.92,0 97.92,0 177.58,0 177.58,0 181.54,0 185.5,-3.96 185.5,-7.92 185.5,-7.92 185.5,-15.83 185.5,-15.83 185.5,-19.79 181.54,-23.75 177.58,-23.75"/>
<text text-anchor="middle" x="137.75" y="-6.45" font-family="Arial" font-size="14.00" fill="#cfffac">package.json</text>
</g>
<!-- cli.js&#45;&gt;package.json -->
<g id="edge7" class="edge">
<title>cli.js&#45;&gt;package.json</title>
<path fill="none" stroke="#757575" d="M54.33,-43.71C66.33,-39.07 80.84,-33.47 94.33,-28.26"/>
<polygon fill="#757575" stroke="#757575" points="95.37,-31.61 103.44,-24.74 92.85,-25.08 95.37,-31.61"/>
</g>
</g>
</svg>
