<?xml version="1.0" encoding="UTF-8" standalone="no"?>
<!DOCTYPE svg PUBLIC "-//W3C//DTD SVG 1.1//EN"
 "http://www.w3.org/Graphics/SVG/1.1/DTD/svg11.dtd">
<!-- Generated by graphviz version 9.0.0 (20230911.1827)
 -->
<!-- Title: G Pages: 1 -->
<svg width="471pt" height="317pt"
 viewBox="0.00 0.00 471.45 317.38" xmlns="http://www.w3.org/2000/svg" xmlns:xlink="http://www.w3.org/1999/xlink">
<g id="graph0" class="graph" transform="scale(1 1) rotate(0) translate(21.6 295.78)">
<title>G</title>
<polygon fill="#111111" stroke="none" points="-21.6,21.6 -21.6,-295.78 449.85,-295.78 449.85,21.6 -21.6,21.6"/>
<!-- comment.js -->
<g id="node1" class="node">
<title>comment.js</title>
<path fill="none" stroke="#c6c5fe" d="M330.33,-259.75C330.33,-259.75 259.67,-259.75 259.67,-259.75 255.71,-259.75 251.75,-255.79 251.75,-251.83 251.75,-251.83 251.75,-243.92 251.75,-243.92 251.75,-239.96 255.71,-236 259.67,-236 259.67,-236 330.33,-236 330.33,-236 334.29,-236 338.25,-239.96 338.25,-243.92 338.25,-243.92 338.25,-251.83 338.25,-251.83 338.25,-255.79 334.29,-259.75 330.33,-259.75"/>
<text text-anchor="middle" x="295" y="-242.45" font-family="Arial" font-size="14.00" fill="#c6c5fe">comment.js</text>
</g>
<!-- file.js -->
<g id="node2" class="node">
<title>file.js</title>
<path fill="none" stroke="#cfffac" d="M420.33,-259.75C420.33,-259.75 382.17,-259.75 382.17,-259.75 378.21,-259.75 374.25,-255.79 374.25,-251.83 374.25,-251.83 374.25,-243.92 374.25,-243.92 374.25,-239.96 378.21,-236 382.17,-236 382.17,-236 420.33,-236 420.33,-236 424.29,-236 428.25,-239.96 428.25,-243.92 428.25,-243.92 428.25,-251.83 428.25,-251.83 428.25,-255.79 424.29,-259.75 420.33,-259.75"/>
<text text-anchor="middle" x="401.25" y="-242.45" font-family="Arial" font-size="14.00" fill="#cfffac">file.js</text>
</g>
<!-- comment.js&#45;&gt;file.js -->
<g id="edge1" class="edge">
<title>comment.js&#45;&gt;file.js</title>
<path fill="none" stroke="#757575" d="M338.7,-247.88C346.62,-247.88 354.84,-247.88 362.59,-247.88"/>
<polygon fill="#757575" stroke="#757575" points="362.39,-251.38 372.39,-247.88 362.39,-244.38 362.39,-251.38"/>
</g>
<!-- text.js -->
<g id="node3" class="node">
<title>text.js</title>
<path fill="none" stroke="#cfffac" d="M420.33,-162.75C420.33,-162.75 382.17,-162.75 382.17,-162.75 378.21,-162.75 374.25,-158.79 374.25,-154.83 374.25,-154.83 374.25,-146.92 374.25,-146.92 374.25,-142.96 378.21,-139 382.17,-139 382.17,-139 420.33,-139 420.33,-139 424.29,-139 428.25,-142.96 428.25,-146.92 428.25,-146.92 428.25,-154.83 428.25,-154.83 428.25,-158.79 424.29,-162.75 420.33,-162.75"/>
<text text-anchor="middle" x="401.25" y="-145.45" font-family="Arial" font-size="14.00" fill="#cfffac">text.js</text>
</g>
<!-- comment.js&#45;&gt;text.js -->
<g id="edge2" class="edge">
<title>comment.js&#45;&gt;text.js</title>
<path fill="none" stroke="#757575" d="M309.2,-235.59C326.75,-219.26 357.97,-190.22 378.89,-170.75"/>
<polygon fill="#757575" stroke="#757575" points="381.11,-173.47 386.05,-164.09 376.34,-168.34 381.11,-173.47"/>
</g>
<!-- doctor&#45;general.js -->
<g id="node4" class="node">
<title>doctor&#45;general.js</title>
<path fill="none" stroke="#c6c5fe" d="M108.58,-143.75C108.58,-143.75 7.92,-143.75 7.92,-143.75 3.96,-143.75 0,-139.79 0,-135.83 0,-135.83 0,-127.92 0,-127.92 0,-123.96 3.96,-120 7.92,-120 7.92,-120 108.58,-120 108.58,-120 112.54,-120 116.5,-123.96 116.5,-127.92 116.5,-127.92 116.5,-135.83 116.5,-135.83 116.5,-139.79 112.54,-143.75 108.58,-143.75"/>
<text text-anchor="middle" x="58.25" y="-126.45" font-family="Arial" font-size="14.00" fill="#c6c5fe">doctor&#45;general.js</text>
</g>
<!-- doctor&#45;general.js&#45;&gt;comment.js -->
<g id="edge3" class="edge">
<title>doctor&#45;general.js&#45;&gt;comment.js</title>
<path fill="none" stroke="#757575" d="M72.5,-144.09C89.76,-159.44 121.42,-185.73 152.5,-201.88 180.2,-216.27 213.28,-227.32 240.49,-234.98"/>
<polygon fill="#757575" stroke="#757575" points="239.34,-238.3 249.91,-237.56 241.19,-231.55 239.34,-238.3"/>
</g>
<!-- doctor&#45;general.js&#45;&gt;file.js -->
<g id="edge4" class="edge">
<title>doctor&#45;general.js&#45;&gt;file.js</title>
<path fill="none" stroke="#757575" d="M68.33,-144.04C83.71,-163.93 116.73,-203.62 152.5,-227.88 192,-254.66 204.94,-259.59 251.75,-268.88 289.46,-276.36 300.32,-275.12 338.25,-268.88 346.5,-267.52 355.13,-265.2 363.23,-262.6"/>
<polygon fill="#757575" stroke="#757575" points="364.14,-265.99 372.45,-259.42 361.86,-259.37 364.14,-265.99"/>
</g>
<!-- doctor&#45;general.js&#45;&gt;text.js -->
<g id="edge9" class="edge">
<title>doctor&#45;general.js&#45;&gt;text.js</title>
<path fill="none" stroke="#757575" d="M116.71,-135.08C186.68,-138.97 302.86,-145.45 362.45,-148.77"/>
<polygon fill="#757575" stroke="#757575" points="362.24,-152.26 372.42,-149.32 362.63,-145.27 362.24,-152.26"/>
</g>
<!-- parse.js -->
<g id="node5" class="node">
<title>parse.js</title>
<path fill="none" stroke="#c6c5fe" d="M207.83,-192.75C207.83,-192.75 160.42,-192.75 160.42,-192.75 156.46,-192.75 152.5,-188.79 152.5,-184.83 152.5,-184.83 152.5,-176.92 152.5,-176.92 152.5,-172.96 156.46,-169 160.42,-169 160.42,-169 207.83,-169 207.83,-169 211.79,-169 215.75,-172.96 215.75,-176.92 215.75,-176.92 215.75,-184.83 215.75,-184.83 215.75,-188.79 211.79,-192.75 207.83,-192.75"/>
<text text-anchor="middle" x="184.12" y="-175.45" font-family="Arial" font-size="14.00" fill="#c6c5fe">parse.js</text>
</g>
<!-- doctor&#45;general.js&#45;&gt;parse.js -->
<g id="edge5" class="edge">
<title>doctor&#45;general.js&#45;&gt;parse.js</title>
<path fill="none" stroke="#757575" d="M90.51,-144.24C106.03,-150.38 124.99,-157.88 141.71,-164.49"/>
<polygon fill="#757575" stroke="#757575" points="140.31,-167.7 150.9,-168.13 142.89,-161.19 140.31,-167.7"/>
</g>
<!-- renderer.js -->
<g id="node6" class="node">
<title>renderer.js</title>
<path fill="none" stroke="#c6c5fe" d="M326.96,-103.75C326.96,-103.75 263.04,-103.75 263.04,-103.75 259.08,-103.75 255.12,-99.79 255.12,-95.83 255.12,-95.83 255.12,-87.92 255.12,-87.92 255.12,-83.96 259.08,-80 263.04,-80 263.04,-80 326.96,-80 326.96,-80 330.92,-80 334.88,-83.96 334.88,-87.92 334.88,-87.92 334.88,-95.83 334.88,-95.83 334.88,-99.79 330.92,-103.75 326.96,-103.75"/>
<text text-anchor="middle" x="295" y="-86.45" font-family="Arial" font-size="14.00" fill="#c6c5fe">renderer.js</text>
</g>
<!-- doctor&#45;general.js&#45;&gt;renderer.js -->
<g id="edge6" class="edge">
<title>doctor&#45;general.js&#45;&gt;renderer.js</title>
<path fill="none" stroke="#757575" d="M116.98,-122.04C155.85,-115.41 206.62,-106.76 243.82,-100.43"/>
<polygon fill="#757575" stroke="#757575" points="244.13,-103.92 253.4,-98.79 242.96,-97.02 244.13,-103.92"/>
</g>
<!-- stats.js -->
<g id="node7" class="node">
<title>stats.js</title>
<path fill="none" stroke="#cfffac" d="M205.21,-65.75C205.21,-65.75 163.04,-65.75 163.04,-65.75 159.08,-65.75 155.12,-61.79 155.12,-57.83 155.12,-57.83 155.12,-49.92 155.12,-49.92 155.12,-45.96 159.08,-42 163.04,-42 163.04,-42 205.21,-42 205.21,-42 209.17,-42 213.12,-45.96 213.12,-49.92 213.12,-49.92 213.12,-57.83 213.12,-57.83 213.12,-61.79 209.17,-65.75 205.21,-65.75"/>
<text text-anchor="middle" x="184.12" y="-48.45" font-family="Arial" font-size="14.00" fill="#cfffac">stats.js</text>
</g>
<!-- doctor&#45;general.js&#45;&gt;stats.js -->
<g id="edge7" class="edge">
<title>doctor&#45;general.js&#45;&gt;stats.js</title>
<path fill="none" stroke="#757575" d="M78.88,-119.52C99.08,-106.79 130.8,-86.83 153.94,-72.25"/>
<polygon fill="#757575" stroke="#757575" points="155.71,-75.27 162.31,-66.98 151.98,-69.35 155.71,-75.27"/>
</g>
<!-- string.js -->
<g id="node8" class="node">
<title>string.js</title>
<path fill="none" stroke="#cfffac" d="M207.46,-23.75C207.46,-23.75 160.79,-23.75 160.79,-23.75 156.83,-23.75 152.88,-19.79 152.88,-15.83 152.88,-15.83 152.88,-7.92 152.88,-7.92 152.88,-3.96 156.83,0 160.79,0 160.79,0 207.46,0 207.46,0 211.42,0 215.38,-3.96 215.38,-7.92 215.38,-7.92 215.38,-15.83 215.38,-15.83 215.38,-19.79 211.42,-23.75 207.46,-23.75"/>
<text text-anchor="middle" x="184.12" y="-6.45" font-family="Arial" font-size="14.00" fill="#cfffac">string.js</text>
</g>
<!-- doctor&#45;general.js&#45;&gt;string.js -->
<g id="edge8" class="edge">
<title>doctor&#45;general.js&#45;&gt;string.js</title>
<path fill="none" stroke="#757575" d="M69.13,-119.81C85.4,-100.34 119.32,-61.29 152.5,-32.88 153.27,-32.21 154.06,-31.56 154.87,-30.9"/>
<polygon fill="#757575" stroke="#757575" points="156.76,-33.86 162.66,-25.06 152.56,-28.26 156.76,-33.86"/>
</g>
<!-- parse.js&#45;&gt;comment.js -->
<g id="edge10" class="edge">
<title>parse.js&#45;&gt;comment.js</title>
<path fill="none" stroke="#757575" d="M205.09,-193.16C221.75,-203.41 245.71,-218.16 264.56,-229.76"/>
<polygon fill="#757575" stroke="#757575" points="262.52,-232.61 272.87,-234.87 266.19,-226.65 262.52,-232.61"/>
</g>
<!-- parse.js&#45;&gt;file.js -->
<g id="edge11" class="edge">
<title>parse.js&#45;&gt;file.js</title>
<path fill="none" stroke="#757575" d="M216.02,-189.81C247.01,-198.86 296.08,-213.4 338.25,-226.88 346.29,-229.44 354.88,-232.29 363.03,-235.03"/>
<polygon fill="#757575" stroke="#757575" points="361.74,-238.29 372.33,-238.19 363.99,-231.66 361.74,-238.29"/>
</g>
<!-- parse.js&#45;&gt;text.js -->
<g id="edge12" class="edge">
<title>parse.js&#45;&gt;text.js</title>
<path fill="none" stroke="#757575" d="M215.95,-176.58C254.63,-171.18 320.93,-161.94 362.58,-156.13"/>
<polygon fill="#757575" stroke="#757575" points="362.96,-159.61 372.38,-154.76 362,-152.68 362.96,-159.61"/>
</g>
<!-- renderer.js&#45;&gt;text.js -->
<g id="edge13" class="edge">
<title>renderer.js&#45;&gt;text.js</title>
<path fill="none" stroke="#757575" d="M317.85,-104.24C332.59,-112.58 352.26,-123.72 368.69,-133.01"/>
<polygon fill="#757575" stroke="#757575" points="366.68,-135.9 377.11,-137.78 370.13,-129.81 366.68,-135.9"/>
</g>
</g>
</svg>
