<?xml version="1.0" encoding="UTF-8" standalone="no"?>
<!DOCTYPE svg PUBLIC "-//W3C//DTD SVG 1.1//EN"
 "http://www.w3.org/Graphics/SVG/1.1/DTD/svg11.dtd">
<!-- Generated by graphviz version 9.0.0 (20230911.1827)
 -->
<!-- Title: G Pages: 1 -->
<svg width="946pt" height="651pt"
 viewBox="0.00 0.00 946.20 651.50" xmlns="http://www.w3.org/2000/svg" xmlns:xlink="http://www.w3.org/1999/xlink">
<g id="graph0" class="graph" transform="scale(1 1) rotate(0) translate(21.6 629.9)">
<title>G</title>
<polygon fill="#111111" stroke="none" points="-21.6,21.6 -21.6,-629.9 924.6,-629.9 924.6,21.6 -21.6,21.6"/>
<!-- comment&#45;documentation.js -->
<g id="node1" class="node">
<title>comment&#45;documentation.js</title>
<path fill="none" stroke="#c6c5fe" d="M681.83,-466.17C681.83,-466.17 517.42,-466.17 517.42,-466.17 513.46,-466.17 509.5,-462.21 509.5,-458.26 509.5,-458.26 509.5,-450.34 509.5,-450.34 509.5,-446.38 513.46,-442.42 517.42,-442.42 517.42,-442.42 681.83,-442.42 681.83,-442.42 685.79,-442.42 689.75,-446.38 689.75,-450.34 689.75,-450.34 689.75,-458.26 689.75,-458.26 689.75,-462.21 685.79,-466.17 681.83,-466.17"/>
<text text-anchor="middle" x="599.62" y="-448.87" font-family="Arial" font-size="14.00" fill="#c6c5fe">comment&#45;documentation.js</text>
</g>
<!-- file.js -->
<g id="node2" class="node">
<title>file.js</title>
<path fill="none" stroke="#c6c5fe" d="M788.46,-426.17C788.46,-426.17 750.29,-426.17 750.29,-426.17 746.33,-426.17 742.38,-422.21 742.38,-418.26 742.38,-418.26 742.38,-410.34 742.38,-410.34 742.38,-406.38 746.33,-402.42 750.29,-402.42 750.29,-402.42 788.46,-402.42 788.46,-402.42 792.42,-402.42 796.38,-406.38 796.38,-410.34 796.38,-410.34 796.38,-418.26 796.38,-418.26 796.38,-422.21 792.42,-426.17 788.46,-426.17"/>
<text text-anchor="middle" x="769.38" y="-408.87" font-family="Arial" font-size="14.00" fill="#c6c5fe">file.js</text>
</g>
<!-- comment&#45;documentation.js&#45;&gt;file.js -->
<g id="edge1" class="edge">
<title>comment&#45;documentation.js&#45;&gt;file.js</title>
<path fill="none" stroke="#757575" d="M652.32,-441.97C677.69,-435.92 707.68,-428.77 730.82,-423.25"/>
<polygon fill="#757575" stroke="#757575" points="731.52,-426.68 740.44,-420.96 729.9,-419.88 731.52,-426.68"/>
</g>
<!-- text.js -->
<g id="node3" class="node">
<title>text.js</title>
<path fill="none" stroke="#cfffac" d="M895.08,-426.17C895.08,-426.17 856.92,-426.17 856.92,-426.17 852.96,-426.17 849,-422.21 849,-418.26 849,-418.26 849,-410.34 849,-410.34 849,-406.38 852.96,-402.42 856.92,-402.42 856.92,-402.42 895.08,-402.42 895.08,-402.42 899.04,-402.42 903,-406.38 903,-410.34 903,-410.34 903,-418.26 903,-418.26 903,-422.21 899.04,-426.17 895.08,-426.17"/>
<text text-anchor="middle" x="876" y="-408.87" font-family="Arial" font-size="14.00" fill="#cfffac">text.js</text>
</g>
<!-- comment&#45;documentation.js&#45;&gt;text.js -->
<g id="edge2" class="edge">
<title>comment&#45;documentation.js&#45;&gt;text.js</title>
<path fill="none" stroke="#757575" d="M690.19,-451.01C728.34,-448.39 773.16,-443.7 813,-435.3 821.18,-433.57 829.78,-431.1 837.88,-428.46"/>
<polygon fill="#757575" stroke="#757575" points="838.78,-431.86 847.1,-425.3 836.51,-425.23 838.78,-431.86"/>
</g>
<!-- file.js&#45;&gt;text.js -->
<g id="edge30" class="edge">
<title>file.js&#45;&gt;text.js</title>
<path fill="none" stroke="#757575" d="M796.78,-414.3C809.04,-414.3 823.85,-414.3 837.27,-414.3"/>
<polygon fill="#757575" stroke="#757575" points="837.09,-417.8 847.09,-414.3 837.09,-410.8 837.09,-417.8"/>
</g>
<!-- comment&#45;test.js -->
<g id="node4" class="node">
<title>comment&#45;test.js</title>
<path fill="none" stroke="#c6c5fe" d="M648.08,-344.17C648.08,-344.17 551.17,-344.17 551.17,-344.17 547.21,-344.17 543.25,-340.21 543.25,-336.26 543.25,-336.26 543.25,-328.34 543.25,-328.34 543.25,-324.38 547.21,-320.42 551.17,-320.42 551.17,-320.42 648.08,-320.42 648.08,-320.42 652.04,-320.42 656,-324.38 656,-328.34 656,-328.34 656,-336.26 656,-336.26 656,-340.21 652.04,-344.17 648.08,-344.17"/>
<text text-anchor="middle" x="599.62" y="-326.87" font-family="Arial" font-size="14.00" fill="#c6c5fe">comment&#45;test.js</text>
</g>
<!-- comment&#45;test.js&#45;&gt;file.js -->
<g id="edge4" class="edge">
<title>comment&#45;test.js&#45;&gt;file.js</title>
<path fill="none" stroke="#757575" d="M656.09,-341.48C667.53,-344.44 679.28,-348.3 689.75,-353.3 711.44,-363.66 732.78,-380.77 747.74,-394.24"/>
<polygon fill="#757575" stroke="#757575" points="745.35,-396.8 755.06,-401.04 750.11,-391.67 745.35,-396.8"/>
</g>
<!-- comment&#45;test.js&#45;&gt;text.js -->
<g id="edge5" class="edge">
<title>comment&#45;test.js&#45;&gt;text.js</title>
<path fill="none" stroke="#757575" d="M656.25,-338.48C700,-344.59 761.89,-356.06 813,-376.3 825.45,-381.23 838.23,-388.6 848.93,-395.54"/>
<polygon fill="#757575" stroke="#757575" points="846.97,-398.44 857.21,-401.12 850.88,-392.63 846.97,-398.44"/>
</g>
<!-- constants.js -->
<g id="node5" class="node">
<title>constants.js</title>
<path fill="none" stroke="#cfffac" d="M805.08,-281.17C805.08,-281.17 733.67,-281.17 733.67,-281.17 729.71,-281.17 725.75,-277.21 725.75,-273.26 725.75,-273.26 725.75,-265.34 725.75,-265.34 725.75,-261.38 729.71,-257.42 733.67,-257.42 733.67,-257.42 805.08,-257.42 805.08,-257.42 809.04,-257.42 813,-261.38 813,-265.34 813,-265.34 813,-273.26 813,-273.26 813,-277.21 809.04,-281.17 805.08,-281.17"/>
<text text-anchor="middle" x="769.38" y="-263.87" font-family="Arial" font-size="14.00" fill="#cfffac">constants.js</text>
</g>
<!-- comment&#45;test.js&#45;&gt;constants.js -->
<g id="edge3" class="edge">
<title>comment&#45;test.js&#45;&gt;constants.js</title>
<path fill="none" stroke="#757575" d="M656.44,-321.49C667.63,-318.68 679.19,-315.28 689.75,-311.3 706.64,-304.92 724.47,-295.63 738.87,-287.41"/>
<polygon fill="#757575" stroke="#757575" points="740.52,-290.5 747.38,-282.43 736.98,-284.46 740.52,-290.5"/>
</g>
<!-- comment.js -->
<g id="node6" class="node">
<title>comment.js</title>
<path fill="none" stroke="#c6c5fe" d="M465.58,-302.17C465.58,-302.17 394.92,-302.17 394.92,-302.17 390.96,-302.17 387,-298.21 387,-294.26 387,-294.26 387,-286.34 387,-286.34 387,-282.38 390.96,-278.42 394.92,-278.42 394.92,-278.42 465.58,-278.42 465.58,-278.42 469.54,-278.42 473.5,-282.38 473.5,-286.34 473.5,-286.34 473.5,-294.26 473.5,-294.26 473.5,-298.21 469.54,-302.17 465.58,-302.17"/>
<text text-anchor="middle" x="430.25" y="-284.87" font-family="Arial" font-size="14.00" fill="#c6c5fe">comment.js</text>
</g>
<!-- comment.js&#45;&gt;comment&#45;documentation.js -->
<g id="edge6" class="edge">
<title>comment.js&#45;&gt;comment&#45;documentation.js</title>
<path fill="none" stroke="#757575" d="M434.64,-302.31C442.84,-329.12 466.3,-394.12 509.5,-428.3 513.78,-431.68 518.48,-434.63 523.43,-437.19"/>
<polygon fill="#757575" stroke="#757575" points="521.92,-440.35 532.47,-441.3 524.81,-433.98 521.92,-440.35"/>
</g>
<!-- comment.js&#45;&gt;file.js -->
<g id="edge8" class="edge">
<title>comment.js&#45;&gt;file.js</title>
<path fill="none" stroke="#757575" d="M436.15,-302.41C446.09,-325.23 471.03,-374.19 509.5,-395.3 580.02,-433.99 678.06,-427.96 730.95,-420.77"/>
<polygon fill="#757575" stroke="#757575" points="731.26,-424.26 740.65,-419.35 730.25,-417.33 731.26,-424.26"/>
</g>
<!-- comment.js&#45;&gt;text.js -->
<g id="edge13" class="edge">
<title>comment.js&#45;&gt;text.js</title>
<path fill="none" stroke="#757575" d="M441.38,-278.15C455.02,-262.87 480.88,-237.39 509.5,-227.3 637.02,-182.34 708.81,-162.12 813,-248.3 856.47,-284.25 869.48,-353.88 873.36,-390.48"/>
<polygon fill="#757575" stroke="#757575" points="869.87,-390.79 874.25,-400.44 876.84,-390.16 869.87,-390.79"/>
</g>
<!-- comment.js&#45;&gt;comment&#45;test.js -->
<g id="edge7" class="edge">
<title>comment.js&#45;&gt;comment&#45;test.js</title>
<path fill="none" stroke="#757575" d="M473.83,-301.98C485.38,-305.08 497.91,-308.38 509.5,-311.3 517.54,-313.32 526,-315.39 534.38,-317.41"/>
<polygon fill="#757575" stroke="#757575" points="533.29,-320.75 543.83,-319.67 534.92,-313.94 533.29,-320.75"/>
</g>
<!-- log.js -->
<g id="node7" class="node">
<title>log.js</title>
<path fill="none" stroke="#cfffac" d="M618.71,-142.17C618.71,-142.17 580.54,-142.17 580.54,-142.17 576.58,-142.17 572.62,-138.21 572.62,-134.26 572.62,-134.26 572.62,-126.34 572.62,-126.34 572.62,-122.38 576.58,-118.42 580.54,-118.42 580.54,-118.42 618.71,-118.42 618.71,-118.42 622.67,-118.42 626.62,-122.38 626.62,-126.34 626.62,-126.34 626.62,-134.26 626.62,-134.26 626.62,-138.21 622.67,-142.17 618.71,-142.17"/>
<text text-anchor="middle" x="599.62" y="-124.87" font-family="Arial" font-size="14.00" fill="#cfffac">log.js</text>
</g>
<!-- comment.js&#45;&gt;log.js -->
<g id="edge9" class="edge">
<title>comment.js&#45;&gt;log.js</title>
<path fill="none" stroke="#757575" d="M439.5,-278.22C452.87,-259.14 480.68,-221.41 509.5,-194.3 527.76,-177.12 550.81,-160.69 568.89,-148.77"/>
<polygon fill="#757575" stroke="#757575" points="570.59,-151.84 577.09,-143.47 566.79,-145.96 570.59,-151.84"/>
</g>
<!-- next&#45;meta&#45;files.js -->
<g id="node8" class="node">
<title>next&#45;meta&#45;files.js</title>
<path fill="none" stroke="#c6c5fe" d="M651.08,-386.17C651.08,-386.17 548.17,-386.17 548.17,-386.17 544.21,-386.17 540.25,-382.21 540.25,-378.26 540.25,-378.26 540.25,-370.34 540.25,-370.34 540.25,-366.38 544.21,-362.42 548.17,-362.42 548.17,-362.42 651.08,-362.42 651.08,-362.42 655.04,-362.42 659,-366.38 659,-370.34 659,-370.34 659,-378.26 659,-378.26 659,-382.21 655.04,-386.17 651.08,-386.17"/>
<text text-anchor="middle" x="599.62" y="-368.87" font-family="Arial" font-size="14.00" fill="#c6c5fe">next&#45;meta&#45;files.js</text>
</g>
<!-- comment.js&#45;&gt;next&#45;meta&#45;files.js -->
<g id="edge10" class="edge">
<title>comment.js&#45;&gt;next&#45;meta&#45;files.js</title>
<path fill="none" stroke="#757575" d="M442.79,-302.44C457.1,-316.77 482.86,-340.28 509.5,-353.3 515.69,-356.32 522.33,-358.92 529.1,-361.16"/>
<polygon fill="#757575" stroke="#757575" points="527.76,-364.41 538.34,-363.94 529.78,-357.71 527.76,-364.41"/>
</g>
<!-- renderer&#45;jest.js -->
<g id="node9" class="node">
<title>renderer&#45;jest.js</title>
<path fill="none" stroke="#c6c5fe" d="M644.71,-302.17C644.71,-302.17 554.54,-302.17 554.54,-302.17 550.58,-302.17 546.62,-298.21 546.62,-294.26 546.62,-294.26 546.62,-286.34 546.62,-286.34 546.62,-282.38 550.58,-278.42 554.54,-278.42 554.54,-278.42 644.71,-278.42 644.71,-278.42 648.67,-278.42 652.62,-282.38 652.62,-286.34 652.62,-286.34 652.62,-294.26 652.62,-294.26 652.62,-298.21 648.67,-302.17 644.71,-302.17"/>
<text text-anchor="middle" x="599.62" y="-284.87" font-family="Arial" font-size="14.00" fill="#c6c5fe">renderer&#45;jest.js</text>
</g>
<!-- comment.js&#45;&gt;renderer&#45;jest.js -->
<g id="edge11" class="edge">
<title>comment.js&#45;&gt;renderer&#45;jest.js</title>
<path fill="none" stroke="#757575" d="M473.92,-290.3C492.38,-290.3 514.39,-290.3 534.73,-290.3"/>
<polygon fill="#757575" stroke="#757575" points="534.65,-293.8 544.65,-290.3 534.65,-286.8 534.65,-293.8"/>
</g>
<!-- renderer&#45;markdown.js -->
<g id="node10" class="node">
<title>renderer&#45;markdown.js</title>
<path fill="none" stroke="#c6c5fe" d="M665.71,-260.17C665.71,-260.17 533.54,-260.17 533.54,-260.17 529.58,-260.17 525.62,-256.21 525.62,-252.26 525.62,-252.26 525.62,-244.34 525.62,-244.34 525.62,-240.38 529.58,-236.42 533.54,-236.42 533.54,-236.42 665.71,-236.42 665.71,-236.42 669.67,-236.42 673.62,-240.38 673.62,-244.34 673.62,-244.34 673.62,-252.26 673.62,-252.26 673.62,-256.21 669.67,-260.17 665.71,-260.17"/>
<text text-anchor="middle" x="599.62" y="-242.87" font-family="Arial" font-size="14.00" fill="#c6c5fe">renderer&#45;markdown.js</text>
</g>
<!-- comment.js&#45;&gt;renderer&#45;markdown.js -->
<g id="edge12" class="edge">
<title>comment.js&#45;&gt;renderer&#45;markdown.js</title>
<path fill="none" stroke="#757575" d="M473.83,-278.62C485.38,-275.52 497.91,-272.22 509.5,-269.3 517.54,-267.27 526,-265.2 534.38,-263.19"/>
<polygon fill="#757575" stroke="#757575" points="534.92,-266.66 543.83,-260.93 533.29,-259.85 534.92,-266.66"/>
</g>
<!-- next&#45;meta&#45;files.js&#45;&gt;file.js -->
<g id="edge31" class="edge">
<title>next&#45;meta&#45;files.js&#45;&gt;file.js</title>
<path fill="none" stroke="#757575" d="M652.32,-386.63C677.69,-392.67 707.68,-399.83 730.82,-405.34"/>
<polygon fill="#757575" stroke="#757575" points="729.9,-408.72 740.44,-407.64 731.52,-401.91 729.9,-408.72"/>
</g>
<!-- next&#45;meta&#45;files.js&#45;&gt;text.js -->
<g id="edge32" class="edge">
<title>next&#45;meta&#45;files.js&#45;&gt;text.js</title>
<path fill="none" stroke="#757575" d="M659.32,-375.81C702.27,-377.82 761.75,-382.49 813,-393.3 821.18,-395.02 829.78,-397.49 837.88,-400.13"/>
<polygon fill="#757575" stroke="#757575" points="836.51,-403.36 847.1,-403.3 838.78,-396.74 836.51,-403.36"/>
</g>
<!-- renderer&#45;jest.js&#45;&gt;constants.js -->
<g id="edge37" class="edge">
<title>renderer&#45;jest.js&#45;&gt;constants.js</title>
<path fill="none" stroke="#757575" d="M652.78,-283.77C672.24,-281.33 694.37,-278.56 714.02,-276.1"/>
<polygon fill="#757575" stroke="#757575" points="714.27,-279.6 723.76,-274.88 713.4,-272.65 714.27,-279.6"/>
</g>
<!-- renderer&#45;markdown.js&#45;&gt;constants.js -->
<g id="edge38" class="edge">
<title>renderer&#45;markdown.js&#45;&gt;constants.js</title>
<path fill="none" stroke="#757575" d="M673.71,-257.45C687.37,-259.16 701.42,-260.92 714.37,-262.54"/>
<polygon fill="#757575" stroke="#757575" points="713.57,-265.97 723.93,-263.73 714.44,-259.02 713.57,-265.97"/>
</g>
<!-- doctor&#45;general.js -->
<g id="node11" class="node">
<title>doctor&#45;general.js</title>
<path fill="none" stroke="#c6c5fe" d="M108.58,-223.17C108.58,-223.17 7.92,-223.17 7.92,-223.17 3.96,-223.17 0,-219.21 0,-215.26 0,-215.26 0,-207.34 0,-207.34 0,-203.38 3.96,-199.42 7.92,-199.42 7.92,-199.42 108.58,-199.42 108.58,-199.42 112.54,-199.42 116.5,-203.38 116.5,-207.34 116.5,-207.34 116.5,-215.26 116.5,-215.26 116.5,-219.21 112.54,-223.17 108.58,-223.17"/>
<text text-anchor="middle" x="58.25" y="-205.87" font-family="Arial" font-size="14.00" fill="#c6c5fe">doctor&#45;general.js</text>
</g>
<!-- doctor&#45;general.js&#45;&gt;file.js -->
<g id="edge18" class="edge">
<title>doctor&#45;general.js&#45;&gt;file.js</title>
<path fill="none" stroke="#757575" d="M62.36,-223.49C78.12,-282.12 154.81,-532.3 316.12,-532.3 316.12,-532.3 316.12,-532.3 431.25,-532.3 547.13,-532.3 589.42,-556.27 689.75,-498.3 712.53,-485.13 707.72,-470.46 725.75,-451.3 731.34,-445.35 737.81,-439.36 743.99,-433.97"/>
<polygon fill="#757575" stroke="#757575" points="746.17,-436.71 751.55,-427.58 741.65,-431.37 746.17,-436.71"/>
</g>
<!-- doctor&#45;general.js&#45;&gt;text.js -->
<g id="edge23" class="edge">
<title>doctor&#45;general.js&#45;&gt;text.js</title>
<path fill="none" stroke="#757575" d="M60.95,-223.61C70.92,-290.62 128.13,-608.3 316.12,-608.3 316.12,-608.3 316.12,-608.3 600.62,-608.3 719.31,-608.3 822.63,-485.78 860.06,-435.48"/>
<polygon fill="#757575" stroke="#757575" points="862.7,-437.8 865.76,-427.66 857.04,-433.68 862.7,-437.8"/>
</g>
<!-- doctor&#45;general.js&#45;&gt;constants.js -->
<g id="edge15" class="edge">
<title>doctor&#45;general.js&#45;&gt;constants.js</title>
<path fill="none" stroke="#757575" d="M104.44,-223.59C119.6,-227.14 136.67,-230.54 152.5,-232.3 194.35,-236.95 205.14,-232.7 247.25,-232.3 443.92,-230.42 498.96,-179.53 689.75,-227.3 708.29,-231.94 727.24,-241.88 741.89,-250.92"/>
<polygon fill="#757575" stroke="#757575" points="739.71,-253.68 750.01,-256.15 743.5,-247.79 739.71,-253.68"/>
</g>
<!-- doctor&#45;general.js&#45;&gt;comment.js -->
<g id="edge14" class="edge">
<title>doctor&#45;general.js&#45;&gt;comment.js</title>
<path fill="none" stroke="#757575" d="M75.39,-223.61C93.21,-236.46 123.26,-256.01 152.5,-265.3 227.35,-289.07 318.91,-292.72 375.66,-292.22"/>
<polygon fill="#757575" stroke="#757575" points="375.42,-295.73 385.37,-292.09 375.32,-288.73 375.42,-295.73"/>
</g>
<!-- doctor&#45;general.js&#45;&gt;log.js -->
<g id="edge19" class="edge">
<title>doctor&#45;general.js&#45;&gt;log.js</title>
<path fill="none" stroke="#757575" d="M61.15,-199.12C67.19,-165.06 89.42,-68.76 152.5,-30.3 293.28,55.54 499.34,-63.77 572.04,-111.82"/>
<polygon fill="#757575" stroke="#757575" points="569.88,-114.58 580.13,-117.25 573.78,-108.77 569.88,-114.58"/>
</g>
<!-- drgen.js -->
<g id="node12" class="node">
<title>drgen.js</title>
<path fill="none" stroke="#c6c5fe" d="M223.96,-223.17C223.96,-223.17 175.79,-223.17 175.79,-223.17 171.83,-223.17 167.88,-219.21 167.88,-215.26 167.88,-215.26 167.88,-207.34 167.88,-207.34 167.88,-203.38 171.83,-199.42 175.79,-199.42 175.79,-199.42 223.96,-199.42 223.96,-199.42 227.92,-199.42 231.88,-203.38 231.88,-207.34 231.88,-207.34 231.88,-215.26 231.88,-215.26 231.88,-219.21 227.92,-223.17 223.96,-223.17"/>
<text text-anchor="middle" x="199.88" y="-205.87" font-family="Arial" font-size="14.00" fill="#c6c5fe">drgen.js</text>
</g>
<!-- doctor&#45;general.js&#45;&gt;drgen.js -->
<g id="edge16" class="edge">
<title>doctor&#45;general.js&#45;&gt;drgen.js</title>
<path fill="none" stroke="#757575" d="M116.85,-211.3C130.05,-211.3 143.86,-211.3 156.3,-211.3"/>
<polygon fill="#757575" stroke="#757575" points="156.23,-214.8 166.23,-211.3 156.23,-207.8 156.23,-214.8"/>
</g>
<!-- executable.js -->
<g id="node13" class="node">
<title>executable.js</title>
<path fill="none" stroke="#cfffac" d="M239.33,-181.17C239.33,-181.17 160.42,-181.17 160.42,-181.17 156.46,-181.17 152.5,-177.21 152.5,-173.26 152.5,-173.26 152.5,-165.34 152.5,-165.34 152.5,-161.38 156.46,-157.42 160.42,-157.42 160.42,-157.42 239.33,-157.42 239.33,-157.42 243.29,-157.42 247.25,-161.38 247.25,-165.34 247.25,-165.34 247.25,-173.26 247.25,-173.26 247.25,-177.21 243.29,-181.17 239.33,-181.17"/>
<text text-anchor="middle" x="199.88" y="-163.87" font-family="Arial" font-size="14.00" fill="#cfffac">executable.js</text>
</g>
<!-- doctor&#45;general.js&#45;&gt;executable.js -->
<g id="edge17" class="edge">
<title>doctor&#45;general.js&#45;&gt;executable.js</title>
<path fill="none" stroke="#757575" d="M100.39,-198.92C115.02,-194.52 131.68,-189.51 147.08,-184.88"/>
<polygon fill="#757575" stroke="#757575" points="148.01,-188.25 156.58,-182.02 146,-181.55 148.01,-188.25"/>
</g>
<!-- parse.js -->
<g id="node14" class="node">
<title>parse.js</title>
<path fill="none" stroke="#c6c5fe" d="M340.83,-341.17C340.83,-341.17 293.42,-341.17 293.42,-341.17 289.46,-341.17 285.5,-337.21 285.5,-333.26 285.5,-333.26 285.5,-325.34 285.5,-325.34 285.5,-321.38 289.46,-317.42 293.42,-317.42 293.42,-317.42 340.83,-317.42 340.83,-317.42 344.79,-317.42 348.75,-321.38 348.75,-325.34 348.75,-325.34 348.75,-333.26 348.75,-333.26 348.75,-337.21 344.79,-341.17 340.83,-341.17"/>
<text text-anchor="middle" x="317.12" y="-323.87" font-family="Arial" font-size="14.00" fill="#c6c5fe">parse.js</text>
</g>
<!-- doctor&#45;general.js&#45;&gt;parse.js -->
<g id="edge20" class="edge">
<title>doctor&#45;general.js&#45;&gt;parse.js</title>
<path fill="none" stroke="#757575" d="M67.65,-223.56C82.28,-243.86 114.55,-284.11 152.5,-303.3 190.67,-322.6 239.7,-328.25 274.1,-329.6"/>
<polygon fill="#757575" stroke="#757575" points="273.56,-333.08 283.65,-329.86 273.75,-326.08 273.56,-333.08"/>
</g>
<!-- reader.js -->
<g id="node15" class="node">
<title>reader.js</title>
<path fill="none" stroke="#c6c5fe" d="M343.08,-145.17C343.08,-145.17 291.17,-145.17 291.17,-145.17 287.21,-145.17 283.25,-141.21 283.25,-137.26 283.25,-137.26 283.25,-129.34 283.25,-129.34 283.25,-125.38 287.21,-121.42 291.17,-121.42 291.17,-121.42 343.08,-121.42 343.08,-121.42 347.04,-121.42 351,-125.38 351,-129.34 351,-129.34 351,-137.26 351,-137.26 351,-141.21 347.04,-145.17 343.08,-145.17"/>
<text text-anchor="middle" x="317.12" y="-127.87" font-family="Arial" font-size="14.00" fill="#c6c5fe">reader.js</text>
</g>
<!-- doctor&#45;general.js&#45;&gt;reader.js -->
<g id="edge21" class="edge">
<title>doctor&#45;general.js&#45;&gt;reader.js</title>
<path fill="none" stroke="#757575" d="M72.56,-199.05C89.64,-184.15 120.85,-159.59 152.5,-148.3 191.07,-134.53 237.85,-131.49 271.49,-131.47"/>
<polygon fill="#757575" stroke="#757575" points="271.26,-134.97 281.29,-131.56 271.32,-127.97 271.26,-134.97"/>
</g>
<!-- stats.js -->
<g id="node16" class="node">
<title>stats.js</title>
<path fill="none" stroke="#cfffac" d="M220.96,-63.17C220.96,-63.17 178.79,-63.17 178.79,-63.17 174.83,-63.17 170.88,-59.21 170.88,-55.26 170.88,-55.26 170.88,-47.34 170.88,-47.34 170.88,-43.38 174.83,-39.42 178.79,-39.42 178.79,-39.42 220.96,-39.42 220.96,-39.42 224.92,-39.42 228.88,-43.38 228.88,-47.34 228.88,-47.34 228.88,-55.26 228.88,-55.26 228.88,-59.21 224.92,-63.17 220.96,-63.17"/>
<text text-anchor="middle" x="199.88" y="-45.87" font-family="Arial" font-size="14.00" fill="#cfffac">stats.js</text>
</g>
<!-- doctor&#45;general.js&#45;&gt;stats.js -->
<g id="edge22" class="edge">
<title>doctor&#45;general.js&#45;&gt;stats.js</title>
<path fill="none" stroke="#757575" d="M65.24,-199.21C78.22,-173.94 111.15,-114.82 152.5,-77.3 155.62,-74.46 159.11,-71.81 162.73,-69.37"/>
<polygon fill="#757575" stroke="#757575" points="164.47,-72.41 171.17,-64.2 160.81,-66.44 164.47,-72.41"/>
</g>
<!-- writer.js -->
<g id="node17" class="node">
<title>writer.js</title>
<path fill="none" stroke="#cfffac" d="M340.08,-103.17C340.08,-103.17 294.17,-103.17 294.17,-103.17 290.21,-103.17 286.25,-99.21 286.25,-95.26 286.25,-95.26 286.25,-87.34 286.25,-87.34 286.25,-83.38 290.21,-79.42 294.17,-79.42 294.17,-79.42 340.08,-79.42 340.08,-79.42 344.04,-79.42 348,-83.38 348,-87.34 348,-87.34 348,-95.26 348,-95.26 348,-99.21 344.04,-103.17 340.08,-103.17"/>
<text text-anchor="middle" x="317.12" y="-85.87" font-family="Arial" font-size="14.00" fill="#cfffac">writer.js</text>
</g>
<!-- doctor&#45;general.js&#45;&gt;writer.js -->
<g id="edge24" class="edge">
<title>doctor&#45;general.js&#45;&gt;writer.js</title>
<path fill="none" stroke="#757575" d="M69.33,-199.02C85.09,-180.68 117.42,-146.33 152.5,-128.3 191.25,-108.38 240.58,-99.11 274.9,-94.84"/>
<polygon fill="#757575" stroke="#757575" points="274.88,-98.36 284.42,-93.75 274.09,-91.41 274.88,-98.36"/>
</g>
<!-- drgen.js&#45;&gt;comment.js -->
<g id="edge25" class="edge">
<title>drgen.js&#45;&gt;comment.js</title>
<path fill="none" stroke="#757575" d="M232.15,-222.12C271.2,-235.62 338.31,-258.84 383.23,-274.38"/>
<polygon fill="#757575" stroke="#757575" points="381.83,-277.6 392.43,-277.56 384.12,-270.98 381.83,-277.6"/>
</g>
<!-- drgen.js&#45;&gt;log.js -->
<g id="edge26" class="edge">
<title>drgen.js&#45;&gt;log.js</title>
<path fill="none" stroke="#757575" d="M232.09,-204.94C304.38,-190.22 483.07,-153.83 561.13,-137.93"/>
<polygon fill="#757575" stroke="#757575" points="561.74,-141.38 570.84,-135.96 560.35,-134.52 561.74,-141.38"/>
</g>
<!-- drgen.js&#45;&gt;parse.js -->
<g id="edge27" class="edge">
<title>drgen.js&#45;&gt;parse.js</title>
<path fill="none" stroke="#757575" d="M212.77,-223.48C232.53,-243.71 272.3,-284.42 296.33,-309.03"/>
<polygon fill="#757575" stroke="#757575" points="293.57,-311.21 303.06,-315.92 298.58,-306.32 293.57,-311.21"/>
</g>
<!-- drgen.js&#45;&gt;reader.js -->
<g id="edge28" class="edge">
<title>drgen.js&#45;&gt;reader.js</title>
<path fill="none" stroke="#757575" d="M231.47,-198.95C236.87,-196.35 242.33,-193.44 247.25,-190.3 265.05,-178.94 266.97,-172.74 283.25,-159.3 285.91,-157.1 288.72,-154.82 291.52,-152.57"/>
<polygon fill="#757575" stroke="#757575" points="293.46,-155.5 299.11,-146.54 289.11,-150.02 293.46,-155.5"/>
</g>
<!-- drgen.js&#45;&gt;writer.js -->
<g id="edge29" class="edge">
<title>drgen.js&#45;&gt;writer.js</title>
<path fill="none" stroke="#757575" d="M232.27,-200.81C237.71,-198 242.99,-194.53 247.25,-190.3 274.34,-163.4 258.15,-141.07 283.25,-112.3 283.7,-111.79 284.16,-111.29 284.63,-110.79"/>
<polygon fill="#757575" stroke="#757575" points="286.69,-113.63 292.04,-104.49 282.16,-108.3 286.69,-113.63"/>
</g>
<!-- parse.js&#45;&gt;file.js -->
<g id="edge34" class="edge">
<title>parse.js&#45;&gt;file.js</title>
<path fill="none" stroke="#757575" d="M328.61,-341.54C355.16,-371.5 428.74,-448.01 509.5,-475.3 585.4,-500.94 613.96,-501.25 689.75,-475.3 713.25,-467.25 735.16,-449 749.84,-434.55"/>
<polygon fill="#757575" stroke="#757575" points="752.08,-437.27 756.56,-427.66 747.07,-432.38 752.08,-437.27"/>
</g>
<!-- parse.js&#45;&gt;text.js -->
<g id="edge35" class="edge">
<title>parse.js&#45;&gt;text.js</title>
<path fill="none" stroke="#757575" d="M322.65,-341.59C331.64,-364.46 353.76,-413.87 387,-443.3 431.68,-482.86 451.14,-485.8 509.5,-498.3 642.71,-526.83 690.92,-515.78 813,-455.3 825.57,-449.07 838.65,-440.74 849.53,-433.21"/>
<polygon fill="#757575" stroke="#757575" points="851.47,-436.13 857.6,-427.48 847.42,-430.42 851.47,-436.13"/>
</g>
<!-- parse.js&#45;&gt;comment.js -->
<g id="edge33" class="edge">
<title>parse.js&#45;&gt;comment.js</title>
<path fill="none" stroke="#757575" d="M349.08,-318.43C359.69,-314.71 371.8,-310.46 383.34,-306.41"/>
<polygon fill="#757575" stroke="#757575" points="384.45,-309.73 392.73,-303.12 382.13,-303.13 384.45,-309.73"/>
</g>
<!-- reader.js&#45;&gt;log.js -->
<g id="edge36" class="edge">
<title>reader.js&#45;&gt;log.js</title>
<path fill="none" stroke="#757575" d="M351.4,-132.94C404,-132.38 506,-131.29 561.11,-130.7"/>
<polygon fill="#757575" stroke="#757575" points="560.98,-134.2 570.94,-130.59 560.9,-127.2 560.98,-134.2"/>
</g>
</g>
</svg>
