<?xml version="1.0" encoding="UTF-8" standalone="no"?>
<!DOCTYPE svg PUBLIC "-//W3C//DTD SVG 1.1//EN"
 "http://www.w3.org/Graphics/SVG/1.1/DTD/svg11.dtd">
<!-- Generated by graphviz version 9.0.0 (20230911.1827)
 -->
<!-- Title: G Pages: 1 -->
<svg width="689pt" height="453pt"
 viewBox="0.00 0.00 689.20 453.08" xmlns="http://www.w3.org/2000/svg" xmlns:xlink="http://www.w3.org/1999/xlink">
<g id="graph0" class="graph" transform="scale(1 1) rotate(0) translate(21.6 431.48)">
<title>G</title>
<polygon fill="#111111" stroke="none" points="-21.6,21.6 -21.6,-431.48 667.6,-431.48 667.6,21.6 -21.6,21.6"/>
<!-- comment.js -->
<g id="node1" class="node">
<title>comment.js</title>
<path fill="none" stroke="#c6c5fe" d="M458.08,-267.75C458.08,-267.75 387.42,-267.75 387.42,-267.75 383.46,-267.75 379.5,-263.79 379.5,-259.83 379.5,-259.83 379.5,-251.92 379.5,-251.92 379.5,-247.96 383.46,-244 387.42,-244 387.42,-244 458.08,-244 458.08,-244 462.04,-244 466,-247.96 466,-251.92 466,-251.92 466,-259.83 466,-259.83 466,-263.79 462.04,-267.75 458.08,-267.75"/>
<text text-anchor="middle" x="422.75" y="-250.45" font-family="Arial" font-size="14.00" fill="#c6c5fe">comment.js</text>
</g>
<!-- file.js -->
<g id="node2" class="node">
<title>file.js</title>
<path fill="none" stroke="#c6c5fe" d="M548.08,-305.75C548.08,-305.75 509.92,-305.75 509.92,-305.75 505.96,-305.75 502,-301.79 502,-297.83 502,-297.83 502,-289.92 502,-289.92 502,-285.96 505.96,-282 509.92,-282 509.92,-282 548.08,-282 548.08,-282 552.04,-282 556,-285.96 556,-289.92 556,-289.92 556,-297.83 556,-297.83 556,-301.79 552.04,-305.75 548.08,-305.75"/>
<text text-anchor="middle" x="529" y="-288.45" font-family="Arial" font-size="14.00" fill="#c6c5fe">file.js</text>
</g>
<!-- comment.js&#45;&gt;file.js -->
<g id="edge1" class="edge">
<title>comment.js&#45;&gt;file.js</title>
<path fill="none" stroke="#757575" d="M457.6,-268.21C468.3,-272.11 480.18,-276.44 491.08,-280.42"/>
<polygon fill="#757575" stroke="#757575" points="489.57,-283.59 500.16,-283.73 491.97,-277.01 489.57,-283.59"/>
</g>
<!-- log.js -->
<g id="node3" class="node">
<title>log.js</title>
<path fill="none" stroke="#cfffac" d="M548.08,-206.75C548.08,-206.75 509.92,-206.75 509.92,-206.75 505.96,-206.75 502,-202.79 502,-198.83 502,-198.83 502,-190.92 502,-190.92 502,-186.96 505.96,-183 509.92,-183 509.92,-183 548.08,-183 548.08,-183 552.04,-183 556,-186.96 556,-190.92 556,-190.92 556,-198.83 556,-198.83 556,-202.79 552.04,-206.75 548.08,-206.75"/>
<text text-anchor="middle" x="529" y="-189.45" font-family="Arial" font-size="14.00" fill="#cfffac">log.js</text>
</g>
<!-- comment.js&#45;&gt;log.js -->
<g id="edge2" class="edge">
<title>comment.js&#45;&gt;log.js</title>
<path fill="none" stroke="#757575" d="M444.85,-243.53C459.82,-234.77 480.18,-222.86 497,-213.02"/>
<polygon fill="#757575" stroke="#757575" points="498.77,-216.04 505.63,-207.97 495.23,-209.99 498.77,-216.04"/>
</g>
<!-- text.js -->
<g id="node4" class="node">
<title>text.js</title>
<path fill="none" stroke="#cfffac" d="M638.08,-325.75C638.08,-325.75 599.92,-325.75 599.92,-325.75 595.96,-325.75 592,-321.79 592,-317.83 592,-317.83 592,-309.92 592,-309.92 592,-305.96 595.96,-302 599.92,-302 599.92,-302 638.08,-302 638.08,-302 642.04,-302 646,-305.96 646,-309.92 646,-309.92 646,-317.83 646,-317.83 646,-321.79 642.04,-325.75 638.08,-325.75"/>
<text text-anchor="middle" x="619" y="-308.45" font-family="Arial" font-size="14.00" fill="#cfffac">text.js</text>
</g>
<!-- comment.js&#45;&gt;text.js -->
<g id="edge3" class="edge">
<title>comment.js&#45;&gt;text.js</title>
<path fill="none" stroke="#757575" d="M466.32,-256.46C492.83,-258 527.25,-262.18 556,-272.88 569.85,-278.02 583.7,-286.77 594.8,-294.86"/>
<polygon fill="#757575" stroke="#757575" points="592.49,-297.5 602.56,-300.78 596.73,-291.93 592.49,-297.5"/>
</g>
<!-- file.js&#45;&gt;text.js -->
<g id="edge19" class="edge">
<title>file.js&#45;&gt;text.js</title>
<path fill="none" stroke="#757575" d="M556.4,-299.88C563.97,-301.6 572.38,-303.51 580.48,-305.35"/>
<polygon fill="#757575" stroke="#757575" points="579.61,-308.74 590.14,-307.54 581.16,-301.91 579.61,-308.74"/>
</g>
<!-- constants.js -->
<g id="node5" class="node">
<title>constants.js</title>
<path fill="none" stroke="#cfffac" d="M231.83,-65.75C231.83,-65.75 160.42,-65.75 160.42,-65.75 156.46,-65.75 152.5,-61.79 152.5,-57.83 152.5,-57.83 152.5,-49.92 152.5,-49.92 152.5,-45.96 156.46,-42 160.42,-42 160.42,-42 231.83,-42 231.83,-42 235.79,-42 239.75,-45.96 239.75,-49.92 239.75,-49.92 239.75,-57.83 239.75,-57.83 239.75,-61.79 235.79,-65.75 231.83,-65.75"/>
<text text-anchor="middle" x="196.12" y="-48.45" font-family="Arial" font-size="14.00" fill="#cfffac">constants.js</text>
</g>
<!-- doctor&#45;general.js -->
<g id="node6" class="node">
<title>doctor&#45;general.js</title>
<path fill="none" stroke="#c6c5fe" d="M108.58,-207.75C108.58,-207.75 7.92,-207.75 7.92,-207.75 3.96,-207.75 0,-203.79 0,-199.83 0,-199.83 0,-191.92 0,-191.92 0,-187.96 3.96,-184 7.92,-184 7.92,-184 108.58,-184 108.58,-184 112.54,-184 116.5,-187.96 116.5,-191.92 116.5,-191.92 116.5,-199.83 116.5,-199.83 116.5,-203.79 112.54,-207.75 108.58,-207.75"/>
<text text-anchor="middle" x="58.25" y="-190.45" font-family="Arial" font-size="14.00" fill="#c6c5fe">doctor&#45;general.js</text>
</g>
<!-- doctor&#45;general.js&#45;&gt;comment.js -->
<g id="edge4" class="edge">
<title>doctor&#45;general.js&#45;&gt;comment.js</title>
<path fill="none" stroke="#757575" d="M81.9,-208.21C100.36,-217.67 127.37,-230.2 152.5,-236.88 225.44,-256.25 313.16,-258.77 368.2,-257.97"/>
<polygon fill="#757575" stroke="#757575" points="367.99,-261.47 377.92,-257.78 367.86,-254.48 367.99,-261.47"/>
</g>
<!-- doctor&#45;general.js&#45;&gt;file.js -->
<g id="edge7" class="edge">
<title>doctor&#45;general.js&#45;&gt;file.js</title>
<path fill="none" stroke="#757575" d="M63.76,-208.12C74.49,-235.37 104.27,-301.01 152.5,-331.88 269.88,-406.99 334.93,-373.23 466,-325.88 476.54,-322.07 487.56,-316.83 497.34,-311.7"/>
<polygon fill="#757575" stroke="#757575" points="498.94,-314.81 506.05,-306.96 495.59,-308.66 498.94,-314.81"/>
</g>
<!-- doctor&#45;general.js&#45;&gt;log.js -->
<g id="edge8" class="edge">
<title>doctor&#45;general.js&#45;&gt;log.js</title>
<path fill="none" stroke="#757575" d="M77.96,-183.68C123.08,-155.78 241.66,-91.26 343.5,-112.88 401.24,-125.13 462.84,-156.74 498.24,-176.94"/>
<polygon fill="#757575" stroke="#757575" points="496.22,-179.81 506.63,-181.8 499.73,-173.75 496.22,-179.81"/>
</g>
<!-- doctor&#45;general.js&#45;&gt;text.js -->
<g id="edge12" class="edge">
<title>doctor&#45;general.js&#45;&gt;text.js</title>
<path fill="none" stroke="#757575" d="M62.49,-208.22C71.31,-239.43 98.81,-322.02 152.5,-364.88 208.94,-409.92 236.41,-409.88 308.62,-409.88 308.62,-409.88 308.62,-409.88 423.75,-409.88 492.18,-409.88 561.43,-361.41 595.8,-333.35"/>
<polygon fill="#757575" stroke="#757575" points="597.95,-336.11 603.37,-327.01 593.46,-330.74 597.95,-336.11"/>
</g>
<!-- doctor&#45;general.js&#45;&gt;constants.js -->
<g id="edge5" class="edge">
<title>doctor&#45;general.js&#45;&gt;constants.js</title>
<path fill="none" stroke="#757575" d="M67.06,-183.54C81.76,-160.99 115.42,-112.44 152.5,-79.88 155.61,-77.14 159.05,-74.52 162.58,-72.07"/>
<polygon fill="#757575" stroke="#757575" points="164.21,-75.18 170.72,-66.82 160.42,-69.3 164.21,-75.18"/>
</g>
<!-- drgen.js -->
<g id="node7" class="node">
<title>drgen.js</title>
<path fill="none" stroke="#c6c5fe" d="M220.21,-227.75C220.21,-227.75 172.04,-227.75 172.04,-227.75 168.08,-227.75 164.12,-223.79 164.12,-219.83 164.12,-219.83 164.12,-211.92 164.12,-211.92 164.12,-207.96 168.08,-204 172.04,-204 172.04,-204 220.21,-204 220.21,-204 224.17,-204 228.12,-207.96 228.12,-211.92 228.12,-211.92 228.12,-219.83 228.12,-219.83 228.12,-223.79 224.17,-227.75 220.21,-227.75"/>
<text text-anchor="middle" x="196.12" y="-210.45" font-family="Arial" font-size="14.00" fill="#c6c5fe">drgen.js</text>
</g>
<!-- doctor&#45;general.js&#45;&gt;drgen.js -->
<g id="edge6" class="edge">
<title>doctor&#45;general.js&#45;&gt;drgen.js</title>
<path fill="none" stroke="#757575" d="M116.87,-204.36C128.79,-206.11 141.14,-207.93 152.41,-209.59"/>
<polygon fill="#757575" stroke="#757575" points="151.8,-213.04 162.21,-211.03 152.82,-206.11 151.8,-213.04"/>
</g>
<!-- parse.js -->
<g id="node8" class="node">
<title>parse.js</title>
<path fill="none" stroke="#c6c5fe" d="M333.33,-343.75C333.33,-343.75 285.92,-343.75 285.92,-343.75 281.96,-343.75 278,-339.79 278,-335.83 278,-335.83 278,-327.92 278,-327.92 278,-323.96 281.96,-320 285.92,-320 285.92,-320 333.33,-320 333.33,-320 337.29,-320 341.25,-323.96 341.25,-327.92 341.25,-327.92 341.25,-335.83 341.25,-335.83 341.25,-339.79 337.29,-343.75 333.33,-343.75"/>
<text text-anchor="middle" x="309.62" y="-326.45" font-family="Arial" font-size="14.00" fill="#c6c5fe">parse.js</text>
</g>
<!-- doctor&#45;general.js&#45;&gt;parse.js -->
<g id="edge9" class="edge">
<title>doctor&#45;general.js&#45;&gt;parse.js</title>
<path fill="none" stroke="#757575" d="M65.78,-208.25C78.82,-231.61 110.48,-282.02 152.5,-305.88 187.45,-325.72 233.42,-331.37 266.42,-332.58"/>
<polygon fill="#757575" stroke="#757575" points="265.92,-336.07 275.99,-332.8 266.08,-329.07 265.92,-336.07"/>
</g>
<!-- reader.js -->
<g id="node9" class="node">
<title>reader.js</title>
<path fill="none" stroke="#c6c5fe" d="M335.58,-187.75C335.58,-187.75 283.67,-187.75 283.67,-187.75 279.71,-187.75 275.75,-183.79 275.75,-179.83 275.75,-179.83 275.75,-171.92 275.75,-171.92 275.75,-167.96 279.71,-164 283.67,-164 283.67,-164 335.58,-164 335.58,-164 339.54,-164 343.5,-167.96 343.5,-171.92 343.5,-171.92 343.5,-179.83 343.5,-179.83 343.5,-183.79 339.54,-187.75 335.58,-187.75"/>
<text text-anchor="middle" x="309.62" y="-170.45" font-family="Arial" font-size="14.00" fill="#c6c5fe">reader.js</text>
</g>
<!-- doctor&#45;general.js&#45;&gt;reader.js -->
<g id="edge10" class="edge">
<title>doctor&#45;general.js&#45;&gt;reader.js</title>
<path fill="none" stroke="#757575" d="M116.77,-191.26C161.64,-187.66 223.05,-182.74 264.19,-179.44"/>
<polygon fill="#757575" stroke="#757575" points="264.29,-182.94 273.98,-178.65 263.73,-175.96 264.29,-182.94"/>
</g>
<!-- stats.js -->
<g id="node10" class="node">
<title>stats.js</title>
<path fill="none" stroke="#cfffac" d="M217.21,-23.75C217.21,-23.75 175.04,-23.75 175.04,-23.75 171.08,-23.75 167.12,-19.79 167.12,-15.83 167.12,-15.83 167.12,-7.92 167.12,-7.92 167.12,-3.96 171.08,0 175.04,0 175.04,0 217.21,0 217.21,0 221.17,0 225.12,-3.96 225.12,-7.92 225.12,-7.92 225.12,-15.83 225.12,-15.83 225.12,-19.79 221.17,-23.75 217.21,-23.75"/>
<text text-anchor="middle" x="196.12" y="-6.45" font-family="Arial" font-size="14.00" fill="#cfffac">stats.js</text>
</g>
<!-- doctor&#45;general.js&#45;&gt;stats.js -->
<g id="edge11" class="edge">
<title>doctor&#45;general.js&#45;&gt;stats.js</title>
<path fill="none" stroke="#757575" d="M63.38,-183.64C73.9,-154.14 104.28,-78.2 152.5,-32.88 154.08,-31.39 155.78,-29.99 157.57,-28.67"/>
<polygon fill="#757575" stroke="#757575" points="159.09,-31.85 165.7,-23.56 155.37,-25.92 159.09,-31.85"/>
</g>
<!-- writer.js -->
<g id="node11" class="node">
<title>writer.js</title>
<path fill="none" stroke="#cfffac" d="M332.58,-145.75C332.58,-145.75 286.67,-145.75 286.67,-145.75 282.71,-145.75 278.75,-141.79 278.75,-137.83 278.75,-137.83 278.75,-129.92 278.75,-129.92 278.75,-125.96 282.71,-122 286.67,-122 286.67,-122 332.58,-122 332.58,-122 336.54,-122 340.5,-125.96 340.5,-129.92 340.5,-129.92 340.5,-137.83 340.5,-137.83 340.5,-141.79 336.54,-145.75 332.58,-145.75"/>
<text text-anchor="middle" x="309.62" y="-128.45" font-family="Arial" font-size="14.00" fill="#cfffac">writer.js</text>
</g>
<!-- doctor&#45;general.js&#45;&gt;writer.js -->
<g id="edge13" class="edge">
<title>doctor&#45;general.js&#45;&gt;writer.js</title>
<path fill="none" stroke="#757575" d="M108.82,-183.55C155.24,-172.01 223.8,-154.96 267.33,-144.14"/>
<polygon fill="#757575" stroke="#757575" points="268.04,-147.57 276.9,-141.76 266.35,-140.78 268.04,-147.57"/>
</g>
<!-- drgen.js&#45;&gt;comment.js -->
<g id="edge14" class="edge">
<title>drgen.js&#45;&gt;comment.js</title>
<path fill="none" stroke="#757575" d="M228.36,-221.44C264.43,-227.86 324.41,-238.54 368.01,-246.31"/>
<polygon fill="#757575" stroke="#757575" points="367.34,-249.74 377.8,-248.05 368.56,-242.85 367.34,-249.74"/>
</g>
<!-- drgen.js&#45;&gt;log.js -->
<g id="edge15" class="edge">
<title>drgen.js&#45;&gt;log.js</title>
<path fill="none" stroke="#757575" d="M228.59,-213.9C278.79,-210.74 380.11,-204.36 466,-198.88 473.88,-198.37 482.33,-197.83 490.37,-197.31"/>
<polygon fill="#757575" stroke="#757575" points="490.49,-200.81 500.24,-196.67 490.04,-193.82 490.49,-200.81"/>
</g>
<!-- drgen.js&#45;&gt;parse.js -->
<g id="edge16" class="edge">
<title>drgen.js&#45;&gt;parse.js</title>
<path fill="none" stroke="#757575" d="M208.64,-227.85C227.67,-247.65 265.89,-287.41 289.17,-311.63"/>
<polygon fill="#757575" stroke="#757575" points="286.51,-313.91 295.96,-318.7 291.55,-309.06 286.51,-313.91"/>
</g>
<!-- drgen.js&#45;&gt;reader.js -->
<g id="edge17" class="edge">
<title>drgen.js&#45;&gt;reader.js</title>
<path fill="none" stroke="#757575" d="M228.48,-204.63C239.72,-200.59 252.62,-195.97 264.73,-191.62"/>
<polygon fill="#757575" stroke="#757575" points="265.9,-194.92 274.14,-188.25 263.54,-188.33 265.9,-194.92"/>
</g>
<!-- drgen.js&#45;&gt;writer.js -->
<g id="edge18" class="edge">
<title>drgen.js&#45;&gt;writer.js</title>
<path fill="none" stroke="#757575" d="M212.18,-203.53C227.78,-190.9 253.02,-170.9 275.75,-154.88 276.9,-154.06 278.08,-153.24 279.28,-152.42"/>
<polygon fill="#757575" stroke="#757575" points="280.95,-155.52 287.35,-147.08 277.08,-149.68 280.95,-155.52"/>
</g>
<!-- parse.js&#45;&gt;comment.js -->
<g id="edge20" class="edge">
<title>parse.js&#45;&gt;comment.js</title>
<path fill="none" stroke="#757575" d="M326.8,-319.6C340.6,-309.25 361.08,-294.2 379.5,-281.88 383.45,-279.23 387.65,-276.53 391.82,-273.9"/>
<polygon fill="#757575" stroke="#757575" points="393.41,-277.04 400.06,-268.79 389.72,-271.09 393.41,-277.04"/>
</g>
<!-- parse.js&#45;&gt;file.js -->
<g id="edge21" class="edge">
<title>parse.js&#45;&gt;file.js</title>
<path fill="none" stroke="#757575" d="M341.31,-326.51C380.46,-319.67 448.16,-307.83 490.38,-300.45"/>
<polygon fill="#757575" stroke="#757575" points="490.83,-303.93 500.07,-298.76 489.62,-297.03 490.83,-303.93"/>
</g>
<!-- parse.js&#45;&gt;text.js -->
<g id="edge22" class="edge">
<title>parse.js&#45;&gt;text.js</title>
<path fill="none" stroke="#757575" d="M341.5,-330.07C398.17,-326.75 518.56,-319.7 580.08,-316.1"/>
<polygon fill="#757575" stroke="#757575" points="580.28,-319.59 590.06,-315.51 579.87,-312.6 580.28,-319.59"/>
</g>
<!-- reader.js&#45;&gt;log.js -->
<g id="edge23" class="edge">
<title>reader.js&#45;&gt;log.js</title>
<path fill="none" stroke="#757575" d="M343.64,-178.76C383.07,-182.21 448.89,-187.96 490.29,-191.58"/>
<polygon fill="#757575" stroke="#757575" points="489.75,-195.05 500.02,-192.43 490.36,-188.07 489.75,-195.05"/>
</g>
</g>
</svg>
