<?xml version="1.0" encoding="UTF-8" standalone="no"?>
<!DOCTYPE svg PUBLIC "-//W3C//DTD SVG 1.1//EN"
 "http://www.w3.org/Graphics/SVG/1.1/DTD/svg11.dtd">
<!-- Generated by graphviz version 9.0.0 (20230911.1827)
 -->
<!-- Title: G Pages: 1 -->
<svg width="915pt" height="685pt"
 viewBox="0.00 0.00 915.45 685.08" xmlns="http://www.w3.org/2000/svg" xmlns:xlink="http://www.w3.org/1999/xlink">
<g id="graph0" class="graph" transform="scale(1 1) rotate(0) translate(21.6 663.48)">
<title>G</title>
<polygon fill="#111111" stroke="none" points="-21.6,21.6 -21.6,-663.48 893.85,-663.48 893.85,21.6 -21.6,21.6"/>
<!-- comment&#45;documentation.js -->
<g id="node1" class="node">
<title>comment&#45;documentation.js</title>
<path fill="none" stroke="#c6c5fe" d="M651.08,-259.75C651.08,-259.75 486.67,-259.75 486.67,-259.75 482.71,-259.75 478.75,-255.79 478.75,-251.83 478.75,-251.83 478.75,-243.92 478.75,-243.92 478.75,-239.96 482.71,-236 486.67,-236 486.67,-236 651.08,-236 651.08,-236 655.04,-236 659,-239.96 659,-243.92 659,-243.92 659,-251.83 659,-251.83 659,-255.79 655.04,-259.75 651.08,-259.75"/>
<text text-anchor="middle" x="568.88" y="-242.45" font-family="Arial" font-size="14.00" fill="#c6c5fe">comment&#45;documentation.js</text>
</g>
<!-- file.js -->
<g id="node2" class="node">
<title>file.js</title>
<path fill="none" stroke="#c6c5fe" d="M757.71,-459.75C757.71,-459.75 719.54,-459.75 719.54,-459.75 715.58,-459.75 711.62,-455.79 711.62,-451.83 711.62,-451.83 711.62,-443.92 711.62,-443.92 711.62,-439.96 715.58,-436 719.54,-436 719.54,-436 757.71,-436 757.71,-436 761.67,-436 765.62,-439.96 765.62,-443.92 765.62,-443.92 765.62,-451.83 765.62,-451.83 765.62,-455.79 761.67,-459.75 757.71,-459.75"/>
<text text-anchor="middle" x="738.62" y="-442.45" font-family="Arial" font-size="14.00" fill="#c6c5fe">file.js</text>
</g>
<!-- comment&#45;documentation.js&#45;&gt;file.js -->
<g id="edge1" class="edge">
<title>comment&#45;documentation.js&#45;&gt;file.js</title>
<path fill="none" stroke="#757575" d="M645.33,-260.06C650.22,-262.51 654.85,-265.42 659,-268.88 665.45,-274.24 708.85,-378.12 728.26,-425.12"/>
<polygon fill="#757575" stroke="#757575" points="725.02,-426.44 732.07,-434.35 731.49,-423.77 725.02,-426.44"/>
</g>
<!-- log.js -->
<g id="node3" class="node">
<title>log.js</title>
<path fill="none" stroke="#cfffac" d="M757.71,-158.75C757.71,-158.75 719.54,-158.75 719.54,-158.75 715.58,-158.75 711.62,-154.79 711.62,-150.83 711.62,-150.83 711.62,-142.92 711.62,-142.92 711.62,-138.96 715.58,-135 719.54,-135 719.54,-135 757.71,-135 757.71,-135 761.67,-135 765.62,-138.96 765.62,-142.92 765.62,-142.92 765.62,-150.83 765.62,-150.83 765.62,-154.79 761.67,-158.75 757.71,-158.75"/>
<text text-anchor="middle" x="738.62" y="-141.45" font-family="Arial" font-size="14.00" fill="#cfffac">log.js</text>
</g>
<!-- comment&#45;documentation.js&#45;&gt;log.js -->
<g id="edge2" class="edge">
<title>comment&#45;documentation.js&#45;&gt;log.js</title>
<path fill="none" stroke="#757575" d="M639.47,-235.58C646.27,-233.18 652.9,-230.31 659,-226.88 685.04,-212.22 708.1,-186.39 722.41,-168.05"/>
<polygon fill="#757575" stroke="#757575" points="725.1,-170.3 728.33,-160.21 719.51,-166.08 725.1,-170.3"/>
</g>
<!-- text.js -->
<g id="node4" class="node">
<title>text.js</title>
<path fill="none" stroke="#cfffac" d="M864.33,-499.75C864.33,-499.75 826.17,-499.75 826.17,-499.75 822.21,-499.75 818.25,-495.79 818.25,-491.83 818.25,-491.83 818.25,-483.92 818.25,-483.92 818.25,-479.96 822.21,-476 826.17,-476 826.17,-476 864.33,-476 864.33,-476 868.29,-476 872.25,-479.96 872.25,-483.92 872.25,-483.92 872.25,-491.83 872.25,-491.83 872.25,-495.79 868.29,-499.75 864.33,-499.75"/>
<text text-anchor="middle" x="845.25" y="-482.45" font-family="Arial" font-size="14.00" fill="#cfffac">text.js</text>
</g>
<!-- comment&#45;documentation.js&#45;&gt;text.js -->
<g id="edge3" class="edge">
<title>comment&#45;documentation.js&#45;&gt;text.js</title>
<path fill="none" stroke="#757575" d="M659.31,-249.81C701.31,-255.18 749.26,-268.37 782.25,-298.88 829.84,-342.88 840.97,-423.95 843.53,-464.08"/>
<polygon fill="#757575" stroke="#757575" points="840.03,-464.25 844.02,-474.06 847.02,-463.91 840.03,-464.25"/>
</g>
<!-- file.js&#45;&gt;text.js -->
<g id="edge30" class="edge">
<title>file.js&#45;&gt;text.js</title>
<path fill="none" stroke="#757575" d="M766.03,-457.97C778.54,-462.75 793.7,-468.55 807.33,-473.76"/>
<polygon fill="#757575" stroke="#757575" points="805.85,-476.94 816.44,-477.24 808.35,-470.4 805.85,-476.94"/>
</g>
<!-- comment&#45;test.js -->
<g id="node5" class="node">
<title>comment&#45;test.js</title>
<path fill="none" stroke="#c6c5fe" d="M617.33,-381.75C617.33,-381.75 520.42,-381.75 520.42,-381.75 516.46,-381.75 512.5,-377.79 512.5,-373.83 512.5,-373.83 512.5,-365.92 512.5,-365.92 512.5,-361.96 516.46,-358 520.42,-358 520.42,-358 617.33,-358 617.33,-358 621.29,-358 625.25,-361.96 625.25,-365.92 625.25,-365.92 625.25,-373.83 625.25,-373.83 625.25,-377.79 621.29,-381.75 617.33,-381.75"/>
<text text-anchor="middle" x="568.88" y="-364.45" font-family="Arial" font-size="14.00" fill="#c6c5fe">comment&#45;test.js</text>
</g>
<!-- comment&#45;test.js&#45;&gt;file.js -->
<g id="edge5" class="edge">
<title>comment&#45;test.js&#45;&gt;file.js</title>
<path fill="none" stroke="#757575" d="M621.74,-382.15C634.21,-385.88 647.3,-390.45 659,-395.88 678.24,-404.8 698.16,-418.01 713.13,-428.89"/>
<polygon fill="#757575" stroke="#757575" points="710.87,-431.57 720.98,-434.73 715.04,-425.95 710.87,-431.57"/>
</g>
<!-- comment&#45;test.js&#45;&gt;text.js -->
<g id="edge6" class="edge">
<title>comment&#45;test.js&#45;&gt;text.js</title>
<path fill="none" stroke="#757575" d="M625.65,-376.84C670.32,-384.25 733.38,-398.91 782.25,-426.88 800.14,-437.11 816.58,-453.77 828.03,-467.1"/>
<polygon fill="#757575" stroke="#757575" points="825.08,-469.03 834.15,-474.51 830.48,-464.57 825.08,-469.03"/>
</g>
<!-- constants.js -->
<g id="node6" class="node">
<title>constants.js</title>
<path fill="none" stroke="#cfffac" d="M774.33,-331.75C774.33,-331.75 702.92,-331.75 702.92,-331.75 698.96,-331.75 695,-327.79 695,-323.83 695,-323.83 695,-315.92 695,-315.92 695,-311.96 698.96,-308 702.92,-308 702.92,-308 774.33,-308 774.33,-308 778.29,-308 782.25,-311.96 782.25,-315.92 782.25,-315.92 782.25,-323.83 782.25,-323.83 782.25,-327.79 778.29,-331.75 774.33,-331.75"/>
<text text-anchor="middle" x="738.62" y="-314.45" font-family="Arial" font-size="14.00" fill="#cfffac">constants.js</text>
</g>
<!-- comment&#45;test.js&#45;&gt;constants.js -->
<g id="edge4" class="edge">
<title>comment&#45;test.js&#45;&gt;constants.js</title>
<path fill="none" stroke="#757575" d="M612.52,-357.55C627.26,-353.26 643.86,-348.39 659,-343.88 667.94,-341.21 677.45,-338.33 686.65,-335.54"/>
<polygon fill="#757575" stroke="#757575" points="687.66,-338.89 696.21,-332.62 685.62,-332.19 687.66,-338.89"/>
</g>
<!-- comment.js -->
<g id="node7" class="node">
<title>comment.js</title>
<path fill="none" stroke="#c6c5fe" d="M434.83,-301.75C434.83,-301.75 364.17,-301.75 364.17,-301.75 360.21,-301.75 356.25,-297.79 356.25,-293.83 356.25,-293.83 356.25,-285.92 356.25,-285.92 356.25,-281.96 360.21,-278 364.17,-278 364.17,-278 434.83,-278 434.83,-278 438.79,-278 442.75,-281.96 442.75,-285.92 442.75,-285.92 442.75,-293.83 442.75,-293.83 442.75,-297.79 438.79,-301.75 434.83,-301.75"/>
<text text-anchor="middle" x="399.5" y="-284.45" font-family="Arial" font-size="14.00" fill="#c6c5fe">comment.js</text>
</g>
<!-- comment.js&#45;&gt;comment&#45;documentation.js -->
<g id="edge7" class="edge">
<title>comment.js&#45;&gt;comment&#45;documentation.js</title>
<path fill="none" stroke="#757575" d="M443.08,-278.19C454.63,-275.09 467.16,-271.8 478.75,-268.88 486.79,-266.85 495.25,-264.78 503.63,-262.76"/>
<polygon fill="#757575" stroke="#757575" points="504.17,-266.23 513.08,-260.51 502.54,-259.42 504.17,-266.23"/>
</g>
<!-- comment.js&#45;&gt;file.js -->
<g id="edge9" class="edge">
<title>comment.js&#45;&gt;file.js</title>
<path fill="none" stroke="#757575" d="M406.32,-302.06C417.28,-323.62 443.14,-368.34 478.75,-390.88 497.37,-402.66 632.99,-428.71 700.15,-441.09"/>
<polygon fill="#757575" stroke="#757575" points="699.51,-444.53 709.98,-442.89 700.78,-437.64 699.51,-444.53"/>
</g>
<!-- comment.js&#45;&gt;log.js -->
<g id="edge10" class="edge">
<title>comment.js&#45;&gt;log.js</title>
<path fill="none" stroke="#757575" d="M405.7,-277.66C415.99,-255.12 441.27,-207.24 478.75,-184.88 548.38,-143.32 646.77,-141.24 699.96,-143.79"/>
<polygon fill="#757575" stroke="#757575" points="699.52,-147.27 709.71,-144.35 699.92,-140.28 699.52,-147.27"/>
</g>
<!-- comment.js&#45;&gt;text.js -->
<g id="edge14" class="edge">
<title>comment.js&#45;&gt;text.js</title>
<path fill="none" stroke="#757575" d="M400.43,-302.14C400.96,-340.63 408.45,-459.34 478.75,-508.88 579.11,-579.59 736.12,-531.63 807.14,-503.83"/>
<polygon fill="#757575" stroke="#757575" points="808.4,-507.1 816.38,-500.13 805.79,-500.6 808.4,-507.1"/>
</g>
<!-- comment.js&#45;&gt;comment&#45;test.js -->
<g id="edge8" class="edge">
<title>comment.js&#45;&gt;comment&#45;test.js</title>
<path fill="none" stroke="#757575" d="M426.29,-302.2C454.54,-315.71 500.08,-337.47 531.86,-352.66"/>
<polygon fill="#757575" stroke="#757575" points="530.16,-355.73 540.69,-356.88 533.18,-349.41 530.16,-355.73"/>
</g>
<!-- next&#45;meta&#45;files.js -->
<g id="node8" class="node">
<title>next&#45;meta&#45;files.js</title>
<path fill="none" stroke="#c6c5fe" d="M620.33,-499.75C620.33,-499.75 517.42,-499.75 517.42,-499.75 513.46,-499.75 509.5,-495.79 509.5,-491.83 509.5,-491.83 509.5,-483.92 509.5,-483.92 509.5,-479.96 513.46,-476 517.42,-476 517.42,-476 620.33,-476 620.33,-476 624.29,-476 628.25,-479.96 628.25,-483.92 628.25,-483.92 628.25,-491.83 628.25,-491.83 628.25,-495.79 624.29,-499.75 620.33,-499.75"/>
<text text-anchor="middle" x="568.88" y="-482.45" font-family="Arial" font-size="14.00" fill="#c6c5fe">next&#45;meta&#45;files.js</text>
</g>
<!-- comment.js&#45;&gt;next&#45;meta&#45;files.js -->
<g id="edge11" class="edge">
<title>comment.js&#45;&gt;next&#45;meta&#45;files.js</title>
<path fill="none" stroke="#757575" d="M405.52,-302.07C416.22,-327.02 443.21,-384.82 478.75,-423.88 495.3,-442.06 517.82,-458.18 536.09,-469.69"/>
<polygon fill="#757575" stroke="#757575" points="534.08,-472.57 544.44,-474.81 537.74,-466.6 534.08,-472.57"/>
</g>
<!-- renderer&#45;jest.js -->
<g id="node9" class="node">
<title>renderer&#45;jest.js</title>
<path fill="none" stroke="#c6c5fe" d="M613.96,-301.75C613.96,-301.75 523.79,-301.75 523.79,-301.75 519.83,-301.75 515.88,-297.79 515.88,-293.83 515.88,-293.83 515.88,-285.92 515.88,-285.92 515.88,-281.96 519.83,-278 523.79,-278 523.79,-278 613.96,-278 613.96,-278 617.92,-278 621.88,-281.96 621.88,-285.92 621.88,-285.92 621.88,-293.83 621.88,-293.83 621.88,-297.79 617.92,-301.75 613.96,-301.75"/>
<text text-anchor="middle" x="568.88" y="-284.45" font-family="Arial" font-size="14.00" fill="#c6c5fe">renderer&#45;jest.js</text>
</g>
<!-- comment.js&#45;&gt;renderer&#45;jest.js -->
<g id="edge12" class="edge">
<title>comment.js&#45;&gt;renderer&#45;jest.js</title>
<path fill="none" stroke="#757575" d="M443.17,-289.88C461.63,-289.88 483.64,-289.88 503.98,-289.88"/>
<polygon fill="#757575" stroke="#757575" points="503.9,-293.38 513.9,-289.88 503.9,-286.38 503.9,-293.38"/>
</g>
<!-- renderer&#45;markdown.js -->
<g id="node10" class="node">
<title>renderer&#45;markdown.js</title>
<path fill="none" stroke="#c6c5fe" d="M634.96,-217.75C634.96,-217.75 502.79,-217.75 502.79,-217.75 498.83,-217.75 494.88,-213.79 494.88,-209.83 494.88,-209.83 494.88,-201.92 494.88,-201.92 494.88,-197.96 498.83,-194 502.79,-194 502.79,-194 634.96,-194 634.96,-194 638.92,-194 642.88,-197.96 642.88,-201.92 642.88,-201.92 642.88,-209.83 642.88,-209.83 642.88,-213.79 638.92,-217.75 634.96,-217.75"/>
<text text-anchor="middle" x="568.88" y="-200.45" font-family="Arial" font-size="14.00" fill="#c6c5fe">renderer&#45;markdown.js</text>
</g>
<!-- comment.js&#45;&gt;renderer&#45;markdown.js -->
<g id="edge13" class="edge">
<title>comment.js&#45;&gt;renderer&#45;markdown.js</title>
<path fill="none" stroke="#757575" d="M412.04,-277.73C426.35,-263.4 452.11,-239.89 478.75,-226.88 482.47,-225.06 486.35,-223.39 490.33,-221.87"/>
<polygon fill="#757575" stroke="#757575" points="491.3,-225.24 499.59,-218.65 489,-218.63 491.3,-225.24"/>
</g>
<!-- next&#45;meta&#45;files.js&#45;&gt;file.js -->
<g id="edge31" class="edge">
<title>next&#45;meta&#45;files.js&#45;&gt;file.js</title>
<path fill="none" stroke="#757575" d="M621.57,-475.55C646.94,-469.5 676.93,-462.35 700.07,-456.83"/>
<polygon fill="#757575" stroke="#757575" points="700.77,-460.26 709.69,-454.54 699.15,-453.45 700.77,-460.26"/>
</g>
<!-- next&#45;meta&#45;files.js&#45;&gt;text.js -->
<g id="edge32" class="edge">
<title>next&#45;meta&#45;files.js&#45;&gt;text.js</title>
<path fill="none" stroke="#757575" d="M628.74,-487.88C682.51,-487.88 760.42,-487.88 806.35,-487.88"/>
<polygon fill="#757575" stroke="#757575" points="806.35,-491.38 816.35,-487.88 806.35,-484.38 806.35,-491.38"/>
</g>
<!-- renderer&#45;jest.js&#45;&gt;constants.js -->
<g id="edge37" class="edge">
<title>renderer&#45;jest.js&#45;&gt;constants.js</title>
<path fill="none" stroke="#757575" d="M622.03,-299.2C641.49,-302.68 663.62,-306.64 683.27,-310.15"/>
<polygon fill="#757575" stroke="#757575" points="682.56,-313.58 693.02,-311.9 683.79,-306.69 682.56,-313.58"/>
</g>
<!-- renderer&#45;markdown.js&#45;&gt;log.js -->
<g id="edge39" class="edge">
<title>renderer&#45;markdown.js&#45;&gt;log.js</title>
<path fill="none" stroke="#757575" d="M615.99,-193.5C629.92,-189.48 645.18,-184.77 659,-179.88 672.84,-174.97 687.77,-168.91 700.85,-163.33"/>
<polygon fill="#757575" stroke="#757575" points="702.17,-166.57 709.96,-159.38 699.39,-160.14 702.17,-166.57"/>
</g>
<!-- renderer&#45;markdown.js&#45;&gt;constants.js -->
<g id="edge38" class="edge">
<title>renderer&#45;markdown.js&#45;&gt;constants.js</title>
<path fill="none" stroke="#757575" d="M641.12,-218.22C647.38,-220.61 653.44,-223.47 659,-226.88 687.96,-244.64 711.55,-276.75 725.09,-298.19"/>
<polygon fill="#757575" stroke="#757575" points="721.94,-299.74 730.13,-306.46 727.91,-296.1 721.94,-299.74"/>
</g>
<!-- doctor&#45;general.js -->
<g id="node11" class="node">
<title>doctor&#45;general.js</title>
<path fill="none" stroke="#c6c5fe" d="M108.58,-284.75C108.58,-284.75 7.92,-284.75 7.92,-284.75 3.96,-284.75 0,-280.79 0,-276.83 0,-276.83 0,-268.92 0,-268.92 0,-264.96 3.96,-261 7.92,-261 7.92,-261 108.58,-261 108.58,-261 112.54,-261 116.5,-264.96 116.5,-268.92 116.5,-268.92 116.5,-276.83 116.5,-276.83 116.5,-280.79 112.54,-284.75 108.58,-284.75"/>
<text text-anchor="middle" x="58.25" y="-267.45" font-family="Arial" font-size="14.00" fill="#c6c5fe">doctor&#45;general.js</text>
</g>
<!-- doctor&#45;general.js&#45;&gt;file.js -->
<g id="edge18" class="edge">
<title>doctor&#45;general.js&#45;&gt;file.js</title>
<path fill="none" stroke="#757575" d="M61.29,-285.05C72.03,-344.76 127.74,-603.88 285.38,-603.88 285.38,-603.88 285.38,-603.88 400.5,-603.88 522.9,-603.88 551.94,-568.2 659,-508.88 679.77,-497.36 700.91,-480.63 716.03,-467.59"/>
<polygon fill="#757575" stroke="#757575" points="718.28,-470.27 723.47,-461.04 713.65,-465.02 718.28,-470.27"/>
</g>
<!-- doctor&#45;general.js&#45;&gt;log.js -->
<g id="edge19" class="edge">
<title>doctor&#45;general.js&#45;&gt;log.js</title>
<path fill="none" stroke="#757575" d="M64.38,-260.68C84.78,-214.35 164.88,-51.88 285.38,-51.88 285.38,-51.88 285.38,-51.88 400.5,-51.88 517.52,-51.88 549.3,-61.15 659,-101.88 677.09,-108.59 695.9,-119.2 710.58,-128.44"/>
<polygon fill="#757575" stroke="#757575" points="708.46,-131.23 718.76,-133.72 712.26,-125.36 708.46,-131.23"/>
</g>
<!-- doctor&#45;general.js&#45;&gt;text.js -->
<g id="edge23" class="edge">
<title>doctor&#45;general.js&#45;&gt;text.js</title>
<path fill="none" stroke="#757575" d="M59.86,-285.21C62.64,-329.15 77.47,-480.27 152.5,-570.88 195.21,-622.44 218.42,-641.88 285.38,-641.88 285.38,-641.88 285.38,-641.88 569.88,-641.88 669.83,-641.88 701.1,-626.23 782.25,-567.88 803.62,-552.51 821.2,-527.74 832.12,-509.83"/>
<polygon fill="#757575" stroke="#757575" points="835.1,-511.67 837.13,-501.27 829.06,-508.13 835.1,-511.67"/>
</g>
<!-- doctor&#45;general.js&#45;&gt;constants.js -->
<g id="edge16" class="edge">
<title>doctor&#45;general.js&#45;&gt;constants.js</title>
<path fill="none" stroke="#757575" d="M88.65,-285.24C131.23,-302.01 212.91,-329.88 285.38,-329.88 285.38,-329.88 285.38,-329.88 400.5,-329.88 500.2,-329.88 616.42,-325.45 683.08,-322.49"/>
<polygon fill="#757575" stroke="#757575" points="683.19,-325.99 693.02,-322.04 682.87,-318.99 683.19,-325.99"/>
</g>
<!-- doctor&#45;general.js&#45;&gt;comment.js -->
<g id="edge15" class="edge">
<title>doctor&#45;general.js&#45;&gt;comment.js</title>
<path fill="none" stroke="#757575" d="M116.8,-275.76C180.6,-278.96 282.69,-284.07 344.87,-287.19"/>
<polygon fill="#757575" stroke="#757575" points="344.32,-290.66 354.48,-287.67 344.67,-283.67 344.32,-290.66"/>
</g>
<!-- drgen.js -->
<g id="node12" class="node">
<title>drgen.js</title>
<path fill="none" stroke="#c6c5fe" d="M208.58,-239.75C208.58,-239.75 160.42,-239.75 160.42,-239.75 156.46,-239.75 152.5,-235.79 152.5,-231.83 152.5,-231.83 152.5,-223.92 152.5,-223.92 152.5,-219.96 156.46,-216 160.42,-216 160.42,-216 208.58,-216 208.58,-216 212.54,-216 216.5,-219.96 216.5,-223.92 216.5,-223.92 216.5,-231.83 216.5,-231.83 216.5,-235.79 212.54,-239.75 208.58,-239.75"/>
<text text-anchor="middle" x="184.5" y="-222.45" font-family="Arial" font-size="14.00" fill="#c6c5fe">drgen.js</text>
</g>
<!-- doctor&#45;general.js&#45;&gt;drgen.js -->
<g id="edge17" class="edge">
<title>doctor&#45;general.js&#45;&gt;drgen.js</title>
<path fill="none" stroke="#757575" d="M93.2,-260.58C108.15,-255.17 125.85,-248.75 141.61,-243.05"/>
<polygon fill="#757575" stroke="#757575" points="142.51,-246.44 150.72,-239.75 140.13,-239.86 142.51,-246.44"/>
</g>
<!-- parse.js -->
<g id="node13" class="node">
<title>parse.js</title>
<path fill="none" stroke="#c6c5fe" d="M310.08,-381.75C310.08,-381.75 262.67,-381.75 262.67,-381.75 258.71,-381.75 254.75,-377.79 254.75,-373.83 254.75,-373.83 254.75,-365.92 254.75,-365.92 254.75,-361.96 258.71,-358 262.67,-358 262.67,-358 310.08,-358 310.08,-358 314.04,-358 318,-361.96 318,-365.92 318,-365.92 318,-373.83 318,-373.83 318,-377.79 314.04,-381.75 310.08,-381.75"/>
<text text-anchor="middle" x="286.38" y="-364.45" font-family="Arial" font-size="14.00" fill="#c6c5fe">parse.js</text>
</g>
<!-- doctor&#45;general.js&#45;&gt;parse.js -->
<g id="edge20" class="edge">
<title>doctor&#45;general.js&#45;&gt;parse.js</title>
<path fill="none" stroke="#757575" d="M71.31,-285.05C88.01,-301.15 119.83,-329.21 152.5,-343.88 181.17,-356.75 216.14,-363.27 243.01,-366.56"/>
<polygon fill="#757575" stroke="#757575" points="242.53,-370.03 252.85,-367.65 243.3,-363.07 242.53,-370.03"/>
</g>
<!-- reader.js -->
<g id="node14" class="node">
<title>reader.js</title>
<path fill="none" stroke="#c6c5fe" d="M312.33,-165.75C312.33,-165.75 260.42,-165.75 260.42,-165.75 256.46,-165.75 252.5,-161.79 252.5,-157.83 252.5,-157.83 252.5,-149.92 252.5,-149.92 252.5,-145.96 256.46,-142 260.42,-142 260.42,-142 312.33,-142 312.33,-142 316.29,-142 320.25,-145.96 320.25,-149.92 320.25,-149.92 320.25,-157.83 320.25,-157.83 320.25,-161.79 316.29,-165.75 312.33,-165.75"/>
<text text-anchor="middle" x="286.38" y="-148.45" font-family="Arial" font-size="14.00" fill="#c6c5fe">reader.js</text>
</g>
<!-- doctor&#45;general.js&#45;&gt;reader.js -->
<g id="edge21" class="edge">
<title>doctor&#45;general.js&#45;&gt;reader.js</title>
<path fill="none" stroke="#757575" d="M74.03,-260.73C91.84,-246.52 123.05,-222.88 152.5,-206.88 180.95,-191.42 214.89,-177.96 241.34,-168.47"/>
<polygon fill="#757575" stroke="#757575" points="242.48,-171.78 250.75,-165.16 240.16,-165.17 242.48,-171.78"/>
</g>
<!-- stats.js -->
<g id="node15" class="node">
<title>stats.js</title>
<path fill="none" stroke="#cfffac" d="M205.58,-23.75C205.58,-23.75 163.42,-23.75 163.42,-23.75 159.46,-23.75 155.5,-19.79 155.5,-15.83 155.5,-15.83 155.5,-7.92 155.5,-7.92 155.5,-3.96 159.46,0 163.42,0 163.42,0 205.58,0 205.58,0 209.54,0 213.5,-3.96 213.5,-7.92 213.5,-7.92 213.5,-15.83 213.5,-15.83 213.5,-19.79 209.54,-23.75 205.58,-23.75"/>
<text text-anchor="middle" x="184.5" y="-6.45" font-family="Arial" font-size="14.00" fill="#cfffac">stats.js</text>
</g>
<!-- doctor&#45;general.js&#45;&gt;stats.js -->
<g id="edge22" class="edge">
<title>doctor&#45;general.js&#45;&gt;stats.js</title>
<path fill="none" stroke="#757575" d="M61.86,-260.6C70.09,-223.92 98.29,-112.96 152.5,-37.88 154,-35.79 155.71,-33.77 157.53,-31.85"/>
<polygon fill="#757575" stroke="#757575" points="159.9,-34.42 164.86,-25.06 155.14,-29.29 159.9,-34.42"/>
</g>
<!-- writer.js -->
<g id="node16" class="node">
<title>writer.js</title>
<path fill="none" stroke="#cfffac" d="M309.33,-123.75C309.33,-123.75 263.42,-123.75 263.42,-123.75 259.46,-123.75 255.5,-119.79 255.5,-115.83 255.5,-115.83 255.5,-107.92 255.5,-107.92 255.5,-103.96 259.46,-100 263.42,-100 263.42,-100 309.33,-100 309.33,-100 313.29,-100 317.25,-103.96 317.25,-107.92 317.25,-107.92 317.25,-115.83 317.25,-115.83 317.25,-119.79 313.29,-123.75 309.33,-123.75"/>
<text text-anchor="middle" x="286.38" y="-106.45" font-family="Arial" font-size="14.00" fill="#cfffac">writer.js</text>
</g>
<!-- doctor&#45;general.js&#45;&gt;writer.js -->
<g id="edge24" class="edge">
<title>doctor&#45;general.js&#45;&gt;writer.js</title>
<path fill="none" stroke="#757575" d="M68.12,-260.81C83.45,-240.64 116.72,-199.74 152.5,-173.88 180.91,-153.34 217.21,-136.95 244.69,-126.2"/>
<polygon fill="#757575" stroke="#757575" points="245.61,-129.59 253.71,-122.75 243.12,-123.05 245.61,-129.59"/>
</g>
<!-- drgen.js&#45;&gt;log.js -->
<g id="edge26" class="edge">
<title>drgen.js&#45;&gt;log.js</title>
<path fill="none" stroke="#757575" d="M216.52,-215.57C269.34,-195.37 380.54,-155.98 478.75,-141.88 558.05,-130.49 578.93,-139.33 659,-141.88 672.4,-142.3 687.06,-143.13 700.05,-144"/>
<polygon fill="#757575" stroke="#757575" points="699.71,-147.48 709.93,-144.69 700.19,-140.5 699.71,-147.48"/>
</g>
<!-- drgen.js&#45;&gt;comment.js -->
<g id="edge25" class="edge">
<title>drgen.js&#45;&gt;comment.js</title>
<path fill="none" stroke="#757575" d="M216.93,-237.02C250.67,-246.85 304.87,-262.62 345.28,-274.38"/>
<polygon fill="#757575" stroke="#757575" points="344.25,-277.73 354.83,-277.16 346.21,-271.01 344.25,-277.73"/>
</g>
<!-- drgen.js&#45;&gt;parse.js -->
<g id="edge27" class="edge">
<title>drgen.js&#45;&gt;parse.js</title>
<path fill="none" stroke="#757575" d="M194.02,-239.98C210.97,-264.08 249.13,-318.35 270.38,-348.55"/>
<polygon fill="#757575" stroke="#757575" points="267.39,-350.39 276.01,-356.56 273.12,-346.37 267.39,-350.39"/>
</g>
<!-- drgen.js&#45;&gt;reader.js -->
<g id="edge28" class="edge">
<title>drgen.js&#45;&gt;reader.js</title>
<path fill="none" stroke="#757575" d="M201.99,-215.66C217.75,-203.98 241.73,-186.21 259.94,-172.72"/>
<polygon fill="#757575" stroke="#757575" points="261.69,-175.78 267.64,-167.01 257.52,-170.15 261.69,-175.78"/>
</g>
<!-- drgen.js&#45;&gt;writer.js -->
<g id="edge29" class="edge">
<title>drgen.js&#45;&gt;writer.js</title>
<path fill="none" stroke="#757575" d="M192.05,-215.65C202.78,-196.38 225.65,-158.53 252.5,-132.88 253.23,-132.18 253.98,-131.49 254.76,-130.82"/>
<polygon fill="#757575" stroke="#757575" points="256.58,-133.83 262.41,-124.99 252.34,-128.27 256.58,-133.83"/>
</g>
<!-- parse.js&#45;&gt;file.js -->
<g id="edge34" class="edge">
<title>parse.js&#45;&gt;file.js</title>
<path fill="none" stroke="#757575" d="M318.4,-381.04C355.87,-394.04 421.07,-415.1 478.75,-425.88 556.53,-440.41 649.28,-445.36 699.96,-447.03"/>
<polygon fill="#757575" stroke="#757575" points="699.69,-450.52 709.79,-447.33 699.9,-443.52 699.69,-450.52"/>
</g>
<!-- parse.js&#45;&gt;text.js -->
<g id="edge35" class="edge">
<title>parse.js&#45;&gt;text.js</title>
<path fill="none" stroke="#757575" d="M295.89,-382.24C319.88,-415.86 391.99,-508.62 478.75,-541.88 604.7,-590.16 655.87,-587.02 782.25,-539.88 799.45,-533.46 815.25,-520.04 826.59,-508.44"/>
<polygon fill="#757575" stroke="#757575" points="829.09,-510.9 833.32,-501.19 823.95,-506.14 829.09,-510.9"/>
</g>
<!-- parse.js&#45;&gt;comment.js -->
<g id="edge33" class="edge">
<title>parse.js&#45;&gt;comment.js</title>
<path fill="none" stroke="#757575" d="M304.25,-357.72C322.28,-344.74 351.1,-324 372.13,-308.86"/>
<polygon fill="#757575" stroke="#757575" points="374.16,-311.71 380.24,-303.02 370.07,-306.03 374.16,-311.71"/>
</g>
<!-- reader.js&#45;&gt;log.js -->
<g id="edge36" class="edge">
<title>reader.js&#45;&gt;log.js</title>
<path fill="none" stroke="#757575" d="M320.75,-143.53C386.19,-124.72 535.75,-89.06 659,-113.88 674.57,-117.01 690.91,-123.32 704.63,-129.58"/>
<polygon fill="#757575" stroke="#757575" points="703.11,-132.74 713.64,-133.89 706.12,-126.42 703.11,-132.74"/>
</g>
</g>
</svg>
