<?xml version="1.0" encoding="UTF-8" standalone="no"?>
<!DOCTYPE svg PUBLIC "-//W3C//DTD SVG 1.1//EN"
 "http://www.w3.org/Graphics/SVG/1.1/DTD/svg11.dtd">
<!-- Generated by graphviz version 9.0.0 (20230911.1827)
 -->
<!-- Title: G Pages: 1 -->
<svg width="1005pt" height="689pt"
 viewBox="0.00 0.00 1005.45 689.08" xmlns="http://www.w3.org/2000/svg" xmlns:xlink="http://www.w3.org/1999/xlink">
<g id="graph0" class="graph" transform="scale(1 1) rotate(0) translate(21.6 667.48)">
<title>G</title>
<polygon fill="#111111" stroke="none" points="-21.6,21.6 -21.6,-667.48 983.85,-667.48 983.85,21.6 -21.6,21.6"/>
<!-- comment&#45;documentation.js -->
<g id="node1" class="node">
<title>comment&#45;documentation.js</title>
<path fill="none" stroke="#c6c5fe" d="M651.08,-259.75C651.08,-259.75 486.67,-259.75 486.67,-259.75 482.71,-259.75 478.75,-255.79 478.75,-251.83 478.75,-251.83 478.75,-243.92 478.75,-243.92 478.75,-239.96 482.71,-236 486.67,-236 486.67,-236 651.08,-236 651.08,-236 655.04,-236 659,-239.96 659,-243.92 659,-243.92 659,-251.83 659,-251.83 659,-255.79 655.04,-259.75 651.08,-259.75"/>
<text text-anchor="middle" x="568.88" y="-242.45" font-family="Arial" font-size="14.00" fill="#c6c5fe">comment&#45;documentation.js</text>
</g>
<!-- file.js -->
<g id="node2" class="node">
<title>file.js</title>
<path fill="none" stroke="#c6c5fe" d="M757.71,-337.75C757.71,-337.75 719.54,-337.75 719.54,-337.75 715.58,-337.75 711.62,-333.79 711.62,-329.83 711.62,-329.83 711.62,-321.92 711.62,-321.92 711.62,-317.96 715.58,-314 719.54,-314 719.54,-314 757.71,-314 757.71,-314 761.67,-314 765.62,-317.96 765.62,-321.92 765.62,-321.92 765.62,-329.83 765.62,-329.83 765.62,-333.79 761.67,-337.75 757.71,-337.75"/>
<text text-anchor="middle" x="738.62" y="-320.45" font-family="Arial" font-size="14.00" fill="#c6c5fe">file.js</text>
</g>
<!-- comment&#45;documentation.js&#45;&gt;file.js -->
<g id="edge1" class="edge">
<title>comment&#45;documentation.js&#45;&gt;file.js</title>
<path fill="none" stroke="#757575" d="M622.77,-260.25C634.95,-263.93 647.65,-268.46 659,-273.88 676.58,-282.27 678.77,-288.11 695,-298.88 699.3,-301.73 703.89,-304.7 708.39,-307.59"/>
<polygon fill="#757575" stroke="#757575" points="706.39,-310.47 716.71,-312.87 710.15,-304.56 706.39,-310.47"/>
</g>
<!-- log.js -->
<g id="node3" class="node">
<title>log.js</title>
<path fill="none" stroke="#cfffac" d="M954.33,-219.75C954.33,-219.75 916.17,-219.75 916.17,-219.75 912.21,-219.75 908.25,-215.79 908.25,-211.83 908.25,-211.83 908.25,-203.92 908.25,-203.92 908.25,-199.96 912.21,-196 916.17,-196 916.17,-196 954.33,-196 954.33,-196 958.29,-196 962.25,-199.96 962.25,-203.92 962.25,-203.92 962.25,-211.83 962.25,-211.83 962.25,-215.79 958.29,-219.75 954.33,-219.75"/>
<text text-anchor="middle" x="935.25" y="-202.45" font-family="Arial" font-size="14.00" fill="#cfffac">log.js</text>
</g>
<!-- comment&#45;documentation.js&#45;&gt;log.js -->
<g id="edge2" class="edge">
<title>comment&#45;documentation.js&#45;&gt;log.js</title>
<path fill="none" stroke="#757575" d="M659.48,-238.04C735.65,-229.68 841.22,-218.09 896.72,-212"/>
<polygon fill="#757575" stroke="#757575" points="897.03,-215.48 906.59,-210.91 896.27,-208.52 897.03,-215.48"/>
</g>
<!-- text.js -->
<g id="node4" class="node">
<title>text.js</title>
<path fill="none" stroke="#c6c5fe" d="M864.33,-316.75C864.33,-316.75 826.17,-316.75 826.17,-316.75 822.21,-316.75 818.25,-312.79 818.25,-308.83 818.25,-308.83 818.25,-300.92 818.25,-300.92 818.25,-296.96 822.21,-293 826.17,-293 826.17,-293 864.33,-293 864.33,-293 868.29,-293 872.25,-296.96 872.25,-300.92 872.25,-300.92 872.25,-308.83 872.25,-308.83 872.25,-312.79 868.29,-316.75 864.33,-316.75"/>
<text text-anchor="middle" x="845.25" y="-299.45" font-family="Arial" font-size="14.00" fill="#c6c5fe">text.js</text>
</g>
<!-- comment&#45;documentation.js&#45;&gt;text.js -->
<g id="edge3" class="edge">
<title>comment&#45;documentation.js&#45;&gt;text.js</title>
<path fill="none" stroke="#757575" d="M629.41,-260.24C683.35,-271.45 761.16,-287.61 806.84,-297.1"/>
<polygon fill="#757575" stroke="#757575" points="806.01,-300.51 816.51,-299.11 807.44,-293.65 806.01,-300.51"/>
</g>
<!-- file.js&#45;&gt;text.js -->
<g id="edge30" class="edge">
<title>file.js&#45;&gt;text.js</title>
<path fill="none" stroke="#757575" d="M766.03,-320.58C778.42,-318.09 793.4,-315.08 806.93,-312.37"/>
<polygon fill="#757575" stroke="#757575" points="807.26,-315.87 816.37,-310.47 805.88,-309.01 807.26,-315.87"/>
</g>
<!-- text.js&#45;&gt;log.js -->
<g id="edge40" class="edge">
<title>text.js&#45;&gt;log.js</title>
<path fill="none" stroke="#757575" d="M857.4,-292.59C872.01,-276.48 897.85,-247.99 915.5,-228.54"/>
<polygon fill="#757575" stroke="#757575" points="918.05,-230.94 922.18,-221.18 912.87,-226.24 918.05,-230.94"/>
</g>
<!-- comment&#45;test.js -->
<g id="node5" class="node">
<title>comment&#45;test.js</title>
<path fill="none" stroke="#c6c5fe" d="M617.33,-495.75C617.33,-495.75 520.42,-495.75 520.42,-495.75 516.46,-495.75 512.5,-491.79 512.5,-487.83 512.5,-487.83 512.5,-479.92 512.5,-479.92 512.5,-475.96 516.46,-472 520.42,-472 520.42,-472 617.33,-472 617.33,-472 621.29,-472 625.25,-475.96 625.25,-479.92 625.25,-479.92 625.25,-487.83 625.25,-487.83 625.25,-491.79 621.29,-495.75 617.33,-495.75"/>
<text text-anchor="middle" x="568.88" y="-478.45" font-family="Arial" font-size="14.00" fill="#c6c5fe">comment&#45;test.js</text>
</g>
<!-- comment&#45;test.js&#45;&gt;file.js -->
<g id="edge5" class="edge">
<title>comment&#45;test.js&#45;&gt;file.js</title>
<path fill="none" stroke="#757575" d="M592.51,-471.58C611.41,-460.71 638.49,-443.69 659,-424.88 684.72,-401.29 708.82,-368.82 723.39,-347.59"/>
<polygon fill="#757575" stroke="#757575" points="726.21,-349.67 728.9,-339.42 720.4,-345.75 726.21,-349.67"/>
</g>
<!-- comment&#45;test.js&#45;&gt;text.js -->
<g id="edge6" class="edge">
<title>comment&#45;test.js&#45;&gt;text.js</title>
<path fill="none" stroke="#757575" d="M625.74,-491.59C672.27,-494.89 737.87,-491.88 782.25,-457.88 823.58,-426.2 837.48,-362.42 842.06,-328.06"/>
<polygon fill="#757575" stroke="#757575" points="845.51,-328.69 843.19,-318.35 838.56,-327.88 845.51,-328.69"/>
</g>
<!-- constants.js -->
<g id="node6" class="node">
<title>constants.js</title>
<path fill="none" stroke="#cfffac" d="M774.33,-547.75C774.33,-547.75 702.92,-547.75 702.92,-547.75 698.96,-547.75 695,-543.79 695,-539.83 695,-539.83 695,-531.92 695,-531.92 695,-527.96 698.96,-524 702.92,-524 702.92,-524 774.33,-524 774.33,-524 778.29,-524 782.25,-527.96 782.25,-531.92 782.25,-531.92 782.25,-539.83 782.25,-539.83 782.25,-543.79 778.29,-547.75 774.33,-547.75"/>
<text text-anchor="middle" x="738.62" y="-530.45" font-family="Arial" font-size="14.00" fill="#cfffac">constants.js</text>
</g>
<!-- comment&#45;test.js&#45;&gt;constants.js -->
<g id="edge4" class="edge">
<title>comment&#45;test.js&#45;&gt;constants.js</title>
<path fill="none" stroke="#757575" d="M625.36,-495.64C636.58,-498.38 648.23,-501.5 659,-504.88 672.1,-508.98 686.13,-514.22 698.66,-519.23"/>
<polygon fill="#757575" stroke="#757575" points="697.24,-522.43 707.82,-522.96 699.88,-515.95 697.24,-522.43"/>
</g>
<!-- comment.js -->
<g id="node7" class="node">
<title>comment.js</title>
<path fill="none" stroke="#c6c5fe" d="M434.83,-413.75C434.83,-413.75 364.17,-413.75 364.17,-413.75 360.21,-413.75 356.25,-409.79 356.25,-405.83 356.25,-405.83 356.25,-397.92 356.25,-397.92 356.25,-393.96 360.21,-390 364.17,-390 364.17,-390 434.83,-390 434.83,-390 438.79,-390 442.75,-393.96 442.75,-397.92 442.75,-397.92 442.75,-405.83 442.75,-405.83 442.75,-409.79 438.79,-413.75 434.83,-413.75"/>
<text text-anchor="middle" x="399.5" y="-396.45" font-family="Arial" font-size="14.00" fill="#c6c5fe">comment.js</text>
</g>
<!-- comment.js&#45;&gt;comment&#45;documentation.js -->
<g id="edge7" class="edge">
<title>comment.js&#45;&gt;comment&#45;documentation.js</title>
<path fill="none" stroke="#757575" d="M413.91,-389.53C442.95,-362.82 511.81,-299.46 546.75,-267.31"/>
<polygon fill="#757575" stroke="#757575" points="548.76,-270.22 553.75,-260.87 544.02,-265.07 548.76,-270.22"/>
</g>
<!-- comment.js&#45;&gt;file.js -->
<g id="edge9" class="edge">
<title>comment.js&#45;&gt;file.js</title>
<path fill="none" stroke="#757575" d="M443.1,-391.35C454.66,-388.55 467.17,-385.55 478.75,-382.88 557.57,-364.63 650.22,-344.56 700.53,-333.78"/>
<polygon fill="#757575" stroke="#757575" points="700.97,-337.27 710.01,-331.75 699.5,-330.42 700.97,-337.27"/>
</g>
<!-- comment.js&#45;&gt;log.js -->
<g id="edge10" class="edge">
<title>comment.js&#45;&gt;log.js</title>
<path fill="none" stroke="#757575" d="M401.68,-389.83C405.63,-357 421.51,-265.8 478.75,-226.88 609.55,-137.92 813.73,-176.27 897,-197.38"/>
<polygon fill="#757575" stroke="#757575" points="895.9,-200.71 906.46,-199.84 897.67,-193.94 895.9,-200.71"/>
</g>
<!-- comment.js&#45;&gt;text.js -->
<g id="edge14" class="edge">
<title>comment.js&#45;&gt;text.js</title>
<path fill="none" stroke="#757575" d="M434.7,-414.23C448.23,-418.51 464.03,-422.76 478.75,-424.88 558.04,-436.29 580.32,-439.94 659,-424.88 716.9,-413.79 734.13,-409.92 782.25,-375.88 801.32,-362.39 818.4,-341.87 829.78,-326.35"/>
<polygon fill="#757575" stroke="#757575" points="832.6,-328.42 835.52,-318.24 826.89,-324.38 832.6,-328.42"/>
</g>
<!-- comment.js&#45;&gt;comment&#45;test.js -->
<g id="edge8" class="edge">
<title>comment.js&#45;&gt;comment&#45;test.js</title>
<path fill="none" stroke="#757575" d="M414.56,-414.2C429.54,-426.76 454.41,-446.04 478.75,-457.88 486.7,-461.74 495.33,-465.14 503.99,-468.1"/>
<polygon fill="#757575" stroke="#757575" points="502.9,-471.43 513.49,-471.15 505.04,-464.76 502.9,-471.43"/>
</g>
<!-- next&#45;meta&#45;files.js -->
<g id="node8" class="node">
<title>next&#45;meta&#45;files.js</title>
<path fill="none" stroke="#c6c5fe" d="M620.33,-415.75C620.33,-415.75 517.42,-415.75 517.42,-415.75 513.46,-415.75 509.5,-411.79 509.5,-407.83 509.5,-407.83 509.5,-399.92 509.5,-399.92 509.5,-395.96 513.46,-392 517.42,-392 517.42,-392 620.33,-392 620.33,-392 624.29,-392 628.25,-395.96 628.25,-399.92 628.25,-399.92 628.25,-407.83 628.25,-407.83 628.25,-411.79 624.29,-415.75 620.33,-415.75"/>
<text text-anchor="middle" x="568.88" y="-398.45" font-family="Arial" font-size="14.00" fill="#c6c5fe">next&#45;meta&#45;files.js</text>
</g>
<!-- comment.js&#45;&gt;next&#45;meta&#45;files.js -->
<g id="edge11" class="edge">
<title>comment.js&#45;&gt;next&#45;meta&#45;files.js</title>
<path fill="none" stroke="#757575" d="M443.17,-402.38C459.77,-402.58 479.24,-402.82 497.78,-403.04"/>
<polygon fill="#757575" stroke="#757575" points="497.63,-406.54 507.67,-403.16 497.71,-399.54 497.63,-406.54"/>
</g>
<!-- renderer&#45;jest.js -->
<g id="node9" class="node">
<title>renderer&#45;jest.js</title>
<path fill="none" stroke="#c6c5fe" d="M613.96,-537.75C613.96,-537.75 523.79,-537.75 523.79,-537.75 519.83,-537.75 515.88,-533.79 515.88,-529.83 515.88,-529.83 515.88,-521.92 515.88,-521.92 515.88,-517.96 519.83,-514 523.79,-514 523.79,-514 613.96,-514 613.96,-514 617.92,-514 621.88,-517.96 621.88,-521.92 621.88,-521.92 621.88,-529.83 621.88,-529.83 621.88,-533.79 617.92,-537.75 613.96,-537.75"/>
<text text-anchor="middle" x="568.88" y="-520.45" font-family="Arial" font-size="14.00" fill="#c6c5fe">renderer&#45;jest.js</text>
</g>
<!-- comment.js&#45;&gt;renderer&#45;jest.js -->
<g id="edge12" class="edge">
<title>comment.js&#45;&gt;renderer&#45;jest.js</title>
<path fill="none" stroke="#757575" d="M406.29,-414.25C417.2,-436.15 442.97,-481.63 478.75,-504.88 486.52,-509.92 495.37,-513.76 504.41,-516.68"/>
<polygon fill="#757575" stroke="#757575" points="503.44,-520.04 514.02,-519.39 505.34,-513.31 503.44,-520.04"/>
</g>
<!-- renderer&#45;markdown.js -->
<g id="node10" class="node">
<title>renderer&#45;markdown.js</title>
<path fill="none" stroke="#c6c5fe" d="M634.96,-617.75C634.96,-617.75 502.79,-617.75 502.79,-617.75 498.83,-617.75 494.88,-613.79 494.88,-609.83 494.88,-609.83 494.88,-601.92 494.88,-601.92 494.88,-597.96 498.83,-594 502.79,-594 502.79,-594 634.96,-594 634.96,-594 638.92,-594 642.88,-597.96 642.88,-601.92 642.88,-601.92 642.88,-609.83 642.88,-609.83 642.88,-613.79 638.92,-617.75 634.96,-617.75"/>
<text text-anchor="middle" x="568.88" y="-600.45" font-family="Arial" font-size="14.00" fill="#c6c5fe">renderer&#45;markdown.js</text>
</g>
<!-- comment.js&#45;&gt;renderer&#45;markdown.js -->
<g id="edge13" class="edge">
<title>comment.js&#45;&gt;renderer&#45;markdown.js</title>
<path fill="none" stroke="#757575" d="M404.7,-413.99C414.37,-440.54 440.35,-504.86 478.75,-546.88 494.03,-563.59 515,-577.78 532.76,-588.05"/>
<polygon fill="#757575" stroke="#757575" points="531.01,-591.09 541.45,-592.9 534.42,-584.97 531.01,-591.09"/>
</g>
<!-- next&#45;meta&#45;files.js&#45;&gt;file.js -->
<g id="edge31" class="edge">
<title>next&#45;meta&#45;files.js&#45;&gt;file.js</title>
<path fill="none" stroke="#757575" d="M621.74,-391.6C634.21,-387.87 647.3,-383.3 659,-377.88 678.24,-368.95 698.16,-355.74 713.13,-344.86"/>
<polygon fill="#757575" stroke="#757575" points="715.04,-347.8 720.98,-339.02 710.87,-342.18 715.04,-347.8"/>
</g>
<!-- next&#45;meta&#45;files.js&#45;&gt;text.js -->
<g id="edge32" class="edge">
<title>next&#45;meta&#45;files.js&#45;&gt;text.js</title>
<path fill="none" stroke="#757575" d="M628.46,-393.63C672.15,-384.7 732.6,-369.57 782.25,-346.88 795.6,-340.77 809.24,-331.88 820.31,-323.85"/>
<polygon fill="#757575" stroke="#757575" points="822.19,-326.81 828.1,-318.01 818,-321.21 822.19,-326.81"/>
</g>
<!-- renderer&#45;jest.js&#45;&gt;constants.js -->
<g id="edge37" class="edge">
<title>renderer&#45;jest.js&#45;&gt;constants.js</title>
<path fill="none" stroke="#757575" d="M622.03,-528.98C641.49,-530.14 663.62,-531.46 683.27,-532.63"/>
<polygon fill="#757575" stroke="#757575" points="682.81,-536.11 693,-533.21 683.23,-529.13 682.81,-536.11"/>
</g>
<!-- renderer&#45;markdown.js&#45;&gt;log.js -->
<g id="edge39" class="edge">
<title>renderer&#45;markdown.js&#45;&gt;log.js</title>
<path fill="none" stroke="#757575" d="M643.29,-605.06C687.94,-600.97 743.62,-588.98 782.25,-556.88 887.79,-469.16 922.12,-294.11 931.33,-231.13"/>
<polygon fill="#757575" stroke="#757575" points="934.74,-231.97 932.64,-221.58 927.81,-231.01 934.74,-231.97"/>
</g>
<!-- renderer&#45;markdown.js&#45;&gt;constants.js -->
<g id="edge38" class="edge">
<title>renderer&#45;markdown.js&#45;&gt;constants.js</title>
<path fill="none" stroke="#757575" d="M619.6,-593.53C632.63,-589.71 646.51,-585.11 659,-579.88 676.23,-572.65 694.5,-562.59 709.08,-553.91"/>
<polygon fill="#757575" stroke="#757575" points="710.51,-557.14 717.24,-548.96 706.88,-551.16 710.51,-557.14"/>
</g>
<!-- doctor&#45;general.js -->
<g id="node11" class="node">
<title>doctor&#45;general.js</title>
<path fill="none" stroke="#c6c5fe" d="M108.58,-195.75C108.58,-195.75 7.92,-195.75 7.92,-195.75 3.96,-195.75 0,-191.79 0,-187.83 0,-187.83 0,-179.92 0,-179.92 0,-175.96 3.96,-172 7.92,-172 7.92,-172 108.58,-172 108.58,-172 112.54,-172 116.5,-175.96 116.5,-179.92 116.5,-179.92 116.5,-187.83 116.5,-187.83 116.5,-191.79 112.54,-195.75 108.58,-195.75"/>
<text text-anchor="middle" x="58.25" y="-178.45" font-family="Arial" font-size="14.00" fill="#c6c5fe">doctor&#45;general.js</text>
</g>
<!-- doctor&#45;general.js&#45;&gt;file.js -->
<g id="edge18" class="edge">
<title>doctor&#45;general.js&#45;&gt;file.js</title>
<path fill="none" stroke="#757575" d="M69.1,-195.98C98.23,-230.32 188.03,-325.88 285.38,-325.88 285.38,-325.88 285.38,-325.88 400.5,-325.88 509.37,-325.88 638.02,-325.88 700.22,-325.88"/>
<polygon fill="#757575" stroke="#757575" points="699.88,-329.38 709.88,-325.88 699.88,-322.38 699.88,-329.38"/>
</g>
<!-- doctor&#45;general.js&#45;&gt;log.js -->
<g id="edge19" class="edge">
<title>doctor&#45;general.js&#45;&gt;log.js</title>
<path fill="none" stroke="#757575" d="M59.4,-196.23C60.97,-269.7 79.09,-645.88 285.38,-645.88 285.38,-645.88 285.38,-645.88 739.62,-645.88 922.62,-645.88 934.84,-322.63 934.65,-231.52"/>
<polygon fill="#757575" stroke="#757575" points="938.15,-231.53 934.56,-221.56 931.15,-231.59 938.15,-231.53"/>
</g>
<!-- doctor&#45;general.js&#45;&gt;text.js -->
<g id="edge23" class="edge">
<title>doctor&#45;general.js&#45;&gt;text.js</title>
<path fill="none" stroke="#757575" d="M116.64,-181.86C223.8,-178.98 461.36,-176.67 659,-203.88 714.65,-211.53 734.22,-202.75 782.25,-231.88 803.09,-244.51 820.39,-266.61 831.37,-283.19"/>
<polygon fill="#757575" stroke="#757575" points="828.26,-284.81 836.56,-291.39 834.17,-281.07 828.26,-284.81"/>
</g>
<!-- doctor&#45;general.js&#45;&gt;constants.js -->
<g id="edge16" class="edge">
<title>doctor&#45;general.js&#45;&gt;constants.js</title>
<path fill="none" stroke="#757575" d="M60.42,-196.15C67.39,-261.54 109.28,-565.88 285.38,-565.88 285.38,-565.88 285.38,-565.88 400.5,-565.88 515.7,-565.88 544.45,-559.08 659,-546.88 666.92,-546.03 675.27,-545.01 683.45,-543.93"/>
<polygon fill="#757575" stroke="#757575" points="683.9,-547.4 693.34,-542.58 682.96,-540.46 683.9,-547.4"/>
</g>
<!-- doctor&#45;general.js&#45;&gt;comment.js -->
<g id="edge15" class="edge">
<title>doctor&#45;general.js&#45;&gt;comment.js</title>
<path fill="none" stroke="#757575" d="M62.84,-195.82C72.3,-225.21 100.85,-301.46 152.5,-339.88 209.13,-381.99 291.25,-395.68 344.76,-400.02"/>
<polygon fill="#757575" stroke="#757575" points="344.32,-403.5 354.55,-400.72 344.83,-396.51 344.32,-403.5"/>
</g>
<!-- drgen.js -->
<g id="node12" class="node">
<title>drgen.js</title>
<path fill="none" stroke="#c6c5fe" d="M208.58,-136.75C208.58,-136.75 160.42,-136.75 160.42,-136.75 156.46,-136.75 152.5,-132.79 152.5,-128.83 152.5,-128.83 152.5,-120.92 152.5,-120.92 152.5,-116.96 156.46,-113 160.42,-113 160.42,-113 208.58,-113 208.58,-113 212.54,-113 216.5,-116.96 216.5,-120.92 216.5,-120.92 216.5,-128.83 216.5,-128.83 216.5,-132.79 212.54,-136.75 208.58,-136.75"/>
<text text-anchor="middle" x="184.5" y="-119.45" font-family="Arial" font-size="14.00" fill="#c6c5fe">drgen.js</text>
</g>
<!-- doctor&#45;general.js&#45;&gt;drgen.js -->
<g id="edge17" class="edge">
<title>doctor&#45;general.js&#45;&gt;drgen.js</title>
<path fill="none" stroke="#757575" d="M85.3,-171.51C103.27,-162.97 127.41,-151.51 147.26,-142.08"/>
<polygon fill="#757575" stroke="#757575" points="148.59,-145.33 156.12,-137.88 145.59,-139 148.59,-145.33"/>
</g>
<!-- parse.js -->
<g id="node13" class="node">
<title>parse.js</title>
<path fill="none" stroke="#c6c5fe" d="M310.08,-219.75C310.08,-219.75 262.67,-219.75 262.67,-219.75 258.71,-219.75 254.75,-215.79 254.75,-211.83 254.75,-211.83 254.75,-203.92 254.75,-203.92 254.75,-199.96 258.71,-196 262.67,-196 262.67,-196 310.08,-196 310.08,-196 314.04,-196 318,-199.96 318,-203.92 318,-203.92 318,-211.83 318,-211.83 318,-215.79 314.04,-219.75 310.08,-219.75"/>
<text text-anchor="middle" x="286.38" y="-202.45" font-family="Arial" font-size="14.00" fill="#c6c5fe">parse.js</text>
</g>
<!-- doctor&#45;general.js&#45;&gt;parse.js -->
<g id="edge20" class="edge">
<title>doctor&#45;general.js&#45;&gt;parse.js</title>
<path fill="none" stroke="#757575" d="M116.9,-189.99C156.16,-194.16 207.27,-199.59 242.86,-203.36"/>
<polygon fill="#757575" stroke="#757575" points="242.47,-206.84 252.79,-204.42 243.21,-199.88 242.47,-206.84"/>
</g>
<!-- reader.js -->
<g id="node14" class="node">
<title>reader.js</title>
<path fill="none" stroke="#c6c5fe" d="M312.33,-67.75C312.33,-67.75 260.42,-67.75 260.42,-67.75 256.46,-67.75 252.5,-63.79 252.5,-59.83 252.5,-59.83 252.5,-51.92 252.5,-51.92 252.5,-47.96 256.46,-44 260.42,-44 260.42,-44 312.33,-44 312.33,-44 316.29,-44 320.25,-47.96 320.25,-51.92 320.25,-51.92 320.25,-59.83 320.25,-59.83 320.25,-63.79 316.29,-67.75 312.33,-67.75"/>
<text text-anchor="middle" x="286.38" y="-50.45" font-family="Arial" font-size="14.00" fill="#c6c5fe">reader.js</text>
</g>
<!-- doctor&#45;general.js&#45;&gt;reader.js -->
<g id="edge21" class="edge">
<title>doctor&#45;general.js&#45;&gt;reader.js</title>
<path fill="none" stroke="#757575" d="M70.53,-171.74C87.07,-154.56 119.52,-123.11 152.5,-103.88 180.31,-87.66 214.53,-75.45 241.28,-67.41"/>
<polygon fill="#757575" stroke="#757575" points="242.17,-70.8 250.79,-64.64 240.21,-64.08 242.17,-70.8"/>
</g>
<!-- stats.js -->
<g id="node15" class="node">
<title>stats.js</title>
<path fill="none" stroke="#cfffac" d="M205.58,-56.75C205.58,-56.75 163.42,-56.75 163.42,-56.75 159.46,-56.75 155.5,-52.79 155.5,-48.83 155.5,-48.83 155.5,-40.92 155.5,-40.92 155.5,-36.96 159.46,-33 163.42,-33 163.42,-33 205.58,-33 205.58,-33 209.54,-33 213.5,-36.96 213.5,-40.92 213.5,-40.92 213.5,-48.83 213.5,-48.83 213.5,-52.79 209.54,-56.75 205.58,-56.75"/>
<text text-anchor="middle" x="184.5" y="-39.45" font-family="Arial" font-size="14.00" fill="#cfffac">stats.js</text>
</g>
<!-- doctor&#45;general.js&#45;&gt;stats.js -->
<g id="edge22" class="edge">
<title>doctor&#45;general.js&#45;&gt;stats.js</title>
<path fill="none" stroke="#757575" d="M68.11,-171.72C83.95,-150.33 118.64,-105 152.5,-70.88 154.73,-68.63 157.13,-66.37 159.57,-64.17"/>
<polygon fill="#757575" stroke="#757575" points="161.42,-67.2 166.73,-58.03 156.86,-61.89 161.42,-67.2"/>
</g>
<!-- writer.js -->
<g id="node16" class="node">
<title>writer.js</title>
<path fill="none" stroke="#cfffac" d="M309.33,-23.75C309.33,-23.75 263.42,-23.75 263.42,-23.75 259.46,-23.75 255.5,-19.79 255.5,-15.83 255.5,-15.83 255.5,-7.92 255.5,-7.92 255.5,-3.96 259.46,0 263.42,0 263.42,0 309.33,0 309.33,0 313.29,0 317.25,-3.96 317.25,-7.92 317.25,-7.92 317.25,-15.83 317.25,-15.83 317.25,-19.79 313.29,-23.75 309.33,-23.75"/>
<text text-anchor="middle" x="286.38" y="-6.45" font-family="Arial" font-size="14.00" fill="#cfffac">writer.js</text>
</g>
<!-- doctor&#45;general.js&#45;&gt;writer.js -->
<g id="edge24" class="edge">
<title>doctor&#45;general.js&#45;&gt;writer.js</title>
<path fill="none" stroke="#757575" d="M62.26,-171.57C70.55,-140.57 96.89,-59.25 152.5,-23.88 179.43,-6.74 215.88,-4.58 243.78,-6.23"/>
<polygon fill="#757575" stroke="#757575" points="243.41,-9.71 253.66,-7.02 243.97,-2.73 243.41,-9.71"/>
</g>
<!-- drgen.js&#45;&gt;log.js -->
<g id="edge26" class="edge">
<title>drgen.js&#45;&gt;log.js</title>
<path fill="none" stroke="#757575" d="M216.69,-118.59C306.55,-101.74 572.9,-60.54 782.25,-117.88 832.48,-131.63 882.95,-166.73 911.24,-188.81"/>
<polygon fill="#757575" stroke="#757575" points="908.77,-191.32 918.77,-194.81 913.13,-185.84 908.77,-191.32"/>
</g>
<!-- drgen.js&#45;&gt;comment.js -->
<g id="edge25" class="edge">
<title>drgen.js&#45;&gt;comment.js</title>
<path fill="none" stroke="#757575" d="M192.65,-137.06C204.41,-156.84 228.88,-196.92 252.5,-228.88 295.03,-286.4 350.9,-349.59 379.63,-381.3"/>
<polygon fill="#757575" stroke="#757575" points="376.97,-383.58 386.29,-388.62 382.14,-378.86 376.97,-383.58"/>
</g>
<!-- drgen.js&#45;&gt;parse.js -->
<g id="edge27" class="edge">
<title>drgen.js&#45;&gt;parse.js</title>
<path fill="none" stroke="#757575" d="M200.24,-137.12C216.46,-150.61 242.78,-172.48 261.87,-188.34"/>
<polygon fill="#757575" stroke="#757575" points="259.49,-190.91 269.41,-194.61 263.96,-185.53 259.49,-190.91"/>
</g>
<!-- drgen.js&#45;&gt;reader.js -->
<g id="edge28" class="edge">
<title>drgen.js&#45;&gt;reader.js</title>
<path fill="none" stroke="#757575" d="M203.36,-112.54C218.69,-101.94 241.04,-86.51 258.53,-74.42"/>
<polygon fill="#757575" stroke="#757575" points="260.19,-77.53 266.43,-68.96 256.21,-71.77 260.19,-77.53"/>
</g>
<!-- drgen.js&#45;&gt;writer.js -->
<g id="edge29" class="edge">
<title>drgen.js&#45;&gt;writer.js</title>
<path fill="none" stroke="#757575" d="M192.87,-112.55C204.19,-94.26 227.2,-59.44 252.5,-34.88 253.87,-33.54 255.33,-32.23 256.84,-30.95"/>
<polygon fill="#757575" stroke="#757575" points="258.82,-33.84 264.6,-24.96 254.54,-28.3 258.82,-33.84"/>
</g>
<!-- parse.js&#45;&gt;file.js -->
<g id="edge34" class="edge">
<title>parse.js&#45;&gt;file.js</title>
<path fill="none" stroke="#757575" d="M318.27,-218.69C355.89,-231.63 421.5,-253.48 478.75,-268.88 556.88,-289.88 649.79,-308.92 700.33,-318.78"/>
<polygon fill="#757575" stroke="#757575" points="699.37,-322.16 709.86,-320.63 700.71,-315.29 699.37,-322.16"/>
</g>
<!-- parse.js&#45;&gt;text.js -->
<g id="edge35" class="edge">
<title>parse.js&#45;&gt;text.js</title>
<path fill="none" stroke="#757575" d="M318.09,-206.45C382.18,-204.13 534.51,-202.03 659,-226.88 716.04,-238.26 729.19,-247.04 782.25,-270.88 792.8,-275.62 803.99,-281.48 813.92,-286.99"/>
<polygon fill="#757575" stroke="#757575" points="811.98,-289.91 822.4,-291.8 815.43,-283.82 811.98,-289.91"/>
</g>
<!-- parse.js&#45;&gt;comment.js -->
<g id="edge33" class="edge">
<title>parse.js&#45;&gt;comment.js</title>
<path fill="none" stroke="#757575" d="M294.33,-220.01C312.65,-251.99 362.45,-338.93 385.93,-379.93"/>
<polygon fill="#757575" stroke="#757575" points="382.79,-381.49 390.8,-388.43 388.87,-378.01 382.79,-381.49"/>
</g>
<!-- reader.js&#45;&gt;log.js -->
<g id="edge36" class="edge">
<title>reader.js&#45;&gt;log.js</title>
<path fill="none" stroke="#757575" d="M320.62,-55.88C373.14,-55.88 478.51,-55.88 567.88,-55.88 567.88,-55.88 567.88,-55.88 739.62,-55.88 799.53,-55.88 824.54,-43.65 872.25,-79.88 906.32,-105.74 922.67,-155.22 929.68,-184.51"/>
<polygon fill="#757575" stroke="#757575" points="926.25,-185.2 931.82,-194.22 933.09,-183.7 926.25,-185.2"/>
</g>
</g>
</svg>
