<?xml version="1.0" encoding="UTF-8" standalone="no"?>
<!DOCTYPE svg PUBLIC "-//W3C//DTD SVG 1.1//EN"
 "http://www.w3.org/Graphics/SVG/1.1/DTD/svg11.dtd">
<!-- Generated by graphviz version 8.0.5 (20230430.1635)
 -->
<!-- Title: G Pages: 1 -->
<svg width="414pt" height="185pt"
 viewBox="0.00 0.00 414.45 184.95" xmlns="http://www.w3.org/2000/svg" xmlns:xlink="http://www.w3.org/1999/xlink">
<g id="graph0" class="graph" transform="scale(1 1) rotate(0) translate(21.6 163.35)">
<title>G</title>
<polygon fill="#111111" stroke="none" points="-21.6,21.6 -21.6,-163.35 392.85,-163.35 392.85,21.6 -21.6,21.6"/>
<!-- cli.js -->
<g id="node1" class="node">
<title>cli.js</title>
<path fill="none" stroke="#c6c5fe" d="M46.08,-83.75C46.08,-83.75 7.92,-83.75 7.92,-83.75 3.96,-83.75 0,-79.79 0,-75.83 0,-75.83 0,-67.92 0,-67.92 0,-63.96 3.96,-60 7.92,-60 7.92,-60 46.08,-60 46.08,-60 50.04,-60 54,-63.96 54,-67.92 54,-67.92 54,-75.83 54,-75.83 54,-79.79 50.04,-83.75 46.08,-83.75"/>
<text text-anchor="middle" x="27" y="-66.45" font-family="Arial" font-size="14.00" fill="#c6c5fe">cli.js</text>
</g>
<!-- parse.js -->
<g id="node2" class="node">
<title>parse.js</title>
<path fill="none" stroke="#c6c5fe" d="M145.33,-83.75C145.33,-83.75 97.92,-83.75 97.92,-83.75 93.96,-83.75 90,-79.79 90,-75.83 90,-75.83 90,-67.92 90,-67.92 90,-63.96 93.96,-60 97.92,-60 97.92,-60 145.33,-60 145.33,-60 149.29,-60 153.25,-63.96 153.25,-67.92 153.25,-67.92 153.25,-75.83 153.25,-75.83 153.25,-79.79 149.29,-83.75 145.33,-83.75"/>
<text text-anchor="middle" x="121.62" y="-66.45" font-family="Arial" font-size="14.00" fill="#c6c5fe">parse.js</text>
</g>
<!-- cli.js&#45;&gt;parse.js -->
<g id="edge1" class="edge">
<title>cli.js&#45;&gt;parse.js</title>
<path fill="none" stroke="#757575" d="M54.29,-71.88C61.96,-71.88 70.52,-71.88 78.89,-71.88"/>
<polygon fill="#757575" stroke="#757575" points="78.67,-75.38 88.67,-71.88 78.67,-68.38 78.67,-75.38"/>
</g>
<!-- text.js -->
<g id="node3" class="node">
<title>text.js</title>
<path fill="none" stroke="#cfffac" d="M360.58,-141.75C360.58,-141.75 322.42,-141.75 322.42,-141.75 318.46,-141.75 314.5,-137.79 314.5,-133.83 314.5,-133.83 314.5,-125.92 314.5,-125.92 314.5,-121.96 318.46,-118 322.42,-118 322.42,-118 360.58,-118 360.58,-118 364.54,-118 368.5,-121.96 368.5,-125.92 368.5,-125.92 368.5,-133.83 368.5,-133.83 368.5,-137.79 364.54,-141.75 360.58,-141.75"/>
<text text-anchor="middle" x="341.5" y="-124.45" font-family="Arial" font-size="14.00" fill="#cfffac">text.js</text>
</g>
<!-- cli.js&#45;&gt;text.js -->
<g id="edge2" class="edge">
<title>cli.js&#45;&gt;text.js</title>
<path fill="none" stroke="#757575" d="M54.35,-81.51C65.3,-85.32 78.18,-89.57 90,-92.88 133.52,-105.03 144.63,-107.74 189.25,-114.88 228.01,-121.07 272.78,-125.13 303.5,-127.44"/>
<polygon fill="#757575" stroke="#757575" points="302.92,-130.98 313.15,-128.22 303.43,-124 302.92,-130.98"/>
</g>
<!-- trace.js -->
<g id="node4" class="node">
<title>trace.js</title>
<path fill="none" stroke="#cfffac" d="M363.33,-23.75C363.33,-23.75 319.67,-23.75 319.67,-23.75 315.71,-23.75 311.75,-19.79 311.75,-15.83 311.75,-15.83 311.75,-7.92 311.75,-7.92 311.75,-3.96 315.71,0 319.67,0 319.67,0 363.33,0 363.33,0 367.29,0 371.25,-3.96 371.25,-7.92 371.25,-7.92 371.25,-15.83 371.25,-15.83 371.25,-19.79 367.29,-23.75 363.33,-23.75"/>
<text text-anchor="middle" x="341.5" y="-6.45" font-family="Arial" font-size="14.00" fill="#cfffac">trace.js</text>
</g>
<!-- cli.js&#45;&gt;trace.js -->
<g id="edge3" class="edge">
<title>cli.js&#45;&gt;trace.js</title>
<path fill="none" stroke="#757575" d="M52.06,-59.6C82.9,-44.63 138.46,-20.16 189.25,-10.88 227.07,-3.96 237.31,-10.58 275.75,-10.88 283.79,-10.94 292.39,-11.04 300.61,-11.16"/>
<polygon fill="#757575" stroke="#757575" points="300.44,-14.68 310.49,-11.33 300.55,-7.68 300.44,-14.68"/>
</g>
<!-- parse.js&#45;&gt;text.js -->
<g id="edge9" class="edge">
<title>parse.js&#45;&gt;text.js</title>
<path fill="none" stroke="#757575" d="M153.38,-80.06C192.87,-90.58 261.34,-108.8 303.6,-120.05"/>
<polygon fill="#757575" stroke="#757575" points="302.44,-123.63 313,-122.82 304.24,-116.87 302.44,-123.63"/>
</g>
<!-- parse.js&#45;&gt;trace.js -->
<g id="edge10" class="edge">
<title>parse.js&#45;&gt;trace.js</title>
<path fill="none" stroke="#757575" d="M138.33,-59.51C151.24,-50.04 170.42,-37.5 189.25,-30.88 225.6,-18.08 269.54,-13.7 300.67,-12.29"/>
<polygon fill="#757575" stroke="#757575" points="300.65,-15.76 310.52,-11.9 300.4,-8.76 300.65,-15.76"/>
</g>
<!-- comment.js -->
<g id="node5" class="node">
<title>comment.js</title>
<path fill="none" stroke="#c6c5fe" d="M267.83,-63.75C267.83,-63.75 197.17,-63.75 197.17,-63.75 193.21,-63.75 189.25,-59.79 189.25,-55.83 189.25,-55.83 189.25,-47.92 189.25,-47.92 189.25,-43.96 193.21,-40 197.17,-40 197.17,-40 267.83,-40 267.83,-40 271.79,-40 275.75,-43.96 275.75,-47.92 275.75,-47.92 275.75,-55.83 275.75,-55.83 275.75,-59.79 271.79,-63.75 267.83,-63.75"/>
<text text-anchor="middle" x="232.5" y="-46.45" font-family="Arial" font-size="14.00" fill="#c6c5fe">comment.js</text>
</g>
<!-- parse.js&#45;&gt;comment.js -->
<g id="edge7" class="edge">
<title>parse.js&#45;&gt;comment.js</title>
<path fill="none" stroke="#757575" d="M153.53,-66.2C161.31,-64.77 169.89,-63.19 178.42,-61.63"/>
<polygon fill="#757575" stroke="#757575" points="178.93,-64.91 188.13,-59.66 177.67,-58.02 178.93,-64.91"/>
</g>
<!-- file.js -->
<g id="node6" class="node">
<title>file.js</title>
<path fill="none" stroke="#cfffac" d="M360.58,-82.75C360.58,-82.75 322.42,-82.75 322.42,-82.75 318.46,-82.75 314.5,-78.79 314.5,-74.83 314.5,-74.83 314.5,-66.92 314.5,-66.92 314.5,-62.96 318.46,-59 322.42,-59 322.42,-59 360.58,-59 360.58,-59 364.54,-59 368.5,-62.96 368.5,-66.92 368.5,-66.92 368.5,-74.83 368.5,-74.83 368.5,-78.79 364.54,-82.75 360.58,-82.75"/>
<text text-anchor="middle" x="341.5" y="-65.45" font-family="Arial" font-size="14.00" fill="#cfffac">file.js</text>
</g>
<!-- parse.js&#45;&gt;file.js -->
<g id="edge8" class="edge">
<title>parse.js&#45;&gt;file.js</title>
<path fill="none" stroke="#757575" d="M153.71,-72.48C184.65,-72.98 233.49,-73.53 275.75,-72.88 284.61,-72.74 294.14,-72.5 303.1,-72.23"/>
<polygon fill="#757575" stroke="#757575" points="303.16,-75.69 313.04,-71.88 302.93,-68.7 303.16,-75.69"/>
</g>
<!-- comment.js&#45;&gt;text.js -->
<g id="edge5" class="edge">
<title>comment.js&#45;&gt;text.js</title>
<path fill="none" stroke="#757575" d="M250.22,-64.06C267.55,-76.7 294.86,-96.6 314.91,-111.22"/>
<polygon fill="#757575" stroke="#757575" points="312.4,-114.45 322.55,-117.52 316.53,-108.8 312.4,-114.45"/>
</g>
<!-- comment.js&#45;&gt;trace.js -->
<g id="edge6" class="edge">
<title>comment.js&#45;&gt;trace.js</title>
<path fill="none" stroke="#757575" d="M266.48,-39.55C277.48,-35.43 289.84,-30.81 301.27,-26.54"/>
<polygon fill="#757575" stroke="#757575" points="302.3,-29.52 310.44,-22.74 299.84,-22.96 302.3,-29.52"/>
</g>
<!-- comment.js&#45;&gt;file.js -->
<g id="edge4" class="edge">
<title>comment.js&#45;&gt;file.js</title>
<path fill="none" stroke="#757575" d="M276.1,-59.44C285.11,-61.04 294.56,-62.72 303.35,-64.28"/>
<polygon fill="#757575" stroke="#757575" points="302.6,-67.88 313.06,-66.18 303.83,-60.99 302.6,-67.88"/>
</g>
</g>
</svg>
