<?xml version="1.0" encoding="UTF-8" standalone="no"?>
<!DOCTYPE svg PUBLIC "-//W3C//DTD SVG 1.1//EN"
 "http://www.w3.org/Graphics/SVG/1.1/DTD/svg11.dtd">
<!-- Generated by graphviz version 9.0.0 (20230911.1827)
 -->
<!-- Title: G Pages: 1 -->
<svg width="245pt" height="193pt"
 viewBox="0.00 0.00 244.70 192.95" xmlns="http://www.w3.org/2000/svg" xmlns:xlink="http://www.w3.org/1999/xlink">
<g id="graph0" class="graph" transform="scale(1 1) rotate(0) translate(21.6 171.35)">
<title>G</title>
<polygon fill="#111111" stroke="none" points="-21.6,21.6 -21.6,-171.35 223.1,-171.35 223.1,21.6 -21.6,21.6"/>
<!-- array.js -->
<g id="node1" class="node">
<title>array.js</title>
<path fill="none" stroke="#cfffac" d="M179.71,-149.75C179.71,-149.75 136.04,-149.75 136.04,-149.75 132.08,-149.75 128.12,-145.79 128.12,-141.83 128.12,-141.83 128.12,-133.92 128.12,-133.92 128.12,-129.96 132.08,-126 136.04,-126 136.04,-126 179.71,-126 179.71,-126 183.67,-126 187.62,-129.96 187.62,-133.92 187.62,-133.92 187.62,-141.83 187.62,-141.83 187.62,-145.79 183.67,-149.75 179.71,-149.75"/>
<text text-anchor="middle" x="157.88" y="-132.45" font-family="Arial" font-size="14.00" fill="#cfffac">array.js</text>
</g>
<!-- common.js -->
<g id="node2" class="node">
<title>common.js</title>
<path fill="none" stroke="#cfffac" d="M191.33,-107.75C191.33,-107.75 124.42,-107.75 124.42,-107.75 120.46,-107.75 116.5,-103.79 116.5,-99.83 116.5,-99.83 116.5,-91.92 116.5,-91.92 116.5,-87.96 120.46,-84 124.42,-84 124.42,-84 191.33,-84 191.33,-84 195.29,-84 199.25,-87.96 199.25,-91.92 199.25,-91.92 199.25,-99.83 199.25,-99.83 199.25,-103.79 195.29,-107.75 191.33,-107.75"/>
<text text-anchor="middle" x="157.88" y="-90.45" font-family="Arial" font-size="14.00" fill="#cfffac">common.js</text>
</g>
<!-- inherent.js -->
<g id="node3" class="node">
<title>inherent.js</title>
<path fill="none" stroke="#c6c5fe" d="M70.33,-86.75C70.33,-86.75 7.92,-86.75 7.92,-86.75 3.96,-86.75 0,-82.79 0,-78.83 0,-78.83 0,-70.92 0,-70.92 0,-66.96 3.96,-63 7.92,-63 7.92,-63 70.33,-63 70.33,-63 74.29,-63 78.25,-66.96 78.25,-70.92 78.25,-70.92 78.25,-78.83 78.25,-78.83 78.25,-82.79 74.29,-86.75 70.33,-86.75"/>
<text text-anchor="middle" x="39.12" y="-69.45" font-family="Arial" font-size="14.00" fill="#c6c5fe">inherent.js</text>
</g>
<!-- inherent.js&#45;&gt;array.js -->
<g id="edge1" class="edge">
<title>inherent.js&#45;&gt;array.js</title>
<path fill="none" stroke="#757575" d="M61.03,-87.15C75.79,-95.7 96.08,-107.26 114.25,-116.88 116.59,-118.11 119.01,-119.37 121.46,-120.62"/>
<polygon fill="#757575" stroke="#757575" points="119.65,-123.63 130.16,-125 122.8,-117.38 119.65,-123.63"/>
</g>
<!-- inherent.js&#45;&gt;common.js -->
<g id="edge2" class="edge">
<title>inherent.js&#45;&gt;common.js</title>
<path fill="none" stroke="#757575" d="M78.68,-81.81C87.18,-83.34 96.31,-84.98 105.24,-86.59"/>
<polygon fill="#757575" stroke="#757575" points="104.41,-89.99 114.87,-88.32 105.65,-83.1 104.41,-89.99"/>
</g>
<!-- object.js -->
<g id="node4" class="node">
<title>object.js</title>
<path fill="none" stroke="#cfffac" d="M182.71,-65.75C182.71,-65.75 133.04,-65.75 133.04,-65.75 129.08,-65.75 125.12,-61.79 125.12,-57.83 125.12,-57.83 125.12,-49.92 125.12,-49.92 125.12,-45.96 129.08,-42 133.04,-42 133.04,-42 182.71,-42 182.71,-42 186.67,-42 190.62,-45.96 190.62,-49.92 190.62,-49.92 190.62,-57.83 190.62,-57.83 190.62,-61.79 186.67,-65.75 182.71,-65.75"/>
<text text-anchor="middle" x="157.88" y="-48.45" font-family="Arial" font-size="14.00" fill="#cfffac">object.js</text>
</g>
<!-- inherent.js&#45;&gt;object.js -->
<g id="edge3" class="edge">
<title>inherent.js&#45;&gt;object.js</title>
<path fill="none" stroke="#757575" d="M78.68,-67.94C89.93,-65.92 102.31,-63.69 113.83,-61.62"/>
<polygon fill="#757575" stroke="#757575" points="114.27,-65.09 123.5,-59.88 113.03,-58.2 114.27,-65.09"/>
</g>
<!-- primitives.js -->
<g id="node5" class="node">
<title>primitives.js</title>
<path fill="none" stroke="#cfffac" d="M193.58,-23.75C193.58,-23.75 122.17,-23.75 122.17,-23.75 118.21,-23.75 114.25,-19.79 114.25,-15.83 114.25,-15.83 114.25,-7.92 114.25,-7.92 114.25,-3.96 118.21,0 122.17,0 122.17,0 193.58,0 193.58,0 197.54,0 201.5,-3.96 201.5,-7.92 201.5,-7.92 201.5,-15.83 201.5,-15.83 201.5,-19.79 197.54,-23.75 193.58,-23.75"/>
<text text-anchor="middle" x="157.88" y="-6.45" font-family="Arial" font-size="14.00" fill="#cfffac">primitives.js</text>
</g>
<!-- inherent.js&#45;&gt;primitives.js -->
<g id="edge4" class="edge">
<title>inherent.js&#45;&gt;primitives.js</title>
<path fill="none" stroke="#757575" d="M61.03,-62.6C75.79,-54.05 96.08,-42.49 114.25,-32.88 116.59,-31.64 119.01,-30.38 121.46,-29.13"/>
<polygon fill="#757575" stroke="#757575" points="122.8,-32.37 130.16,-24.75 119.65,-26.12 122.8,-32.37"/>
</g>
</g>
</svg>
